<mxfile host="app.diagrams.net" modified="2021-06-10T01:57:26.772Z" agent="5.0 (X11; Linux x86_64) AppleWebKit/537.36 (KHTML, like Gecko) Chrome/91.0.4472.77 Safari/537.36" etag="XJQt6O8shhAXdyHGKYO2" version="14.7.6" type="github">
  <diagram id="2lntWSOwdvgxtoCb54al" name="Arquitectura-Sistema">
    <mxGraphModel dx="796" dy="538" grid="1" gridSize="10" guides="1" tooltips="1" connect="1" arrows="1" fold="1" page="1" pageScale="1" pageWidth="827" pageHeight="1169" math="0" shadow="0">
      <root>
        <mxCell id="0" />
        <mxCell id="1" parent="0" />
        <mxCell id="CGWt4wzMSBsF5mTkpCt7-62" value="" style="rounded=0;whiteSpace=wrap;html=1;fontColor=#CC0000;strokeWidth=2;fillColor=#FAFAFA;" parent="1" vertex="1">
          <mxGeometry x="50" y="70" width="1000" height="510" as="geometry" />
        </mxCell>
        <mxCell id="CGWt4wzMSBsF5mTkpCt7-35" value="" style="endArrow=classic;html=1;fontColor=#CC0000;strokeColor=#CC0000;strokeWidth=2;" parent="1" edge="1">
          <mxGeometry width="50" height="50" relative="1" as="geometry">
            <mxPoint x="360" y="354" as="sourcePoint" />
            <mxPoint x="860" y="354" as="targetPoint" />
          </mxGeometry>
        </mxCell>
        <mxCell id="CGWt4wzMSBsF5mTkpCt7-31" value="" style="rounded=0;whiteSpace=wrap;html=1;fontColor=#CC0000;strokeWidth=2;fillColor=#CCE5FF;strokeColor=#66B2FF;" parent="1" vertex="1">
          <mxGeometry x="495" y="400" width="320" height="130" as="geometry" />
        </mxCell>
        <mxCell id="CGWt4wzMSBsF5mTkpCt7-3" value="" style="verticalLabelPosition=bottom;aspect=fixed;html=1;verticalAlign=top;strokeColor=none;align=center;outlineConnect=0;shape=mxgraph.citrix.laptop_2;" parent="1" vertex="1">
          <mxGeometry x="150" y="410" width="116" height="86.5" as="geometry" />
        </mxCell>
        <mxCell id="CGWt4wzMSBsF5mTkpCt7-4" value="" style="verticalLabelPosition=bottom;aspect=fixed;html=1;verticalAlign=top;strokeColor=none;align=center;outlineConnect=0;shape=mxgraph.citrix.laptop_2;" parent="1" vertex="1">
          <mxGeometry x="150" y="186.75" width="116" height="86.5" as="geometry" />
        </mxCell>
        <mxCell id="CGWt4wzMSBsF5mTkpCt7-5" value="" style="image;html=1;image=img/lib/clip_art/people/Suit_Man_Blue_128x128.png" parent="1" vertex="1">
          <mxGeometry x="90" y="176.75" width="80" height="80" as="geometry" />
        </mxCell>
        <mxCell id="CGWt4wzMSBsF5mTkpCt7-6" value="" style="dashed=0;outlineConnect=0;html=1;align=center;labelPosition=center;verticalLabelPosition=bottom;verticalAlign=top;shape=mxgraph.weblogos.chrome" parent="1" vertex="1">
          <mxGeometry x="295" y="400" width="30" height="30" as="geometry" />
        </mxCell>
        <mxCell id="CGWt4wzMSBsF5mTkpCt7-7" value="" style="aspect=fixed;perimeter=ellipsePerimeter;html=1;align=center;shadow=0;dashed=0;spacingTop=3;image;image=img/lib/active_directory/security.svg;" parent="1" vertex="1">
          <mxGeometry x="131.1" y="243.25" width="18.9" height="30" as="geometry" />
        </mxCell>
        <mxCell id="CGWt4wzMSBsF5mTkpCt7-13" value="" style="endArrow=none;html=1;exitX=1;exitY=0.809;exitDx=0;exitDy=0;exitPerimeter=0;entryX=1;entryY=0.855;entryDx=0;entryDy=0;entryPerimeter=0;fontColor=#CC0000;strokeWidth=2;strokeColor=#CC0000;" parent="1" source="CGWt4wzMSBsF5mTkpCt7-3" target="CGWt4wzMSBsF5mTkpCt7-4" edge="1">
          <mxGeometry width="50" height="50" relative="1" as="geometry">
            <mxPoint x="280" y="480" as="sourcePoint" />
            <mxPoint x="290" y="234" as="targetPoint" />
            <Array as="points">
              <mxPoint x="360" y="480" />
              <mxPoint x="360" y="261" />
            </Array>
          </mxGeometry>
        </mxCell>
        <mxCell id="CGWt4wzMSBsF5mTkpCt7-14" value="" style="shape=image;verticalLabelPosition=bottom;labelBackgroundColor=#ffffff;verticalAlign=top;aspect=fixed;imageAspect=0;image=data:image/png,iVBORw0KGgoAAAANSUhEUgAAABoAAAAjCAIAAAAFXY38AAAJjUlEQVRIDW3WV1DU9xYHcF/zkHsfcm8SoxeioqGLiiVoMIgUERG7EkNAwSjErEQlYBcUTVAQFEgixhsCBqS4SFnq0hfYwjZ2/73/t6/LVooQuYMD0TuTme/D/+X/mXPmnPnNWYQxjreDklactBJ6F6R1KGiLinah5AyBzBKjr3TqSRNi0jEYaxqhLULCLNIYMQ1jIGE7Srkwci6L3rbmvukxQmODGSuscQGaCZCeBCEnCY9rUZeRYMyM3GwZxrT1Q0Bpn6y0V1SJUQq9To/Rtr/nUMqCM1aYtgOEUw7b1YSN1bpoXKOnSZNOqNO1Ckce9QwXKZEqmG0WKup6hLWMEUIZy99zOG1HiTGUnkDJGUwzDVFWuVpJsWKjeQAhK4blBQBUbTZJtYzCoIO1BnWvhEu+kCEa8zyHMHaUcaC0A5uLnWCcMGoDcOfzNmXJ48ZKbmN963+HRkqlqqKm7gtDql80BpEeZ/WQVYdYtYxeKO9V68TwXxzE2gHCgbEuFLfj+AsGHZdJTadv3T55Mzs7r6iHX4uDv4iElwZF+b8338koOF/V0gwhYyTkMpLjGlorA8WoGUS0Fox0zo0CZO0I/VKNOEhiQsPYlBJDzO4z+75PK+I/bRfxtGgNo7o0Iv5erK5pUQqzq+oikzOLKvswdgpFdSxDD4j7ET01x9H2OQ5irSAxidHTKP5SptQG7zp4iHMlp7SxqKqyX1UKk1kDwnSepPR3UWvJwOCd1uFrlQPe20/ml3dCzBip1ctVKkyjA+kXCGlFcMcihLVChAvEpkeRqbMX7/vERCb8eOPyjxV/1JXL8NuD4Imqrqt5vD8y2to4T1tSS1tPFHcezKrxjznDFahQnR0ljRhlAkgzhFsg1LYIZSw4NaVCXjb2YO7+O0LTkmKuJf/4c+GIrEIGcxqHvrxediH5p7LI4vKY/Kq4/Jb9efyYW62+R27szyiSURMgZsHQMYB8Mc/htAXGXBD2KolTsGRNlHfczpNFSQ2DNwDoilSacvmHUL/o4P/s+sov7WZMLjf0ckPIje5NF3nr0373CP+mko8QzAyqtgKEZZ4jaAtKOHuFzPKA8KXBYbu/O1ItOKfSpEhkex7cC81/cE3CmHmwnlNcs+nEz1syOgPO8gMyeladLP/35m9Ssp4A2DQOTULEGEyMwZh9EU5ZUdz2pLbzHffl3rs+L+ZmjBKpo/jOpvbtd+8eJ2mbgh0HTOPDKtvBK7xADt8/bcArpcvrJHfxtkz/HRwFPoWCE284jLESrO385ewPvBefe3CqS3YGhncqoSNXf9hazXumIGek2mkl7gCBmYtllFdCs3dSj+cxvmdi/dLwa0v9j3RLzAg2DpAL1SG0HSZN0QeiN4R9VPo8CWISEWB7dUP81j0htUK0BXM1qlzdgGNQPX6jzexx4JlPUr9HVJ17SMnSz6986H2guk01ilrVhGW+WYhxyhEick/wzfyobmGcCoiQSA/Hc6I+8Il93+vUR1sy3UMur9ye47WzYFnMQ8+EVp/4Xq/oJo+QR0vWnvuHW8SVO2Vq1qamXsxzatYlg7GzF+LLq/YCYIxKHlHNTfSP3f5eQPKKsJJ1XzwPOtHhd7x5JafVJ73HL6XXP77fc1vdsoDCxb6cf7qHpWffl2lMamaBAzU2OQaU1WQ0N0dosVCx+NA31w/9KyzqvW2ZaxNag78a3HJ8YE3a0PKLg5+k8wM5PWsSu3yi6j4O/GHxmlPvLt2ceevBCK1X0xYYfz1ZgsQQo7im80uFaJW6362sJWV5/P53QuOXRd8JiC4Lii5bF1Gy/qunq1Mbfb987Le70HfHA+9tuW5bOB9u2P+um/+l28UQZgNxG4zZ5haFpZWsrbtpIBqQvy8XbDh5K+GDmG+XhGd9EpyXeENwNrcrI7/99F3e8SJ+UkFHWnH/qbt8zn3+qTvP0ourLz0o43ZIIMgG4nYYm8sirU5hdPFkUJxC+HF/b+yOlKRln+b4RVYEHWx4KHAMUNNK3fiIydmus7aY/nwyOlmjnq1RzjyTTzXIxzqUWglsQikX8IZ7MWKbqNJoEsWCdY+rjgbsO7NqaeH6He0bouszSyWD1EvIaJSxuNCgLxpC4+51JuUNHTzXFJNatuXwxS17U6rbRwDcDhBznc5Vp3OInFM/YfIwQW9UQnqsT2yu15rKdQcHPjst3HW1pVs7JSQYpcYg1Fhjc2vWpj9dm/jH6l0PP9mc5bbmmLtXmECtR1nnG84wMeRy5ig7vOtrotbt2bEi/J5HyJOA0+LNOeqA87WJJY2/9kE1w7ozed1rzz3zvdq7+kR74O56v62F73985MDx6yOoESCMAGFdqG5ywGE+L32+7NHPu5ZsilgWXLBib53v99LAe0RkBRmc+zw6p27P1fZITl9wHumVpfRPGPQLrffcVLDY/WhxRbcCMxCsGSIsC9xEv1Z9VFS9vIuftWLjfje/m16HeX5nZeuLDeHPHYkDzuRW44lmxxe//RlUaPO7xqxOkPqHNa/wzA7bd1OIWEZRDcUa3+KcfYTkgKh2PYpwb//a7uaR4RtSvTFFFXTHFNkwnQzNpoCzKeTsvv7Zzyqm12br/OOHV24sXRV4uawdBVgbSpgwzABhC81qx/pAwQERN0qnE4gw69HUcr9PSwIPd2zNYWK5U8fEr86Qs8nIbEz3TFCpcfV3Ys+9tSs/y73yWDDCTEphHcnYUXAMer3Drydr7pN3HR5ujDPo5aOkXgw6v77Q6BVR6JtYH3RbFNek5UicRzpMoVVs4HWBx6HHK0JvX/tV1I9ZFaQZYSwI7kDgaQB3LKyxoV/Ze0zSlkqRYpJhYBwWo6Z7TfAmTnlA6pN15yvCc3gbMxt8Tzd4H30Yfb7qcbdOADohrRXRaUFCC6HjKvUsgDvnOVYrGu77rrvla5ORT5C9Bv0gblRJDbpOeqyABxe04hd+Gzz7SJTbaqlVTA/Tr0bwlyrCBpI6lNUCmB4hplTwFEC45jmaHRXLi6q5cThVaNXVWYydJNsvkvP7xMJR3DRKTUjpKTHzUqiZltITasIBkHaQtEKUBX79xkG4HcId8F8HGUVhMN1Uy/v2GTdluPtuV1sxr6NUouxk9CRGGCDcpiIcctopYx0q2gqTb4JQtrcyd1HMXQEkrie0YpDitrTf7WouVcraUa0E1ahUMIwQRvA1p6DscsaqZt7+34bS9r+CUAscBtsxBsV0I5RexuIoTeOQBsD0FKE3g5QFxB1qwjlK2ZXMGMD8H/H2nYkw89z/ANqMdgDo6kR4AAAAAElFTkSuQmCC;" parent="1" vertex="1">
          <mxGeometry x="293.5" y="330" width="33" height="44.42" as="geometry" />
        </mxCell>
        <mxCell id="CGWt4wzMSBsF5mTkpCt7-15" value="" style="dashed=0;outlineConnect=0;html=1;align=center;labelPosition=center;verticalLabelPosition=bottom;verticalAlign=top;shape=mxgraph.weblogos.yahoo;fillColor=#65106E;strokeColor=none" parent="1" vertex="1">
          <mxGeometry x="295" y="270" width="30" height="23.6" as="geometry" />
        </mxCell>
        <mxCell id="CGWt4wzMSBsF5mTkpCt7-16" value="" style="image;html=1;image=img/lib/clip_art/people/Doctor_Man_128x128.png" parent="1" vertex="1">
          <mxGeometry x="90" y="400" width="80" height="80" as="geometry" />
        </mxCell>
        <mxCell id="CGWt4wzMSBsF5mTkpCt7-19" value="" style="shape=image;verticalLabelPosition=bottom;labelBackgroundColor=#ffffff;verticalAlign=top;aspect=fixed;imageAspect=0;image=data:image/png,iVBORw0KGgoAAAANSUhEUgAAADoAAABTCAIAAABBIoPtAAAgAElEQVRoBa17CZQV1bnu381wje+SG73e+yIKCg0C3TRN00zNDCKDiICMMk9RfEoeGTRRcSIMosaYe2Nucq9JvGbAQIxEEjExRokToDLT0OOZT1Wdmvdc59RZ762/ChqStMnLWm+vf521e9euXV/99e9/3A2UUs45Y4xzLoRgjEkpPc+LB2XU4qte1IQQnHNCiGmaUkoRNUIIY4xSKoSwoxaPx6vFK9u2LYTwPM/3fSllPFlKyTmPn0IpjTt/5RfidT3PcxzHdd34AfFg50Lx8zpnep5HKbVtO36BGIcQwvf9+GXiGzVNE0JIKQ3DYIwZhhFD7Fycc04p7eRCPPmvYJVSQnw5fu8YlmEYruvath1Dl1IyxmzbdqMmhIhZy6MW44sZRggxDCN+qmma8TeJGU8IcV1XCOG6rud5MWIhRC6Xi//Udf2vA42vgud5pmnGQKWUx44dq6ur69OnT11d3auvvupH7dVXX40Ha2pq2traDhw4UF1d3bdv3379+g0cOLBv376DBw/uG7X6+vq333779OnTw4YN69u3b1VVVV1dXafMHDhwYODAgf379+/bt+/WrVtN03zssceqqqr69u1bXV1tGMbfRIzCEGONv2BTU1NlZWWPHj0qKyv37dsXs2Hfvn2dg47jvPTSSxUVFf/wD/9wxRVXxJ2ePXsCQM+ePbt163bo0KFUKlVZWXnFFVcAwDXXXPPjH/84fu1rrrmmoqIiHt+4cSPnfP369RUVFT179qysrOyUvb8CGoUhnhfjbm1t7datGwBUVlbu378/hrt///7KykqImuu6L730UjwhfnB86corrwSAXr16xXC7d+9eUVEBAFdeeeXVV1/tuu62bdsAoEePHvH4pk2bpJSrVq2qqKjo3r17ZWVlJ0pCiOM4naLc2bkgu52vxTlva2vr3r17jGzDhg27orZhw4Z4BAAsyzpx4sTu3bv/7d/+7b777uvRowcAVFRUPPDAA88999zu3bubm5vb2tri+RUVFfHLLFmy5LOf/Ww82KtXLwDYvHmzlHL16tXxO/To0aMTlu/7juPEiiLewZ1vcom7MZsvh3vVVVf9c9SuuuqqTriGYTiOY5qmZVlvvvnmZz7zmZjTR44csSxL0zTLsjo6Ojrnx0Jy+XeIuRvD3bx5c/wxY7jxx2SMCSEopXGn8zX+BnfjdWPmdT4+l8vFC3med+jQoe7du8cM/uijjwqFQvy89vb2eH6PHj2mTZsWi0RFRUVdXV1DQ0N86d5775VSPvzwwzHcbt26xco+XiHenZ7nua7bydq/Abd3796Dota7d+9OuKlUKv5Atm0fPHiwc/zIkSOFQiFe+syZM/F4ZWXlnj17amtr4zf//ve/v3jx4vjr33PPPYZh3H333fHLDBw4MJFItLW1tbS0NDU1tbe3x4j/zHZ0LQw9evTo1avXM88881HUnnnmmV69evWIWiKRiDUx5/zXv/51DKuiouL48eOdevrUqVMxzwDg8OHDL774IgDMnz9f1/Xp06fHn+uee+5hjG3ZsqV79+6xkqmtra2rq6upqRkxYsTq1aszmUynGuhkcNdwKyoqunXrtmfPntgW7Nmzp1u3brEOSqfThJD4pV977bVOuB9//DFjLN4iTU1N8bvFes00zQULFrzzzjtSyvr6+p49e15xxRWx7G7atAkAPve5z8X7O/4IlZWVdXV1nufFDO7E+jeE4eWXX46nvvzyy52wNE3rtCkHDx7s5OL777/v+35sV8+fP9+pX99++21KaWtrq+d5hJCamppY0a5cuVJKuXHjRgDoFrX4EbGoDB48ON5hMehOxECkzBODBkQRKR2RPmM88djTjz786FO7nj764VEppBTy6IdHn9qFg888/UyyI0U8Go+fOnF6+xM7tj3+jd07nzpz6qxVsKWQgotke3LnN3Y+/sgT33hi+9nTTfTifNt0Xvj+C48+/Og3Ht/+29d/m89qv9j7ytYHH9n64CO7tj/55I7dTz/59PYndmx96JHvPf99y8DVOOPEJej7MKk8CVbJSJbb7FAnyvN94vp+u9GRz+TzScPUHMlwnqk5+aSRz+STLWniEkEFsZhk0tbcljPtWlYzsobv+MzhtuZKJt0CaTnTlkvk82nNd3xBha25zJXC57mElmrN6BnNtVzqUVO3cul8Lp3Xc3qmI2/kDS2r5ZI5I2swHx8hmeRE6GaBuJ4iHJgy/DBLmOE6rqGZXHi0pLvKtaVjKdsOHDuIOtJxlZuleVe5rnIdeeHX4nY8Ev+a0oqv/tm4LZz4lrhjB06O5ztX61yzUDQ7+2ZgaVLXJIIxCnmf2IIzkIxJwoTLmM89wiIPwuSOzamPRDykuO/YlHmcEiTic9+NLkV/OhZ3nYszo5EL0zxmaHgpvsWLO7gg9SxK3Qur2YV4DnNtXNZ3uecw6lLfpr7Nic+YxZRrSQeI5JK5wrUFpUISXtSZ6vAFfok/o8sHqaQudX3uU0k95lFc0mMcb/ElpZJih/tU0LyedXw7GicudXHNaBoVlAhCJfUldXzb8W2f+0xQvMrZpQ7HdaTWLgJLD2ywTr957MmNycdXpJ5c37Rz9fmdS3NPL2p76M7c9nXazg3Zbeuy27CT276u7aE704+vST++Rt+10XnqXuuZ/2Xv3qTt3NCxdYW2c4O2c721+y77qf9lPPmFeH7y0VW57euav7Yo88Ra79nNxpNfyG1fZzz5hfyO9drODfkd6zPfWJt+fE1227p4RNu5Prd9XeaxNbntOJJ5bE3mibX5HevTj69pf/nH0krbgQ/82GvHR4GoBTkO6CRgU0FOAD4T5Axgk8EZhcQm4598JoiZwKeANwH88SBvhmB2ND4d5G0gZwOfDN44vEongZwK4laQ84BNBDoB+NRofAKo2SBvv7CCPx7nO2PAaYxumQFyVvSsWdhxx+FVfNw4OPbwgyrb7AYeyMKpYxOhXA3h5yEYBuUGKF4L5ZuQwiooDkQKqy6MlOshrAF5NfArIRyCd5VugLAfBH2hPBDCvlDsDaUhEN6E/XI1lIfiNKQaKA3C8fJApFIjlGqg1B8nF6uheGP0iNFQrgJaCerzOOfCUqPwES33PyCNFAk8sIWtD68sN0J4PXh1EIyF8Doo13ZN4QgIR0BpKD4jHI5UGgbhMAjroDwsQnwjlAZAsRaCESAboTT8Io242IluCUZBUAdBbfQbd2ohaABZA7wa5FBQw0BWY59Wg38jJH/4grTzPPCgEHCvoao8Hso3gjsM1Dgo94PyiK4pHAldUnkMfpawOuLcEAhGg5oE8hYIxv/dVJwApQlQHIuLiDqgQ8CvgtT+vdLVReCBo4SzoLHciJ/bGwalUVAedIFzMf/+5Dfm5V/8FsdAcQSUaiMaAcVJEMyBYAGoOV1TaR50TQuhdDuEsyGcBmEjlOpB1QAfDLk3XpO+IQIfKJXOloXlkShqdCh+62Ltp8OthbArkqNAjYCgHkojIBwHpVlQWgylVRDc2TWFK6BrWgfhKgjvgPJMwA8+AqVO3QSF996WrMAVAenKwrfvK9dAuR7FpTwMZAOU6rqmsAY3zV+SrEdpC4ZDcRSEk6A0F8I7IdwIxbVdU7AGuiS1EcK1EdxboDwWWSNrQAwB7/hHktk0IKBMqe3fXuoP5VH4HuUhwMZ2jbVUB/hWXVFxKATVUKyBYj2UxkPpNiguh+I6ZHCXpFZAlyQ2QnElhHOhPAnCBtRUfDiQBmCtzZK7TDEIcjJ/5LvFf4XSWAgHQHkA+BNRHrqk8hB8n7+kcDBqonBgpJ7GgpoFcjGo1RAu7ZpKi6BLkmsgWALhzIi1DShdfAyQ8SBzGSl8qjgEWZltejH4ZwjGodorDwD3r8CtjrTpX/4OjO7tj5q1NBKCKSDmA18G4bxPoQUQdkXBcijdAeVIEsojUT/wKeBPB2XqUhKqBAhX0uNvOdcDHwfOOCj/C/CJEA7FHYNaFoDec4d+13J7y5xw9VK+aQK/p1FsahSbxshNo9SmhgCp3v7ieP/LU9wtk+3NY+wvjSUPTeHbpvqPT/J3TOuS9N1zzKeXBM8s4U9MsHbdauxeyLdAeTL4KyBcDXQRlKeAqkeNXqqG7PrZklFMHkoJnMrgxJHCEKCNUJgM5X8CMQmCftGfU8AfDM7v92SOHUpk3nBPvms0HdfPHtOaPtbPHNVOH9ZOHs6f+DB//APz6EfeyWPuiU/Mjw+bxw7zcydF22necoImT3ZJXvJj0nZOtp4Tp96nbSe9c8ftlx6k68BZAeEGIHdCeSrIEZGpugESW9ZdiiYElcHZY/nxIEeCPQnKnwcxHkoAagBYo8GqAufkO+12/pP/09ZCjISVT9j5DjuXsPIdttZh6e220WYVUlkjr9uaYWc0PW8a6GVKTiQjindJIsgQYqPrRkwmiOCW88uH+YYI7lqgS6E8EVQdlOug3B+yD2OIHzdQRKqOM7l5/6M4FMgEKN8AbByUAcp98HNwAPn7t6ymbLvW5pz3CqlMIZXVU1ktldfSWi5l5FKFbLrQ0WZkMk426yZTRi5vuj5nUlAhOO2aaJA0me9IbktWUMIiRvqHG4rLwIuEQSyBcmPkwNTj9i08+fWLaCUoTwqjNbtxWHgjBKPQirIxaJzERPS2CAB/45fsbCqfaglOUD2b1jKpXDqdSaUSHan2tmRHW7q1LZVuzetpw8gUcum8oRU4ZUIiSca7JC7yDhO2Uq6UBaV8p9D+zcWluZHsrgC5CI1AMAxKo0FVg/OfOy+D60qfZpJfu7l8DYT1aIFpPYTjgU4Efwa4V0Pu4Auenm1ymtPnzKSWSGuJtJ7M6ImM1pHXEnkDKZlpzRvJvJHI5Ns0K+FLgwcmDQo8sLokSfLMJtwRnFEqmfAKqcdml6cAWQnhcijeAeXBEdwxwIYD+8V3LoNrSyswErvuKFegSSvVAhmB/kOxClWb+iwkX/4Wc8wET+c7aEvSa095iZSbSVtaulDIGmZOt3NaSjfylpU3zVRBy1iGrTwvIE7gewHpkiT1CeHCFxhbcK4s99RXF4Yzga2I9PQC9LeCGiiOA2ckqDf++0/gGiWz41srUV6Hobz69SCvB3ITapZyXzjxzUdJSzqR67CahJnKWu2pQvN549Rx7eM/ah8ezL77avbQ3vzvXjXfOVB4+1fZ3/0899YvnA9e848ecA7v948c7JKMk28Yp97xzvyWn/lF4fhe+vErp9Z8LpwDvBNun8hGjgdrDASHLqQ7MC0iGCVS73jp2woid3sQqjA+DMRw1CPh9ZDdPPe8157VC2ZLzmjSzWSrkU+Rd/Zn5oOYDXQOeMvAvR3YYiCLwV4A1lLwN4H3ZbC2gPdA18QfBP4Q8AeBPAD2V4F+DZxFaDiC5cDXAJuFnjv6+MPh/CiQ2Q8vcZcFRIhc6pV99IrIH+gHvBHkKDSA5Rsh7AP+6uHHyq2GQfVEW7rVzOVa07Yh3309dSWU/xGjBjkCgn+NvPIBoPqAqgU1E9Ri4ItBLeia5HK0eXwhyCUgFiGpRZFXtBzIBvBuhlIcvwyFU+NBkHN/ClfmM6//xrs2gjsARCMEI1Eq0Cb3B29x1SnZVND8fLIjadhJq7nNNNSx91pq0CUvjQEyGoKqC8Y5GAiqAYqzobgMxJ1dW9pwAbhfAHslIi6thNIyUHcAWwDyTgiXAVkP/tTIAxmEG675FhCs9RJcoahQuvHH95yqCO5NIMdAWIdWA6ODweDOhGbvpJl1M+mOVsdJ2K2thhGc+eRsFCCF9SAGYMiE7mkjFMegw1BaAqX1IDZAcUXXxNajmAaLIFyI7mJpAfBFwFddhDsZXReMBQdB+s4BQqT/FG5gOsfPGMMuOIfFBgwJ+ehIUdeBOxo69I/shJ1MJc8aTlpPZNJmcOpM80iUFgwe/ycU6xBreVTkvI+L3JqVUFoBxTs/he6A0kIIb4NwRhQ7LIXiGgjWR3DXoktYHoShaDAQrM3TqLqQNo62mmKiaLP2VH40FIfi9io1IG7WCGIEInCqIJv40G232jPJc7plaGmtxS5+cu78XIzpvYkghoI3AFgt+tG0H3bkNFDzgM0DvrRrcheCtxTcpbjDyCIQK6G0OoojlgJdi1mB8lAIBgMbCPyxlbbCKmfcQCjOAlfodmYCiGFopjGsjeDSMcgzqzsY5w+RZrM5k0rYmmt0pJtd92S2bdeq9FfGpB5ekr97pHbvOPuLNzv3TbM2TbY3T6GPzaRPznCemuLunNUlWd+8JbN7WuqZmdpzt1o7R1v3AVkSCfriCO44VKnBYPD7Q/HZLbrC0ucluCTwlM+TU4HWovUrD0W4tBETE+XxYAEUzvyBnTXOZzMZr9U1mprbvLxGnU8OmB/sKZw4bP7h1dTh32lHDxlH3tXee1s/esg+977d+p7e/jZperdLok1HzBPvGmfedhO/8488bz41CX2xRRAuBrYa/Itw3SooffeRnFIX0UrwFOXUl77fvKE6GITONUbhfUFOAmMKuhAeAPv9C2mtWUuks0bSyCcS6UJWt8x8opBrN3SzkM4m81petzTdzmQNzSh4xCeCOsz1JLW440mPCt+nDibUJHUw++YIg7uE2MoV/ml2L/A70fyq5RAsjsK+YajLCgPBPfi8614qbYMTEOUx6bnnHlhSvhFjQ9zjn4fiZNCnQfkaYABk744W1WKnrXRW75ISGT2nWzndSmHHcH3KhSCUukrYgrqSUcEJo+imKUEUZ6VCoEuXcV0pUUwXbwO1FMKVIFdBeDu6AOg93gDGEDCO/UQVyCXuWgFRvpDEb9u2oXwDOkHlsZhEKjWCMx31LgdIf+9rbaV8Is1zuUTXlO4wtIyhZfKZDkNPUGJwaTGmM+YwQblLmE2ES4TnCmpzbrCiFRjSZ6ygFGPNwWxQd16AW5obwa3HRxsNYJzeqwoXThCgZkC4RErGM9/6SnADhGOhPBpD4nAk0CmodwXAue0bcoHRkRPZfKZLyiczRk438lo+kzLyWd+3qPCIsIhnCs4Ql82kx6RDUBaoQYu2MiUVvqWUbR0NZqL5DVdBsApKsy/CHQjmBLDbfq3sTuYiXCqZFEKa/72DVaEqCOsw4YNph/GYlSh9Btq+PM93W92slc+SLklP+IUcLeRIPu3qmu9S5ivhS26YJsMjGpJy6VNp+crmXBeMFh3lSiodT8pc8rdq2gW4qKpnojUVIzHetmeBl/+jvCQLEVwhpC8l2f89twoFN7wJxFhUDsUJaFHL/wKZhX3c1//dfPVH7uuvdE3799KDr/hvvGK9/nP7zb3sw/384wP8o18Zf/yxOLaXH/5vevgl/fAe7fy7XmCaASFFR3mSS4NI2X7252JSlF5YjakddTPC5aMRgLeoJ/U+Zpf0WASXSWkqJd/6mRk5jWFfIKMwsRdOwLitfC3YgyC56YaO9f3pCuiSvGXA1gJdB/YasDcC39Jdfv3z/IF/8h7tV9rWS30JxAOQfqiysO+LXJ5lyvAiuELqXMimT34gx6MJLK1C5RBMvgi3FuiKPlyexfLaxYbC4EupKxV88Et9IIag4XUoBuV+EDRiorh8LcheUJgAzs2gBndNfCB6cKoBfWVvHKZFMJ83H8gqZFhpLno8qeWQ+94aQTMZ4l2Eq0khTx3+jmi8BFdNQrhsLJSHA1s7iJdarcv1ri6JG/iuYsGJkx2joTwS067lieANxGQZSnM1eP3AnQ3ZW2505kFhDuijQRsHhXlA6vAqaQQ5GlVKGGX1gkaQczD4dtaCsxgZFi7CxJ63CFL7tjuCNgsPyxbcJ8pzla/v+7IVebrI3RVo1ctDwW9A0IUH1wpVMIPLjHCOUbfoSEWLzcb56deUB4Aai5bCrYl08HXY16YCeXaZ/vyP3J/s1H+2w/zRLv3nOwq/eSy7BFUHmwSiATObpb6oLMu1oG4BthS89cBujTKNq9AKBLPBeuMFn3FTeFh4KTq+lKa0it+6I7cODUS4BpWD3Yh+qVeHuj/z7A7JZKF4qegOGude0ZaKBe1Wy4KbygMwi12sjqLiKPvO6+H0TPB/v43lc9b59mwma5tGymi3vCOJL05Gn3g4+sfFWvShMH02EnMw4Vy0qJisXQnh3WDfDe4c4O/uVZYMcpIS7hcdIqVFjdLu6Von3OWR+NWDPxzCayH/n9/EYmNwSXrB4JIgXB5kvPa7xpZvwvw9q0Xti8+uATkMjk0G4/c7E8xvybY225ae5+ebDM9I21/fVB4AcjimjoOxmKBwJ4J7M5BZIBZAcRHwO8BfAsFdkNkMqdtBnjvo+tLW0MqRosOFtLx0sLXeXA9qGZTWYFxJG/H70AaQvcH8+X+h1rpcGCyumHS44qrA0g/eVo4qH+hxjoXgeryzXANaA3iv7DrvsrP0+GmWaO/Ip1tNV0vZT3zFvg7saRCOgWAMah9rHBg3gz0f6CoINoJYCuwODBmsdaDNApn6g6ZUinPBIh4xaVutfPPVzjoIlqIPGSzE4KA8GHgDOP3AfXMvllkvh+sJKYnNuBBU5p9ZhfusP5AZCFfdGHnoV4MCEE/en8wQze9o9fNnW1PteiFVOOU9f797bcSPG1Fqw34ga4FPAH47ZkuDTZEkzMWI2psL4jaQySOWUloJa9MkMBWVduGMHWnAYpRtFwswmir3x72bGQDsk9/6Ugp+mTBQKZVjUSqIlPp/3cProXw9kHG45UsNIKZFChiAfnltNk34uZyZcXOtZnM232Y3BQd/UL7tXwpTwagFuwr8PqD+FW8sT4NwCSbnvGXgLAHjVkjcNaP06HCVzlEuCc1IIT1pKE/a+U/0hSDXXygOkHmRP3gDfqu2m0C0v4+7zL8MLpNSWZYfpYDMPV9mIxCuqsE0WdgIzvwoDrsJzC2LO0yPZnNaTic50pLST7GC29ykfvrTjgPfLTy30n5oorkUCiMQtzMG/EVAN4G29Ur7pZXGa4+k339Dnvmh4QldKunkEa4wlMudzNHcHChuwFiotAqcGO51mNltGgJS+8SVUrmXKTKquLIICQqEysybL9JqhCsb0DqEQyE9BWRkkLNrZhi2Yae0TCKbz9jnMuZJm6Vz1Gm1dcMvtL2pnX0l/d63k3u2pJ5dpj27zNy3xTu0wznxU2G8R0SzUfSsMJ1VaI8IJUIVqDQk1cnpn7Uuwk1WmoOya89HD7vcH+h0yFQD9RMel5Je8nGAKKZs6ZdSypOpTz5w+6B+VhOjTdYfcmMx81OuguTskTR9Pp3RUqlsOpnNdmSyHZlcMqel8/lsTssUsrlcNtditB8zmw77rceolRTCNhR1A8IE9SnzKPGE7xVdu+iY3HCVJ6QujzzftBpFvHQrhOsjuP+I4uTeiukmIk3CpRCXhZZMMeVJL0wqIgvNJ4yrMFwLJkRarAqciVizKP8TpKYPYC2HW5jWbqezmY5C2/lCa5OWbkpZLR1eazYvzHbHO5N1zid1Laf5toUHc7hJlE+ki6clPIPavrC5dHxhZRk1lJLck+8837IcLV/pVgxCnbmYaikPw2yiPfNGImwmpFCXzkYCUVQRaYUJRSTNJdL/iBqX1aM2KQ8BMvGCHGuTu6kP9rR76XYn3WYl241UQsuktVxO0zXdOG8Zes7wOvJaOtvi6S0lV1eMEip9qnzm+lQnnsFdRxBXsAJntvJcbku9Xe19PLUAsw2lW9EQ+jPQAQwbUL3YX5jsC0cIyYPLuBvDNcOUJFLZhVRvVGFxgqxUg2X4Yi2mpnN1kN++RPvpfxi/2VM4fiivt+iembdpJkNTLX4qezant2fyqY5UMpvLWa5HfSZ9r8B8l1NBMdMouc+47RBd97Oy/fXCO/+VevFr9kOjnNsjv/EOKCwGEeXDZSOW6MwnlvvMFUyyP4EbRRNWOSuolL5rNEQGYgTyWA6FYmMUG4+GQn9omgx0PKjbbyjeN4c+d7+z/3v6R68n2j5u0ZpI63HdTLa5hfN50+pwg6xQtqQuMYlwmcBTHX7Cz7xnffyS/qvHUy9t9r87LfPVzyZWgrM0qkxtALUSCivRmJcHomkM+4Pxwpc85isqSekyYfACT1FphRpmu12bz8JyqazG9BEZjmU9dQO6AXIYmMMxHcaHgqgCNgy8GeDc1WB+Y7H5/Eb39Rfdk3/Q083JZKaQKqiCK6np+Rma+8Q794793s/MfY/o356nP3i9sQm01ZglJ4sxS44l1XVRzLMa9TSmuQaBOQ3KV4N+YLtLqaLSvxyuXXTQupQMKqRjmuFy8KuhOBzEGHBrIRwN6jp0Yspj0VFCuA0g6rEWzi8SGw7mimvkl2bLXV+1fvhc4a297pmDhU9+mjiwk3x3gvvUUOerYK8F9w5gt0NxIToGaj7m0cKFmPYTG0GswcReOAdTY+Vq0Kaj1tfe+5ZL+Z/DtYgruUtEighp2571tTmsHth4TFR5Y9HxxfJLA+7WchWEN2JtozgclbEYj6cJwjFYaGb/DKXrsGRJZ4J3dzV5fKS1tXfunihbugiKUQ6htAwrlcV5UIyK8cFSTJKSJUDXIPEVQOehp8unRu4YQOHoix4XypXZyx1Iz2GC64InPInRX+bZh4I6dOZF5LUg0MgHx/MjVVCqu1SMv3TmYWT0MjdBsW+U363BAwKl+ZFjHuVAsZy9DEqRmCLKJSBWRHxdgrVYuRjEYvTd6Hx8Fhq2z6I7Rk4fIGhxZVvxUmwJPkZujgh0WylKpP+D7cXBkZfdH61LuT+Eg0ENBV4PbATC7RpxDYSD8IwKRkejMPgpLoPShsg3vxN/S8uRx8FSJBVxNFiHxfjSckxXlm+OPuN4CHqBPhWK14E1EmTqHYf7ypRG8TKr5nJKBeWBhwUjixX3fpPcBHQksAaUTjkMisMwCOORO9t5cKDzTMYFHg9BuKWB0XmVCXhiKFgD6h5EE1OMtbgEc7rBIpALsfYr5wOdDf4koOPQb1TjIABwR4IYDImZPYR1xOIFZQp2uTuFE8sAAAPWSURBVHvuCuZxLhS1lLI0N/jV95NjgIwBNhohyjGRRzcWkzrFsRfK8H8JOqyO4A5FJy6YjDtJrQFxFxQjASguwh0WLIDifCjeDsXbsEgdjgZaA14N6h/aiAd3+FjcYWQQmHVwbs1QLk+6ylJ4Bv2yLI4vpUslD3xPsYLly6O/07bUF4fg+YSgLjoDMhrtcGkcnqrpPDXwZ4jxz1oMQ8KRmJ0Ibo0EdCWo20HOjQ66zIZgBpSm46mV0hQ881BuwE+noowy7uMBEFwLrA9mbrRln2nbuZoXWxxlRq74xbBdSvCltByGzpE0La6UrgXvvqy++xXx1Hr7S9O1pb21ieANx+itXBPVui4edbgcMcZqI3EX4gGisVCaBGpGdI5sKh4oU5PR3JTGIEdReOqw3FIcg+kBZzQUhmPxmU/HrL/32Bz/O/+bvPIf9pGDWILghmG7HP+t50JDuL5DpZ9iKqcpZflKFTQ91B23xTjzdvY3L+T/42H764uc1aPM+f2CT0Eso6pEODIygfWIKRiN31eMxbgAiyvDoDQEdUu5D5R7Q/B5YDXgTIH8sor0/bNy/36/88v/JG/to61Hea7dd2yPMSqZxW2LuvLiPwVhSg+hY47MEkWroJRBlHJpXilUFIpL6UovzduPFj56Lf3Wj/lTa+hDc8nqYXQi8AFRfeoGPFYWVEWlhFo0IrwBLX6pDiVH1GPqE4//9APeG+WSjUZ+ky03e1sX+9+53//1C+Lku8LMYiaJYu6LSukK6UpJhGSKYSR5GXvxMPf/eyNa0j9/3H3rVfdHT9Fta/m6EXwWbhQ+AHh/LHT6w4GOQV1WHhSFeg3IVDoY7PFgr6iyty62v/cVa+92+9RHfluTtHJSeVh6wn8r4r51Ke38aZD+PrjMcH3mu0XHCXOee8w7/UvvwLfsH2z1dk217+trzkIp57VoYtgEzFNlNoH9xWvtbTMLL37dO/Qz0XaCF3SPUGlmpadLYYvA43geF0+oEuf/N1xNqYJSDlMOwRO4TFhmqZAram72TXL4Z+ZPdtiPrvM33mLfO8PZtcL44RfPvfWTzInfutppU+bNwHCFIaghucWlzZXDAo8FBI8P45F1PPnwaUztHP/7uGtQzG9Jm3GdKYMrW5pMpBjXAuYJSmxXtHeID95333tHtB4nToY7eD7XJCKrVKboayXLLZmkVPCKrh94JCBUUZROPMIfUSeuT+n8fXCVS5VHiUtshxCHC1cqgwZZ38UIB/W3q7gVEEt6riAeZapgKcf3XeIK6TBlecoj0ifSVJ4TEKbwMLZEwn+TouxvC8P/BYuJMgP6IgrJAAAAAElFTkSuQmCC;" parent="1" vertex="1">
          <mxGeometry x="380.53000000000003" y="374.42" width="44.02" height="63" as="geometry" />
        </mxCell>
        <mxCell id="CGWt4wzMSBsF5mTkpCt7-20" value="" style="shape=image;verticalLabelPosition=bottom;labelBackgroundColor=#ffffff;verticalAlign=top;aspect=fixed;imageAspect=0;image=data:image/png,iVBORw0KGgoAAAANSUhEUgAAAFUAAAA4CAIAAAAD/SOJAAAYhklEQVRoBd17ebBexZVfpypVk3+SqVRlMqlyhal42AzDGHA8xJkwGezBYFYjht0GsWiMMZhVeCwLMCAWswgEErIQQsOiFSSEkNCKJJCetqen97S9/b1v/+7at9dzTt/vCZLq+4Q0cazoFS6Wya0uqT/de7vvr8/S5/z6iNEffOGnFxTXHzzeFzoA+wNn+xQ7joIHgD9wwC/49c+O32kigDDPJBlSHr9Bw/v7TU8/OnCCLJJ0QFYTWv0FwxrzdJ8dv8mIUFdGQo7CRQCWlFPR+tX1p2dCrvKIJFCUG9IJoYydG/MnfaEPfnb8gXOGDJFwUmJkLRIarvt37bvwFmglFkADZk6QTmyu+f9/+JvOcbQaFElwKXlzSINs30dd7Fv2YD3JNVhjICWdZLkx+IVKdeyTfXb5ayStqdFSkigPUBtCWeVTn26y75iD9UZLkVFkMjJJ6tCZsX/SF/rkZ8dvgByn2KoY0UYQOrTD7Zyd3ho/MTsYhKScNICaSKSOnPxCUY19ss+OnwMRBxdyoXToXBIF+pmnehgbeW9FMMJlpp0k7iw4nYB2Yuyf9IU++dnxWwkRcZdwrXUlh4MvvyvYcZ3jTpXh4HBu8wY5QRXndK5jwV36FXUAx8bvMjBEXn8BnAZCsAiE5IQutzgpo60Y3rUe2XmSsQNds0JMq0QmQqWglJN0Nssyl3xF46Jj489LQiKFzmkpDVfWGknGaUDiHBQ1Rbb8vdJf/mmVsYMPPz6YpzKzQDYBE5KRSkOsUGht7Req1mOe7Nj4KdHWWIuYGhGhTEAbBBJGA681+vW8+XX2J3XGqhOvF2oYU9PIM51zW6upPf2mYxB7GipMA/MV3QCOjd8SRjrTFtD6DS+RPEOtQYre9mzyIyljhrHquMsE76jmqWmkpt6TtX0YzVnUeOWt6rodQZqG1mThV3QDGAt+W81l4tAl4GIAK5QK0z0dNOG2PsYEY5Xbb8GhAwRZHA9Tbzt/dOrAdff03zUl3LVjGOQg2obg8C/Y/2udglGALpBGiYgaYtPK8OwbQsaQsfqk+3g2EDjS9ab87Rx96RUldl7t5bm1kVrc4iaNXSyUIf4VNX86tvxJCBckjhtLOoRgqOO9yg8v54Xk47emSRmSkj314b4HHx9kXwvO+F79o01meNDqhJOMSfjoOCGIv6ILcGz8GZq8HLnUhC0pdm9ufvuCgDFiTM+fV4V6OYdWVw/97Oe7GIv//Fzq7eC5CnLBLUdjjbEZgXGA/3L1P3SGJCmkwEXihts/YUwxhjPuHnSxCkmQdQ88QYUt8GobEMaE2hpSFomSHALScW7V0TckIDQOfXhki2Y8paKJLBoESwAEeKghFtGH/0X/rAF6roGQ/H389E7R9z9GXz90D4oB/Z+jzM2x5Y/UNEhV66gxKBkbYaz3334zCVOIed06WR+KixWxDz2CRitnR4kgLBAdHfWROwJ1YJS14ASiBEiUMdh0LjapVgKMJmlIGtAGrLGoUyAFxUop9GKx/mcKHj8YshotFk2jj9uQUBkwxoK2oMFq78p807a4xoAfM9I0kBPs/KDOmGWMnnhYBlkWR6EjMWfBMGMfM5YvnOnCNLGHiLDR1T2C8ug9JUUSxBhrMkbkPG4l0oEGStFmZIUDXTQfRxZNWrCF+I0G48MwrzfSFh1LylhpfVPGWuvFrx0IBzw3aa4z5wf0Db0/QsRj4wcil1I7WWhfPcTYQcby13/r0zqiWg4fP/BiVigF3naztWk9Hl1WrwVjVQFrXQyUERmhqnui6k6dNl2GOjNKWYV+IkFe0l7YlkB71dJFSC6LjtdxjaZYCOstwMO25CEaIlW8K4vXNfgRNFCmDjFyx8ZvDQmgUpxS2LX3/L9oMZYveC20WmiMnRx5c15WyF8xFu3dkkkcXYCxW4EmCYYkElUGGxMn9t02IVy3Og/RcyrC47AABsBaIIVOeIXHUUMh9NTa6EJbD9UgmlGhIxlr/U8iUzCTaIp3M29lTtNhPuLY+JHjILm8ZpHq+9c8FzOmJ08Js1LWsGQzO9S2n33tIGOOsf5rr5VR1RivedYeUoFjakGAsSQqOYe7doSMDTEWvzDdadIajEEA5FqnSmVSGWlQencIxgqtOGgOWmgFxhJ4J6qsUUKSQTKohFTWGIehFkIbVD5mh0ShMJpAujH7Pw1Sa5Q+BxRcdA/+6Kb97GtU2a4Di2kj/qTU9+iUUb8YMzb4yrOmuEbxj8UK4pwLoJ48z7s7P2HsE8bstKmgsNlSSa4lGYVGW6PR512SjJc0Anl/qZ3QZIuUlIwp9gunwWXWNw0I1qCJPT+prVFotS0GCVqq0spGv/PY8tcmNFxX0BlBpHWlf1sPO05Nvhu5lXxItELb21/+V987WFhB//H/+TD+wypwdN/n7wBKSulAnruh3a1iH01mP5U1DXdCA6cwwOEq9JZgqAKNOsRBAhmhdVyZ7orprjiuCG0CmVScrMVUqkqoKiGmkqyVirsotOWy2tetewex3iAZW8ND0+ScZ1l2BD+6Yg8p9li/wFB4EGdds1xzWnOsOwIJntRePH8HY4229uDjBukYJQXzF2EhOsOYSGPjc2BtrfGmWxih8lt4QR4QkQMC4yVK5Kc0Kg+pRo5q7RFjw4xVFjztJFmd2k0b6fnZ8b2P12+ZHN8xJXloejJjZtLsIxL5UKP7mdcGHpsG7dszMjFkIolIy3jrloHnf9s/Z76sVG0cxm2b7Iw340lP9o2fOHDTP8KvX8yWvWP69+XlerPZDMPwCH7ICx+JGrUCUNbEJk9kKyYLMssKJwKpyLTQMog7P9qx4cfXRc39eS3hBio5NG+6v8XYIGPNvi4TV8hvMX6gmLCBMGS0NGVONnXOOIHQSOOaspYD6RZ3ovDa9X1R4UeieS8QUdKoD37j66JYkb2MpYw1GAsZ03dPsKaXarT935xfZax5x6V7ybmGcc0I82TPTZdoxtRJf2uRKu3bDzDWz5gstm1RKNdWxvoWPdwqwcDAQLVaPYLf5j6r1RqsJQEYA4XkhowDSVEtVdx7I60sqsKFJqBWLd/x3HQKUt1MQ5ceXLiuzpi+8ULLEaV3zRQozCR6CjikYIiDLCkdOBdaNLkiJ5M4ijI4Gv6sPxh4/tF49YKov5OiXtq0of/Gn37CWCdjYu8G7px5YPpBxiqM6XqitECFGhrBd85KGDv483vJUu/wQDbpvmTVB7h/c9r1gVnzXv95Z4d+hD+FQMRx/H/o/+he6oMnAC5ULE0ENiEoWxhIeW8c90VZNRGpkFZLEJmloGvtSlsdVi2+B/vFnAVd7Ox4x7Ig9YGKIB/5c6dlrkMdV5Lqtv7qyl29mwaq+4SreffEycbeDI4i/1Q7pCBy2FQOU4q0zQeGLGMBY7D23RTcyMpNirGMMbd4beAyrqBZ3hEz1s1Ya/lbTlIfOSz1Z51+i2ySGXYW2leqInnhu/ePeqUj8veHGQ7B7x5KYyaB1+ql/YM9i3sGZ7Vte2Hd2ve799UQotw0XZhRIoVtEOV1pdE0JW+/+5WRZf0+PrEBUsoxibzcXcm5dYP1Weva5qzccu09j5z7D48/8W5jfRWaUR2gkWTR0fDjIOJI2NeKq2EohkulwUHc0bm/8DJi/huKY15qNP/jn33CWHblzVwnqXPR9qWOsT7GoLzXpTTonDCmR6WyVsq7K5X+ftq+olyYg9nS9rv4hUwRtULv5jtK6bKd1Xumf3DRfS8/ueCdTcP1ErlhIQKVSdCJiiJed5UoaGlVHyRRy3p2JpvaIM4UkGzWeZRFIY+aSRpn2hqJNlZQASppd8+M977+/Rfve7M/tFanfRLt0fDXqqCD7XL7O9UHHguvusGcfzf/s/Hq3/kNsvH2a96IUCf3eaczxBgIrgjEjCkjjKWXXMbzNG/4swm+pzN5a7qaMIEuv7ty+X36f176CWM7GTOVzt+Nf8HEWkSRhj5pb3l23XH/9TcnfmfxuLfllv3N7npaCVQUqLihk5KOSr4/3IR9sdgYx6WBct+BoY/Kze099ff7Gu/0DC3aXnt97e5Fa7fs3LNX8BBdiK5eTayypjvPT/juvK+f/1JFO6BqzRxV/4eShN94eQ9je9ifDP/Ft+Gmfzz4w1+khfyDbe8O5VDPDS57Pyn8It+6k0wU/vVZGWPi+amhcy4DvXdb9ZobA8YSxupnXTxwy6+yH1zuCgMR+zYWhDYc0X8RR+AgQmwbiO+csfLCXyw/8+p3//sN2y+5d+6dz33w1Jt7Zry57+WFvbPf7n3p7e4X3z7w8KzBJ2aXr5/Teddv9940cfVVD679wfh5Z/9s3pk/eeTap16fum7H+lJ9GLVsCWiFxpUIrE7KfehOvXjN1//m1W6ea1urOXc0+YvXX0PGmozZtp2oKwc+rquRal7kGrWOFRkYYwhDHjCmGWvc+rwd3lNjjDNmt20NnSMdD00aX2Osfs7VuHU5RP2KNHZtqI5G610bflf+usglokxKxBBxiNO6XfWVW4O7lvdMeG3bddPX3/zSxp/M2HTDtNXXzlg1fu6Gu55bcseLy5+a1377qvYX2xvvfVBfMqzXhdQkjBzFiAmiHs3GDZlUkqxbPvRhBU86551Tzp93gOdAaZlItVJURbrY3FMv2NTk9RcIqePm65AxumNyBcnVKQPX0AOfFAiHtr3lQp7XMSXMJvydY6x10s+CJbMDxlqnnI6SN3NAW+s7848lY/G7q9M8E4F0GmX3DslYzlhP2eMn+n3812jqOprAAIDOKOK8alTqrPLJB9cU8pGaspByiBIlMuODJh9Ra6M594QZhloGQhXJSUE5WGuyPSUJt82qnjZu8ROL+2MiqziiTvOoSJqM5e3djNUZczOnG4Nbb7iij7GD5/1IxnVjVRZFeuW8g4xVGevZ+Qa0wrxsGiBowcJKsSj6suNHGBOzX9U87R3J9MH6x4x1MVad9aLlCaSS6gF/4zemCDFkz9ax4l8RiHuXLtgFdTkSog7yemJqlEiH3lbSIjf1p9sSiQPFQENJFiswqMFJoAwxA5mAzHor/PmlB0679Lk7pm4MfbzDCbkQOo4jqti0llBtT1zk1yMvzBoGan/k3hHGgLFdb95qdi8T/zCp44//U1o8oNcuEK0sr5sUbd6+U7M/Gim8OrD/oLq2uciEOQx8HHz819cfLP49nj8l3LiY33PnyuL1XYy5/R+NFf83frzka1c+/3S7WF3P+kLVCHQ5lD2JqDWHa2m9mkTlSPQEcltJrO3lK7v5E4s6567dv3s4FgDayszq0LieKJu2bOCMSx54dsmBEBEhRNuPGHPnFFLe5xeKSnsOFrSqXjA/dYQiFOzUjLFW4QUMOw7uf6hnyj2WscaKheWWRIVOo4sbfZdclTC2j7HqHROtjSnx9NmOj5PW6/M0O7lehH2fMNbGGC17Jrv+0tXsj/Ktu8eK/6LbNp81fvUJF84/+YK3vvfTzT+etG38o2tveHr5NU/3XP1s/7inus/91a5vTVh/8hXvnHjJ2ydc+vaJF73wzSsfe2ZBW1lTU7ohA+t7zF3PrZn41OJh5yrORREHaGCw14JMnF8A4CBaQm5d6s2VsYHOFYq0Asqrcdixorxkxsiipa19g5GUNJi49W1A0XBuo1jnTUuka/s+oi3rYG8biJrToBsgkPwZZIvbnVsbnW9tfu4JfG2Nq4eJa9Y6trTah4U9dB55xP+PrseoV/QS+vQaTNz7Pfzn/7T94gc3nHPTitPPfe20v3v1jL9fdOb4Nadf994pVy08ddzcU6957ew7l107rePOhZUZG7LuPK8hNBJuyR4o19/a0LG1goQSySrEVPowW0pRj2KBCDGIPNPB7qErLm4xFv7rE5v/qz+hZuTQCZBEPS0NlvIQyUKIGLQiS1ogps55rQE75OrhSFxtpYlTnjWR5NkOTU2iLqxTQv3o2p0nZqAWkj+Yt5UoGav8naCgHGpE4TBCu4/DqtC9sMeu21ne2tPsDVSkPPHirb0VQivg5OkayBooh9GV0dVRNSLeQKySqhNq7x3JRRYlotC2lqPKBktnnJcXet5aPLdxMHBNkbQiq1NErCBlAC7UqOJgJAlRuILGkYjSF5ohacvRQpYa0KM8mYvAKRR+W/H0LzYtxVBLas1cCWhi3qi16mPFDxlEHLorzcTIKClnspLmSc07bT9X5jNxlNIoIzOdpVmMmqMIAVNLkaHQuMjmcdEnIE2WE2pNMFiNfX0IqJJxPZvXt7N/X2bH88VzMI+EIepD7RpNaKI1xAHj0EBT5dwfpzQlSCBpyeos1xbRc4eBoWrihMlypXNlgaOzeYwgKENX5xHPE4spGWOksVlIcfUQ/tHdrmCpjGfFPd+GRSsMwEK5JVfUKmfeNfm5zeXtkRmo6Ho9DhrDcariSAWhrqV6MJL7wmxzb7q6vVmN0ia3gij1WSn6ZIAoQhwk8jqHmniNQBAYBKNF3OpGBJm//44Y2FQaiUihHsQGkUv8JlFQ2JS2RGMkVZlnYslSwzlthUuFzGWQe+aXLCVOu0wGLVEeSYORVOQyD3TDOVFYOljtjC/SKocu0s7xQ+bOrLVaa6WUhhKmsQ0plRCBFeSPH5ykhqMH57addPG0E857869u3X7upI4rnvzoZzM3Pjx/+0PzO+5/o/PWmR2XPrL52z9Zfvwl/3Tc37x0+eQ3Xt04XAPngx8d+zzQSh1GnsOSyinwoUzB24vMn4ofFsDvdA594Of8Fzs8ayn3YZ9FUjaNdF+g9idJSWpLqHcNBJPnbvv2+EWnXrD4tGs2nXrt+hO+P/+Uv11+yjnvnfr91adeuP4vL9t8+tU7z7x+95k3d13565XTVpXbI/KjGVEYQgwmbEaR9foFNs7Qk1beyRo8xEMe/ozDnc8Z+KfyPzxN2uLdcdwVpx+F6ezNu6auWrVkV9f2wQRE1Trh/XCUL98dzFzTO/HlNX//y9k/+OU7F/xiycW/XHz1lKV3z9wwbeW+d/ckH9VJ86b1hVExUAS6KXSWOF8+IoiaSRJEkVY6jiJAY3Od+uqx338d/rDPtXNE/gMmXryt69rJr1507ytTN/ftymnQYdNg6FxI3oYlQUYQkQfTIFdzvjXARd5DaX8M5TLI06gI+rSn6HWieaizMLehowioqfWvn5kqPT2NSRbZXDWi0ucK75iDs1Hjl1Ke/atdx3/3pR/euWzLsAm1VFhR2TDwwBe2IhBlJOogmhpsRDQMdOiYzZ9eggDgxiRKBUoopaTKrBKGhMKMWx4q3pTpjsHk6dffnr5wad26iICDLJbsSz4YZkopIUSWZSeet+CMS9aedvaS0y+d/5MXd87dnq4r6a5E7avrCtcJ16mKMtXMdC1TgZDNTEWZSYQRQutY2UCaRqaqXNUyU0rN/obe3J8s2jb45MK226YuverBVx+cvmRjT1ImNwBQkbKSJomMwHzqiI8pqc/nAWaM0cX1/r7ys0t7b3x833cmfHjCxfP/yxVzTr5s9p//1W++edG8b1017/zbl//0mR2TXu2Y/PLmh17Z8Js32345Z8cDczseer3rgdc67pmx+cZHl11815xzbn7h5B+vPOmaZd+4ctGZNy0c98i6KcuGVg3lXY72qrxb2y1NuaBt771PT6umMohC/LLrwrz9j66szFNDnpSXDhp5sjOorO6pre/FV9/d/+wb7fdO+/CWJz+8bkr7VVM6L3uo88Jf7R730LZxD265/KGN1z628dbnt06au+fZpcMvramv7OzcWi73cVUBDA2kUsWCB0H1vV36wZnrL5ww5ZE5y5pEw6EAQsu/5Lqofxb/H64oKNZDW8NFFqVJvWmboQ1TEwkTSxWJonHFTZqqNFFpopNQJk0VNVRY10FTDTTT0t5qdUVn+dllPTdN3fbd21edeeXbV9w7ddaStuGmj2pAasVTICzOcj8fzR7bqP8v/JkUUZZOWrv9/pWbb1+ybsK85TfMWXLdrEVXz1pwzcsLJ8788M4ZG38+bd2EZ1fc8NjSqx5ZNO7BN3/4wBv/7fyOsy5t+x8/2nDB/WtunbHh+TW7VvQN7eRBj8obzkm/6xfn2AhAGGbZ2L7z83rq9+NHRANWapUqkfmjHPT5FlGksc5VKUqHgnhbP24doO3DblvZ7ai5HU23I/Btr3MH0A2iDa0xWnpKWWcg0sRzJL4o1qbCFxL6/zGCgfqy/f+Rhf1U/0eTXwNWWyOs1nHTpiGqGG2GINBw3xchqYh0TCZB9CSP53moaJAgpP6nP4uFtAgfmkRcpkU9gvFlKkVVjy2KE458wJfR+7/kDz7z98f3hX4a57N26dFgaig1lIHPW70a+5NN38D6wpzRfUQZHRqfpYeEka+F8jnPaMM8QxKeEy1KSRF86Gvcl1wX/r8BOZpXh3DgphoAAAAASUVORK5CYII=;" parent="1" vertex="1">
          <mxGeometry x="374.90999999999997" y="456.5" width="60.71" height="40" as="geometry" />
        </mxCell>
        <mxCell id="CGWt4wzMSBsF5mTkpCt7-21" value="" style="shape=image;verticalLabelPosition=bottom;labelBackgroundColor=#ffffff;verticalAlign=top;aspect=fixed;imageAspect=0;image=data:image/png,iVBORw0KGgoAAAANSUhEUgAAADAAAABOCAIAAADpSAJhAAANqElEQVRoBe2aa1AT1x7A86Ez2rH1OrdfOuPcue1taxJSCCBavRa8FqYByqNVfFBQhKoUrRa0rdbxgUXU2gtUUaoWlat9WLW2FskmkPAIhMgrCAEhL/LYJCQkBPL+2Dubs9lsNhuIaO/1Q8+cyZyzezj72//r/M9ZKL/7iufpKBQfz+9PB4/nT6DZFPHUS2hycpLP59fW1l4KLFevXtVqtR6Px+VySSSS60Glvr7eYrGA9+/v7w+6j1zo7e2dTUBBNmQwGAoLC+fPn08JLEuWLGlsbHQ6nXa7/esz5wNvIr3Y2NixsTHwvOrq6uABFAqlrq5uLkAlJSULFy6kUCjz5s37q6/ExcXx+XxSoOeff/7ZZ5+dAWj+/PkLFiyYN2/e4wItXbq00ldqa2tlMpnL5XI4nD/8eGPRokWYDDIyMvLz8z8uLtHpdEAAN27ceOGFF7ABK1euLCgoyMnZwuPxHktC2dnZwX/vdruVSmVJScnixYvBI9/PzhKJ7mth2G63g/EwDJeXlz/33HNgAIvF4nK5CuWY1WoNnpBwhehlBoMBUxkpkMfjcTqdMpmstLT0xRdfpFAoixb9payszGQy4ac2Go1lZWWAaeHChfn5+cAn8GNI2zMBJSQk8H1FJBJhTmS1WiUSSVdXV2Fh4YIFC7xMi7744gtsgNFoVKvVw8PDO3fuBEJ65plncnNzw2EiASouLgZGjRkBhULBvMxms5WXl+NvgfYMRo0NnqNR7969G7w3NhGFQqHRlzQ1/T/c3mKxXLp0KSsrKy2wFBVtF4v7vF7muHXrzttBpaioCIZhYBY3b94Muo9cgCCI1G7wF4kq83g8ZrMZJis2m83j8bjdbpPJpAgqGo0G8zKDwRB0H7mAGRmegNAmASKM+B93/wSaTeB+CX12WRJQa71d8Eu49cS7tZLj14bFsgmX2+0HoqVyaKkcagoEGjSWtwF+vbfQ64/epqYhM89UWdCKfN4vXVqby4UDSufSnlxFINK5AAW0Z5o8mfNWcbtg2OQIkNCTo0FRwp+QBaXtF0nGkPxu7hICbx+xt4dxqH9u9eWPBajYWFDGAdFD9eQTAGIcGYg5NxZ9fi71b4c6EcNK59KeCBAyUSqHcWQg+vxYTI1qDhUAUdM41DTOhi/71Mbpx5IQMJTHBAI09AxOQZVYa5x6XKDHlBDjIKIyahqHmdV46rLYOIHkkwFGjfCmQLREdpiVvobNOPwg+vwYs0oeZg3QbCEPBdrQWHlDYp5GMmAiUGwef1u5aE9F156Krh1VfaABfosq+nZUBdRd/+7Zf0d9iGs8yDaEU/c36JOuaDAmao4PaFNj9d0Rq9NFBKKlc98ruy+XaS06g0VnMBnGQQP8TujGTYaAataNm612y7QrzApbnJl1KBCzUkbLbgYSWpbH/46nIAdKL+0ekOrDLPgcaLZFE7k/YrZhQFF4oHz+LwIVmIGosnf2tz94MBYmkF6vdzgc4aCAMe1DcPIVNVAZCuRdXv65U8AXj5MA0VI5iSVtwh7FHwT060MzZkBRlTL6xmbg9m9+1N4qNpIDJexqFXQrxg3hIj2ShPBAS04M0NbzAFDCXqFIgm7riCqLy+Wd+/4Bt32ULZCGU1XGKbfbTdCaxWIxBxanddJsNl/vsWASeulI95KsRhDu1xzoFMsmSCRETePQ07lRG5uic3nRm/nRefyY93lIOw9po93N/JisxthNvKyjnXUN0nGL3e12u1wuI67o9Xq1r8BK+ahkkCtUfFoPr8H5PAL0HpLw0DM4H3/VPaYzkwAFZDDeGArcEgiWlsqhxzdErG7I/bz95xb5iFylVKlt3v282+222Wx4Nau8RSZX/dahzL6mWH5hLC5wvVv2WSs9E6KlcyPSuQequtX6EEBoPuBLZQAKPY3zeiZ37T7B8Sv9Qsm402y0msa1Wq1KpcK2Pna7fdxgMOj1MKxTavR9o6qaVh3mU5imsEbcPj/Q4Uv9Ew4kKpIERj9QKoeWzKEnc+IKmt892HnxlqR/WOdwOvGSIMSh6WmbTGVoFGu/bB7H4g1GQGjQt3eA3CMik3v8+sCk0xkaKJWDJNQsKHlfZ1FNX1MXLNWard6FxuPx4PWCATlc7gGD/WK3ec8dTWadiqAdAkpMjSq6Wkn/oB2ktoxMbvXtYUBDIiGw9q47KDp+U9o9MmE0EU908ECw90yoe8x2/r55yy+6Fd+qVtWql19UJV5F0qO4C6qEy0gYjK9Vv31FHYuzIWaVnJ6PpouvZ3LrGqTkQCArzTvW2denMhpNpAUPBCL1oGm6D7YL1DaB2tattXdqbKDboUG64KJYb69XTGGiCgBa23S7TR0SiJoCbS7r7B9SER4cqutwOJxBcQibHd/QTDsCgLYIgMoi1/OauvXYSGJgpLGg9cd6ugY1oQgI18OP1HzFJAb0jzLxq5saARBzE79XikZFEhtCbLm4rbVbrtPpCM8m7YYPxJVORp9TAiYMiJrGic7hyzX+48AACSE+z4Le3M67J3gIwzApAeFi+EA/9lgiT48AIFppN3U9uo1kftCiNqIn7mQSSuWsyuf9zHsoVWhlSnjWapqymR2u4IrZBNaoFOowoKjPRLQMNvAh5o7WcTsahMiBGJnczUeFB6q6w6mlbO2xFmNwxT8DMBXe1TCrFUBCEXu6aMlIek9LgrIOCO0uNEyTAIG1IiKdy8jghFNjygbfuKBaftFfl52Vr7umVk8TE7eCWzBm1AgQWCuToMKjnZgUSYD8S0cSRAMVnIp4Dw/8d32LHeMoyUZx3XVN+EC7K+7PBAT0+nZR64cnhTtPo3XXaWHBofaotaij+rFC7Fx3sRX4ZyBn7W73Sm/UjqlRMc8qInZ0Ap+PWNVw6och/GCilyHjWFDxefGIHPalNGo9DLcIpSs389GtuE88pBvF6Grl2Xa/G4OHGWzOFbVoNs08q6AXCjGg/3DRb0hgJBEIefskaGdF77BMi3m4yWAQP1DH72hFtpEYTYi9PfOs4kwbEWjUbFv2DRqEGJWj1K1t6FK/qqFBhB4mhwZKZG8u6xoYCQjWAzI4vqQ9HAnF1KiuCg14LXg8nm7NdOzXo8CoXzs9+GpOEwbUO+JfN0IYdSI7pbilWxKwnI3I4dWfdNDXsJGJwBlKCAnF1KhuiP1LASBrGrXGVqJAK04MMjf6gYZk6EetkBKipkBrtvK7+gN2Z2q1prZBumFfG6L7RDb9Xw20ZIQMPf04NxZ5eoRZJU+6oin4VSE2IQcr+AINTWJACScG4zY0YhLSTKEftcB4EhuipkAJebz7YiVmQ1hjcFQrHtKc+7F/6xFBfEEzgwVFHh1YflEVf0VTck9/d9AyYJqe9m7R8TQej6dCpGFWoOsG41A/GoRSkT2FzhYQsUiAwKv/JpxpRz2mgXsewj/xpGVcuEM1ZbA5saSYgAK6R3jG6EoZsCE/UBK0YW8LYTwJEKKUVM7NZhkmmFCNCYPeFd5W+gjPuNSXMTIO9aPbmET2tlPC2YEQx05kn7szajWNh0IB10EKS5gxuGt1uj6sN4AUNvrcWMR+MQhC9PiG49cDomIIL/MmIdkHhXX1Q2yBVKaETeMGU4jd9Qzph9PtVlkcwrGpbzon3vKdwkRXKyP29WJAlxuIMZ1EZWC7SM9A9mKvZze9uav1k4quWy0KuUpnnxh3ThjxYiMFMtict8WWz5tVOT/B8Vc0b1zyZ/gI0N4exEzTufT4huscJUGi5EBYOEaUnQLRV7MjViF+vvbzlh+4SsmoP4jjgRQT9tsPLHvu6pddUEWeHon6Soot71iDXjny8nY+BtTYGxAVQ6sMvz5g7VQOfTUSgRjp3E0HO0/eGLndIm9XWviaqZpu0/s/y1dfUkZ9JWVWo0sEBoFvYECI1lhQc19AVHxEIC8ZKrM1bBoListuSq4eja1RgXNP/INDtVEg37eY/ofI/5Pgyywqw3QX3ABkjCPIKWyoxxOuR52Rv3K099WcJkQ8yZzojU0Pcek9wJo7EIKILR2+GEMgAF3mWcUrx8X0XSL6VsFr671nQl5HTt7eHJzH/YFAEaeHX/q0nZrPp21upa5FVlNqCgQcHnkZFvROScuMQEmBuQ5myzM0giTErJK/dLhr8X4B/d0mWqY3w/TmziA0o78pSHJMj2/YdqLTFbTr9Uto4ydtjHQugwXRcVMEm07AlVRO5MnhmGpFZPkwtbT/7x9Ar2XUA1ViKQoeJYIFMZIgRjo3q1T07V1ZzyDRogO8TD/teCA1XOPKt5zqTfiofekmXpT3zBY/YwCNV3Ivb+dH591DFAF2ET5xYn8VkcmNym5aua31rWLh4fPiux2wRGuZIssIiEaN9z2F3nq7XV11fWjd8a41ezuW5/EZIb5X+r/R+gYAspiNTXEF/KT9oqIzfRfqZZ1DRqPNvxvEP4vQ9quMcAN04XFL74jprlBz9PvhnC/FaQc6VuTykOOsJOQTMd5CaUnQknfuReZCGQdFRTUD39wcbOjUiuVmndnucBGPaUmfBS7OAgQGOdxu46RDClsFI8bv2COH6oY3HeuKyWlCUkdvhEzc3lxwsuvUT0Pftcl75BNa4/TEJPLxaw4lLCBsXidy2uqcnHaqTTbBsP5yg7Ty5uhvQkU/bDFZbNN2p8PpCj62xv48nMajAYUz42OOeeqA/gs2pATvvxInVAAAAABJRU5ErkJggg==;" parent="1" vertex="1">
          <mxGeometry x="381.35" y="268.5" width="43.2" height="70.21" as="geometry" />
        </mxCell>
        <mxCell id="CGWt4wzMSBsF5mTkpCt7-22" value="" style="shape=image;verticalLabelPosition=bottom;labelBackgroundColor=#ffffff;verticalAlign=top;aspect=fixed;imageAspect=0;image=data:image/png,iVBORw0KGgoAAAANSUhEUgAAAF4AAABfCAIAAADu7OecAAAOWUlEQVR4Ae3c+1dS6RoH8PlHuJiVAmqSrS5OU6ea1Zk1TVfNmNKMxNKiHCwrp9HMqWbqdDtpdhmbapqmRksZyWsoJmpiXhAFUgFNTRNBMS6v9tNZ29e2hCCbvaWko+tdrpeNCvvT93nevWHHF2D2y4HAFw62z24GszQOQzBLM0vjUMDhHZ9JanSmEWUvUPaCbr3F4b66eMfnQPO3pC/qL9X226qQXLDr6bvzEoSJ+JfH0/zyRLXwtISeIELGTy8WZYIVdy2sPEAcyINpDCZzQo46MKlqzg8lPrwiOJhn2xfdsCy6YQm+jQDFlr+r7cJZYp5K0z9kjH+s8j5W6Z1Qjrr48IrmJ1ZCmoXXEaBFmWDjYwsEMpjMLlWZR9Ko+4Z2/9lG/6nKK17knVA+91ApquOdUA5p0O+I0RjQHtE7kQZgB/I8GmWPftP1hvmJSF7gmB8/UVCTadAQMW+AddkAO5CH0dRpdOt/a0RR4ASNjA+vyBHNohuWhdeRwbwJQnIATzxarBrRm0amKDFPohG/HFibVk+KQ4rIemCkQeMDgTZkg4Pid1MAeQxNcVP/qkt1pAOlsL/YpfHiCrwTypkZYw14bJ1CO47NBE3QhmxwoAxkK0eGJzVpz6DJrX+z/FytXRcKT4SmhhLL904oD8RA80GCMizL/hrliUdfD36wzHsAzd2KzqU/15AOlJLiRBSe7SDF2aFhZliwj8AMi386YN4E+8vfWXefGU0zbDJffqphJlWQuEJSnMjuIO8vpcYJYXDQ1ARmWHAM5k0gaJ1ozDOXZthkTs7T0I+Lp3AhxYnI+4SoDkGawAzLIeGMpxk2mX/gq+YdFcM6spsXuBGhGdPx4RURpwl7MLGaz8TUaA3GPX/J5xyucOoynpoxnWmh2XJnBtO09Q6G/d5E4YmwuFjTeHEFxFMzc2mkXXpWZiMsEPL+UkwDFtQ+ISWWT47+h8oT4WjA6K/MUBqJSrfpWgM5pmS8fbzfZ6w3o/8hcQSkOPw0jHQwE2lECu26/9bjd9knRFzGaBjpAE2BSxNa2igemmGTuW/IMjjl+dhEB3NxVtik/fpCLREXshUNLW2UkQ5wDDw0td0gIX9gd1YvL19XKBt0cced/HhWddeqUxKCLjY0tLRRfMO11BTKBjdmvmYcUfnyWhlHVGsuajIqdANDRid7jO3um89eLTlRSYnG21+s+hFaULS0UfolgG+4QPOoVr/mooYWp/TltcJBi1MGJbVHZ79W9w1h232HP3Ve+CrguJh4Xsj7hJQ9JSSOgBzB90uuQWguWvANrDS3qge/Ot1u7YLq+PJad2SqcRfXsMl8srjD5+j0uCA00cVkTsHOGw1pz3qRvLiPZthkzqjQLU7V0A4o0LzYTOj75PiKa2DIGJ/z0vvQs2nJC4yM10HhkUdyWddgYw9+F/pFi/PUXBENBCXZyYuNDiwuXl6/ut9h1djc0dVv4DxUeHGF0+VC3V28JKXqQllH38BbAICkcwR3ZJzTNGqGF/3YNrmObFzgTVqcknG4Pfxur7ht2EZh8k1Ftz78bhM59um0uFD2lFD2lOzMbMqt7zWax1+Fci/N7TItPVZuF8LuRlqckhanDLnZ9aBuaMjxWz3y7qFdt5sQFNzHu1brETmmhHpQGH1PVt+ht/43cC9NWolrNGh8gk93nCjVd74xWD9XOK/v0O+4KaVEFyP9EuoQ+E6NKglKrkwpaJ/8WO6lqVQN0w4oMBaUdY6Q4jqm3vtHh0SDlD36JVZot15toLKLIA3B71R20YaL9fere96+LyL0gdzea96aLXF5/X4JKhw6vrxW+j45LC741PPqXq87W0Vh55M5BWROAREXKruIvE8YfUdW3TpgzWE9d29qAAD9BpBUPIBbhxanDD7dcUmsv1/ds/ynUgord/xQlSPArUNlFy09Ij76RDW5iD4qDQBAbzCdKNUvTlHB4oK9Fvt3OlcR+KNmcaqMsoNPDssiRfKJ6FDZRev+U5tV2WW3iD42DQBgyAz+qNYHn1LTY+V0rgLfmBdT4xVRgAQnko8CYS8uWETs36RihdaawNHc7QVl/cAP6obWnFUz9rTgo6FzFT77GuaxKyisXBgfSoQAGjkFgkUUz29r68F6vibpHPE7Z8Z91Of8aNiaBgCQLx1cc0blx8EZHGg6j11BDkd0qCw+lcWnsPNhiTnqPtTIgm/O1WVVdukNJpvnM8VNSedIwOmPSAN1vrvQSSQ7dK4CFhfUmbM9nxIhgECTdajsIvaNhjKFw5XIkc4noAEAlCkN266riPQdWFyw9VC2PaKy+BAIeT3h/dJOZRcxDj6NfyjHXkTWTJ+GBjmgUulCbqiRAiHQmH1jGubuEpG+z4bx8WIJ0O5DjSxYkiS+wFfifqnsk9EAAKRd+rBbGhpXTkSHzlXM2VtB3SFAWw+VxSdx8rdcepFV3WWdAlfnn5IGAKDo1m+/9wrRwbuiw1/0jWmg7hBQWLmUsGx6dGH471Jp1wfniq66wBOFj92GbZ4lcqFhVi/B4NC5CqS4dop89xdd4Cu7+u2cl9o8rtObRFNza+ISG/zved+reD0vopy4Dj22JTBJ9rx1GlyIpybkJmGaP2v6vjwkpIRlz90pmgYdriL0kuZR3SD6ipTTdDj6AYKpIURjNFvOlXcEJIgpYdnI4f+2v5GKiG0k2HcYnOZlKe2/CLXdOkd7jWn7J6MZfGs681RNiS72YgmQI1pWLtSZE1FEXIcei5yLHM4aIFJcn4amWzucUtBOZRd5sQRwTOiE3p8eHa7Cfzeh4voENJo+A+++zNrlA52wbNKYjg9HQvCAkM5VMKJkwUntZ0QDOIoL0vidM+MbLvca9ZvhYw9eomGxmcCyomzNIoXep2znIzqxLUhvxj1iWhhRMhpXfuLJgLzTtZUL0iz42YxnpJhCr7myQr3sHeLdb50f9tRGxPqmtQ41LGc+5zmiE0NoMKJkjChZTGZnRYsB+8o1TnPSvMD1wTxu3JqOmaaxQxd7Vzm1CzSy1iFvy/bhSBicZoI69JgWP7Zs3Sl1erVuwPnbXMgSBmkCTuOhWXDSjJVGrNSGX27A4jJZhxqW47Ozih7bQhyIESXzjVOcK9FhKa6JgnI9NVhpSqVvvj1ZPXfzE+vCcTqH2SFveUgKe7jubOX2P3qYsTLiOvSYFv9IecxvXU6Li0hBYaIplb5ZdaRy7vo8pxZ2fiCUHxCbvy1d0typ05tGUh52LuC1MjjNxEdAhPy71I5btYP9+g/e57I+FnQvzau+4dWHxK7mBRp5bxGsSCjPKFBrDePXJg2bzEkF+qBDL/0jm/0iZQRHQITc/3D7aUG3us/+tU9Eaa5O2YYfizt81o4f1NkJxfvjPTt3ff9kfaqksKbT+p8Rzs+XaJckqP23NxGkQX89/l5vVaudlYsgjZPF+3KufP76fDt77hjFe4vAl1Ow7XpDc6fDU6C0Ct3KI60BYdOjExAh33hRc6t20GblIkjjZIXKkXS7ROO9OW/xwfKfHzSjRTQ5NXBLdrV+9eHWacyO/+H2cyU66+JyL43WYNx0pnbutkIswfHeIvg26fndCjtFZBco74XuuzPt09J3YHEFRMjj73bXvr+6R9I5ghwH41q5Ma1Qyh79N2cavL6fauX2DhX47CpYnyqpUTksIrs6NS8NX6dqplNnm3THfzVC6YDBaJZ0jgQmm9xIAwBQ9w2tPSuhhtvX8Q4VMGPLjt5p7Md1lWzNS8PaMyq0p07DhFW37EDDLXFffpORedzoXhqo8+2VOp9dBd6htgvWV0crr5dq7IYC48ZG9cC/z7f5sWX+4dPQmBmRUr/NNfTva3Zf0+B2wVRQ6O71DxkP325YsFvoHZLnHSqARbT2THUZtjfn0b9jd6Ls0a+72jEtXZkRXu8XWusbVu7HqvtINAAgnzRwMbft6yPipbxna45XHb3TSPxialSqW2/ZdL2DvqeZUHYipH6sunEatuzj0cDdaFQP5NT2NKpdfhMaVXA0MZjMm293B8YocOsgkQmRQBpGpJQQzdRHw472wa3bebm6JQfw6rDq/DbXjNOE1xOhcXI07FaCKf54RqE2OF7pcnbYMr/QWjh8Q0QMYjROjoanePbuvutehW55gjKA5cqaZUVD21j22dIAAB7V6FbzXMnO/w8NcplTzcDyo67ovC+ozzw1sGYrFUMrEhVYTyamiSYw2bR1Bq5Qk7vYi3btypMqTDpjNIzQ5wRTw0w0Rvw58UTwXykx8TfcNmvp0q051QFPJhytXMj2MRpaaAVKg+MMMzDZxDxuvFo/iu7NjKYBALzSW1adV/mHywK2Sv3DmyaPgK3S8cV7cw1Kw0w0BiabXBrMROPSdMsrqw+DnOk0yP8K0L9dfe1VYJQ8YKvU7rBLw0w0YhkLjxkXHjMyj5u+TDc9lk98DAkAHvKhugaTee9DbeDelgWb7ehAGsamKpgapDSwuySbvrpsXv03KFF94OIxNLD+j+W8WRwpn6wz3ms2lkEapy4wKUGpxpVXzCF5CIrdD+vzgIJC+yIA4BK/fylHYaODnQaiLEoxrbxiPvrE8rxz4q0V60eBcw+jAQBkluqW7/9AB6EJkdCmTA1EWZhs+tdV5yieSgMPl1f8oESzg9CMLU92C2o8KakIynYBaOm17SmT8+LBNAAAkWxw2R55QFiT/9YGRzTI0pNoXJRsCr5g5gosTT1YUTybBuosTWjz3yRBXsd6nxo/djMzcWw9TjQGpZq+vGLCgeLxNMjVNC+1yw7J/cJq/TdIaBtFtC0VQQnIyh2Ualp2zfxj+UiHbqpG66iUPgcaAEBrjz74V9XSWCWT0xDEbVv8q5k4ymdCg/xHSKM5v3UkvVCbXqh90EwoKdY58rzF2/rZu3U+S+OQd5ZmlsahgMM7/gdDFDU/AxXulgAAAABJRU5ErkJggg==;" parent="1" vertex="1">
          <mxGeometry x="380.53" y="206.5" width="49.47" height="50" as="geometry" />
        </mxCell>
        <mxCell id="CGWt4wzMSBsF5mTkpCt7-23" value="Tecnologias" style="text;html=1;strokeColor=none;fillColor=none;align=center;verticalAlign=middle;whiteSpace=wrap;rounded=0;" parent="1" vertex="1">
          <mxGeometry x="394" y="180" width="40" height="20" as="geometry" />
        </mxCell>
        <mxCell id="CGWt4wzMSBsF5mTkpCt7-24" value="" style="line;strokeWidth=2;direction=south;html=1;" parent="1" vertex="1">
          <mxGeometry x="470" y="160" width="10" height="400" as="geometry" />
        </mxCell>
        <mxCell id="CGWt4wzMSBsF5mTkpCt7-26" value="" style="verticalLabelPosition=bottom;aspect=fixed;html=1;verticalAlign=top;strokeColor=none;align=center;outlineConnect=0;shape=mxgraph.citrix.web_server;fontColor=#CC0000;" parent="1" vertex="1">
          <mxGeometry x="587.75" y="184.42" width="93.5" height="110" as="geometry" />
        </mxCell>
        <mxCell id="CGWt4wzMSBsF5mTkpCt7-27" value="" style="verticalLabelPosition=bottom;aspect=fixed;html=1;verticalAlign=top;strokeColor=none;align=center;outlineConnect=0;shape=mxgraph.citrix.process;fontColor=#CC0000;" parent="1" vertex="1">
          <mxGeometry x="600" y="320" width="52" height="62" as="geometry" />
        </mxCell>
        <mxCell id="CGWt4wzMSBsF5mTkpCt7-28" value="" style="image;html=1;image=img/lib/clip_art/general/Earth_globe_128x128.png;fontColor=#CC0000;" parent="1" vertex="1">
          <mxGeometry x="435.62" y="320" width="80" height="80" as="geometry" />
        </mxCell>
        <mxCell id="CGWt4wzMSBsF5mTkpCt7-25" value="&lt;font style=&quot;font-size: 14px&quot;&gt;Internet&lt;/font&gt;" style="text;html=1;strokeColor=none;fillColor=none;align=center;verticalAlign=middle;whiteSpace=wrap;rounded=0;fontColor=#E6E6E6;fontStyle=1;strokeWidth=2;" parent="1" vertex="1">
          <mxGeometry x="455" y="339.76" width="40" height="20" as="geometry" />
        </mxCell>
        <mxCell id="CGWt4wzMSBsF5mTkpCt7-29" value="Entidad 2" style="html=1;outlineConnect=0;whiteSpace=wrap;shape=mxgraph.archimate3.node;fontColor=#CC0000;strokeWidth=2;rotation=30;fillColor=#CCE5FF;" parent="1" vertex="1">
          <mxGeometry x="680" y="437.42" width="110" height="73.5" as="geometry" />
        </mxCell>
        <mxCell id="CGWt4wzMSBsF5mTkpCt7-30" value="Entidad 1" style="html=1;outlineConnect=0;whiteSpace=wrap;shape=mxgraph.archimate3.node;fontColor=#CC0000;strokeWidth=2;rotation=30;fillColor=#CCE5FF;" parent="1" vertex="1">
          <mxGeometry x="542" y="437.42" width="110" height="73.5" as="geometry" />
        </mxCell>
        <mxCell id="CGWt4wzMSBsF5mTkpCt7-32" value="&lt;font style=&quot;font-size: 24px&quot; color=&quot;#ff8000&quot;&gt;Web Services&lt;/font&gt;" style="text;html=1;strokeColor=none;fillColor=none;align=center;verticalAlign=middle;whiteSpace=wrap;rounded=0;fontColor=#E6E6E6;fontStyle=1;strokeWidth=2;" parent="1" vertex="1">
          <mxGeometry x="556" y="400" width="198" height="20" as="geometry" />
        </mxCell>
        <mxCell id="CGWt4wzMSBsF5mTkpCt7-34" value="" style="endArrow=classic;startArrow=classic;html=1;fontColor=#CC0000;strokeWidth=2;strokeColor=#66B2FF;" parent="1" edge="1">
          <mxGeometry width="50" height="50" relative="1" as="geometry">
            <mxPoint x="570" y="388.76" as="sourcePoint" />
            <mxPoint x="570" y="320" as="targetPoint" />
          </mxGeometry>
        </mxCell>
        <mxCell id="CGWt4wzMSBsF5mTkpCt7-37" value="" style="endArrow=classic;startArrow=classic;html=1;fontColor=#CC0000;strokeWidth=2;strokeColor=#66B2FF;" parent="1" edge="1">
          <mxGeometry width="50" height="50" relative="1" as="geometry">
            <mxPoint x="690" y="388.76" as="sourcePoint" />
            <mxPoint x="690" y="320" as="targetPoint" />
          </mxGeometry>
        </mxCell>
        <mxCell id="CGWt4wzMSBsF5mTkpCt7-38" value="&lt;font color=&quot;#000000&quot;&gt;&lt;b&gt;SOAP&lt;/b&gt;&lt;/font&gt;" style="text;html=1;strokeColor=none;fillColor=none;align=center;verticalAlign=middle;whiteSpace=wrap;rounded=0;fontColor=#CC0000;" parent="1" vertex="1">
          <mxGeometry x="547.75" y="300" width="40" height="20" as="geometry" />
        </mxCell>
        <mxCell id="CGWt4wzMSBsF5mTkpCt7-39" value="&lt;font color=&quot;#000000&quot;&gt;&lt;b&gt;REST&lt;/b&gt;&lt;/font&gt;" style="text;html=1;strokeColor=none;fillColor=none;align=center;verticalAlign=middle;whiteSpace=wrap;rounded=0;fontColor=#CC0000;" parent="1" vertex="1">
          <mxGeometry x="670" y="300" width="40" height="20" as="geometry" />
        </mxCell>
        <mxCell id="CGWt4wzMSBsF5mTkpCt7-40" value="&lt;span&gt;&lt;b&gt;&lt;font style=&quot;font-size: 13px&quot;&gt;&lt;font color=&quot;#000000&quot;&gt;Servidor Web&lt;br&gt;Apache&lt;/font&gt;&lt;br&gt;&lt;/font&gt;&lt;/b&gt;&lt;/span&gt;" style="text;html=1;strokeColor=none;fillColor=none;align=center;verticalAlign=middle;whiteSpace=wrap;rounded=0;fontColor=#CC0000;" parent="1" vertex="1">
          <mxGeometry x="496.13" y="216.5" width="91.62" height="20" as="geometry" />
        </mxCell>
        <mxCell id="CGWt4wzMSBsF5mTkpCt7-42" value="" style="shape=image;verticalLabelPosition=bottom;labelBackgroundColor=#ffffff;verticalAlign=top;aspect=fixed;imageAspect=0;image=data:image/png,iVBORw0KGgoAAAANSUhEUgAAAJMAAAC3CAIAAACZuvtiAAAgAElEQVR4Aey9d3hcV5k/DgR2ISTfBJIlTxbIsizwDexCEvixZIGwCSRxXNRlS5ZsWVYvlqzeZcmyLclWGfVeRzOjMr33XjXq04tGM6q2XFVH2r/299x54UbYjhOM8Reeh/OcZ3zmzp078vnc930/bznnfu5//97+Nmfgc//7v/+791fcvF7vvXv3vF7v7du37927t7W1dfv27a2trZ2dnd3dXa/Xe+vWra2tLY/HMzk52dvb++67737+859/7bXX/P398/PzGxsbaTSaVqudmJjweDxra2t3797d2dnZ8rXNzc3t7e3d3d2dnZ3t7e3NzU245ravbW1tbW9v7+zseL3e3d3dra0t+NTra7u+9v9w5v4GkNvb29vd3d3e3t7wNZju27dv7+zsrK+va7XaoqKigICAf/qnf/rnf/5nf3//rKysuLi4wMDAd99996233vrGN77xhS984Rvf+MY777wTEBAQERFRWFg4NDSk0WgWFhY2NjZQJDY2Nra3t/f29ra2tu7evQuIwl2y42sAJIy3trY2Nzf/jtwnzsDu7u76+vrdu3fRG9/r9e7t7d2+fZvD4bz99tsvvPDCV77ylZ/97GcYDEYul4vFYq1WKxKJJBKJRqMZHx+XSCQ0Gq2joyM9PT0gIODll1/+whe+8Pzzzz/77LMvvPDC9773vbCwsN7eXr1ef+PGDfg7vF7v5ubmvXv3dnZ29vb2AFo4uLm5CVjCwU/8u//yH/y1yxyAtLu7C1NmNptxOFxKSsq3v/3tl19++ec//3l6evro6KhSqRwfH5f6mkqlkvkavFUoFCpfGx8fV6lUSqWSxWINDg5WVVWdPHnynXfeeeONN/7lX/7lxRdffOGFF372s58lJCTU1NRgsViFQmGxWG7dugW6FJQniB38Pffu3fvLA/SJv/DXjhwAtr6+zmAw4uPj33zzzS996Us//vGPk5KSurq62Gy2Xq9XKBQHQdLpdAqFQqlUAmAymUwsFkulUqVSqdVqFQqF3NdkMplKpZJKpUwmk0gkdnd3l5WVpaamfvjhhy+//PKzzz77rW9964033nj//fejo6Pb2tomJiZQdQ3G7xMn9al88FSRu0/DoFoINNJB+w8fbWxsmM3ma9euvfLKK1/96leff/75gIAAOp2uVCrVajVMvUQiEYvFSl8TiUQcDofP56t9TSKRcLlckUgkl8uFQqFSqQT8pFKpQCCAc5RKpVwuVygUYrFYpVJptVq9Xj87O6tQKPB4fHR09De/+c2vfvWrzz777Be/+MVnn332nXfeqaqqkkqlbrf77t2729vb6P8CHaDAwRH07ZMdPFXkUAux6WtAAYAXbG5uAksE3qFWqzEYzPHjx1966aXvf//7AQEBxcXFfD5foVDIZDIQmr/0q0wmAyD5fH5bW1thYeGpU6fefffdn/zkJ88///zXv/71o0ePpqWlVVVVyWQyt9u9sbGxubl5584dsMRerxc46pMFDL3aU0UOzMPm5ibK6YHIeb3eu3fvbm1tra2tYTCYH/zgB1/72te+8IUvHDlypKenB7gGaDyVSvWXBgy9vkgkEovFcrlcrVaPj4/r9XqBQKBQKPR6PY/Ha25uPn/+/He+852vfOUrL7zwwmuvvfbd7363trbW6XQeZFWAIjrdT3DwVJEDwHZ2dsAzAxHc2toymUx0Oj0rK+vFF1989dVX33rrrbS0NBKJpFKpJBIJzNfk5CSYtKcmcxqNRq1Wy+Vy+EWwpgqFQiAQCIVCjUaj1+sNBsPo6CgGgzl69Oh//Md/fOtb3/ryl7/861//urOzc2pqChyYJ4jWwUs9VeRAPd6+fRu8KOAdZ86c+cUvfvHcc8/99Kc/TUtL6+/vl0gkMplMqVTqdDqtVgv4CX3tIMVAheMvNNBqtWAaQdxR5MDECoVCMLHAgzQaDYfDGR4evnz58uHDh1977bXXX3/9/Pnzd+7cOTjdT3D8VJEDl2hvb+/OnTuNjY0vvfTS53zt2LFjBAJhdnZWr9drNBqtVmswGAQCAY/HE4vFQCVkMplQKOTxeFKp9C8E1X2X1Wg0MpmMz+cLBAKlUjk5OQnSplKpdDqdWq0GXHk8nlKpFIlEYIOB+/B4vLS0tK997WtMJvMJonXwUo+JHMqawA6j2hzeAkuE2AcaT/J6vVqtFovFxsbGvvLKK6+++uqRI0cyMzP5fL5GowGvCxi8SCSSSqV8Pl8qlQqFQpGvKRQKoPtPTVsKBAKxWAwOBvxhQGIP2lowgUqlEpwNEEegvlQq9YUXXhgeHoYYAswDOjMHMXi88RNADnVu7t69C/wKog8QBoTAlUKh8PPz++EPfwjxjpKSkrGxMYFAcN9t/lf+FvwQrVYL9g9wlUqlCoUC1Di4lRMTEzMzM3w+/8tf/nJ7ezvczVtbW/fd5Y8HGPqtx0QOqLzX693Z2dnY2Lhz587m5ib8ZRBZ2NzcXF9fNxqN3d3dr776Kji277333sjIyMzMjFAoVKlUqFP8Vw4Y+ueB16hUKkF18/l8kDapVAp6AjjL/Py83W4XCoVf+MIXrl27BrMEnh96l6MAPPbgMZHzer0bGxv37t0DlwU4/cbGxs2bNzc2Nubm5hoaGsLDw7/xjW+88sorQUFBpaWlRCJxfHxcqVSKfU0ul/N4PHRS/iYGkj80qVQKATYgU2q1enp62mazzc/PW61Wu90Odvof//EfKyoqgFFDbgECoY+N1sEvPiZykBM5aN4gvqfVasPDw7/61a9+8Ytf/Pa3v93a2srj8dRqtUgkAqIBQUWhUAiO0d8EYOgfCRbuYKRNq9XOzs66XK7l5WWXy2UymWZmZsxms8FgkMvlL730UklJCWgjkLz/98ihvAPSZlKptLa29u23337uuefeeOMNf3///v5+lUql1+slEgmE8MEqiEQimUym1+shZohOyt/KAGBTqVQTExNzc3Nut3tpacnlclksFrPZbLPZHA6H1WqdmZnRaDTf/e53i4qK0MA0RKsPys2fM364zIFow23i9XrRqBVKF+E+8ng8jY2NH3zwwTe/+c0XX3zxxIkTTU1NdDpdp9Oh3isIGWgVMGzwCtb+rwcwcM7A5YBoNcoY5XK5SqXSaDQCX1MqlWazeWVl5caNG06n02KxmEwmi8VitVptNpvdbjebzTMzM3q9/gc/+EFBQQGayYMs7p+D1sHvPhy5zc3NlZUV8CI3NjYgzQE/fPPmzc3NTYPBEBMT86UvfenZZ599/vnnCwoKpFLp5OSkXC4XCAQgUn89qHyWvwSECW44YCKKA00mk4HymJmZWVhYWFpa8ng8CwsLlj9uZrMZgDQYDBMTE6+//npOTg6QuL29PTB4B2f/zxk/HDkwY/fu3dvd3QUaCa+Tk5MYDCYsLOy555770Y9+FB4e3tTUpFQqp6enlUrlQcHSaDSfZb7+es4Bvw3AAvYBQRMIoGg0msnJSYfDsbq6ev369fn5eZPJZDQa/xg4RGGiyE1OTr7xxhvp6enb29vgEjxBYrm3t/dw5EBP3r59e3V1dXt7+969exwO5xe/+AUEWP/7v/+7qalJIBDwfY1IJIpEItQ/hdvzqfnLTwp7lUqlVqvBV5HJZCCCIGeTk5MLCwu3bt1aX193u91AQIy+dh9yoDbho6mpqbfffjspKQlNxj5BN/wTkYMfW19fdzqdIyMjv/3tb19++eXXXnstLCyMRqOp1WqpVKrRaIRCIUSnII4OkXWYSqFQ+KTm9OlcB2QO9dhgoNfrbTbb8vLyDV9zu93AHlGE7kMOpNBoNJpMpqmpqffeey8mJgb1dHd3d/8c9Xjfdx8uc3fu3GEwGOHh4a+//voLL7wQFBRUW1vL5XJVKpVQKFSr1RqNRiqVSiQSOAKMEe5Z8FL/5pA7yPU1Go1Op1tYWFhZWbl+/fry8rLVap2engYOYrFYAKH5+fn7kDMYDPCpyWSanp4+dOhQVFQUcEsoHbtv9v+ctwhyELK6cePG7u7u7du3Jycnf/rTn37xi198/vnns7OzJyYm2Gz207nxn9qvoEwEANPpdBA1FovFOp3O4XCAbrx+/fri4qLD4TCbzXNzc/fh9OBbs9ls8rW5uTmVSnXy5Mnw8PA7d+6Annwwaf4EkLt79+7q6mpnZ6efn9/nPve5X//61zk5ORwOB8Icer3+qc3p0/khiOtLJBKFQoGSKZ1ONzc3Nz8/D4x/cXHR7XZDKMtsNj/IRx6KnNnX5ubm1Gr1g8g9QVOHyNzm5ubCwsIHH3zw3HPPffTRR/X19VQqVa1WQ/weNP7TmdCn9itQTaRUKoVCoUAg0Ol0JpPJ5XKBevR4PFar9UFgPvUIwAYCqlarIyIiwsPDoTQUBO4J0ksEudu3b+Px+Jdffrm0tFSn001OTkK8CmIfVCp1fHz8qc3p0/khhUIB2Xa1Wm02m51O59LS0srKyuLiotPpBBoyNzdnMBiMRiNw/c+CJZxpsVgMBoNGo0GRQwuNYPDnKEn0uwhy9+7dq6+v//KXv8xkMiFbL5VKAS1U8p7OhD61XwEaPDc353K5lpaWVldXATOU8aPSg8L2WZCDSIrVajUajVqtNjIyMjw8/NatWxDEePJZno2NjdLS0s9//vNSqVSv17PZbIVCMTExYTQap6enZTLZ31wi7VPvgKmpKQiFrK2tLS8v2+12h8PhdDptNpvJZDIYDHNzc3Zfs9ls1j+0T9WWTxu53d3dvLy8z3/+82C3xWIxlCmicVWIpRqNxqmpqfHxcY1GczCmJ5VKxWIx+HZyuRwqGCGeAjOIRpEkEsnBINOnzu9jnwBlLPBHQmRALBajwW6Hw4HSfcjLGAwGcNE+CzaPOAck1WKxzMzMKJXK5OTkwMDAjY2Nvb09WBeB1hKgSu+xB4i23N7ezs7OfvbZZyFnCF421FnI5XLU0VGr1ZA5dDgcLpfL6XSazebJyUkAEs6EygOZTKZWqyGZBaksqEaFSx18fWxsHv3Fg3E4iUQCmM3MzDidTljRs7q6Cv8Fu90O8SrURD0CmE/9CJCzWq2zs7OAnL+/P4R/d3Z20HTPY6N18IsIchsbG2lpaa+++irE9dFUNUwxCAoAAwF1cHpMJtP8/DwY9qWlJYfDYTQaJyYmIAwGdzoaeoe6IBACVARBOh+NwWN/isYhISnhdDoXFhauX79+48aNhYUF1PFC5/pTUfnsJwByKpUqJSXl2LFj6+vrUMQN0Us0qXkQhscYI8jduXMnKSnp3//93wE5CG4BbBB7hVfIfUCgRC6Xw32tVqunpqYARbfb7fF4IFkFhVxo4ZtIJIKKIFRhwvUfG5hHfxEkHtb12Gy2lZWV1dXVlZUVl8sFnpnRaPxTeeNnRA7iLOCJp6SkHDlyZG1tDdACl+BJInfr1q3Y2Ni3334bCmOgJO1g7BVE7eCkA2wQpYUsgVQqValUU1NTVqvV7XYv+5rH40FJ9sTEBOhMkAYoU3w0AI/9KXBji8Xi8Xgguu/xeCC6b7VagYMcROIz8saDX/mkMVrNoFarU1NTDx06tLy8DGihWc/HkLAHv4LI3K1bt86ePfvee+9B0RmsVoIFS6h+g7eozgQsoXoVXWYBXq1QKJTJZBqNBu4+MIogjsvLy6Cp9Ho9FCui2BwUbghNQcAeHcMJgD186+BX0OsoFAq1Wm00Gh0Ox9LS0vLy8uLiosvlcjgcQEbAS7NYLHa7HXjjJ2HweMdR5DQaTVpa2vvvv7+0tISGTtDBg0j8qUcQ5O7evXv69OmPPvoIpAfKGgEkNIKOGiewghBYAVYJ0oZaR3QSxWIxQDg5OWkwGMxms8vXFnzN7XZD4cbc3Jxer4ebBrWp8OtwExy8acRisUajAa0O3Af+MDCoQKDMZvPq6ury8rLH44HY1RMUqUfDCTTHZrOBtszOzv7Nb34Ddm5ra+tPxebR5/9e5k6ePBkQEAByALW9UBsKZcVCoRBWLvH5fKgWBeaJpuIehA1VjHCOSCSCcm7QqHa7fXl5eW1tbWlpaXFxEfLLQPYMBoNKpUKricFRgWIC4D6gxsFMovE5wMxut4OXBrcF+GdQIfLoGX9Snz5t5G7cuBEcHHzq1CmYFNCQs7OzQPrBEzpI1WCRC8wdSvpRUUMHoOgOWjWU9QCuKpUKZBGdcdBsCwsL4HJMT0/DQhAoNwLjivpn6GJGo9EI4Su0yADVhCiHfFLYPPo6Txu5lZWVY8eOJScno4s81Wq11Wp1Op0ajWZkZASLxRKJRB6PB/c+QKJWq7VaLaq74CAKG6i7+8ATi8WgD2UyGWg5dOUAaFS73Q7yt7Cw4PF4lpaW3G630+m0Wq2oUkVdRgjtQ+Zz0dc8Hg84JwdjV6h3/OhJfyKfPm3klpaWDh06lJmZCWBIJBKhUDg7O2u326enpyEswuVyCQRCb2/v8PAw6D1g+aAnoVjjIGyweAklESBter1+fHwcGCxwHBR4kUgE5RFSqRQqGN1uN4iO0+l0u92oUgVmaDQabTYbJD/n5+fdbrfD4ZjzNai+MpvNELSy+doTAeZTL/K0kVtZWfnd736Xl5cH8yiXy7VaLUS8YG8DoHmgRYVCIYPBoFAoRCKRQCCMjIxAnBot4kAXnKFAgjVC02AANlwTItqQXocvQshDKpVqtdqZmRkISkH5MBQ3gnO2sLAAcM7Pz0PmE41gHRQy4Lc2m+1TJ/2JnAC3i9lshhhKXl7e22+/ffPmTYh+PfnM6vXr13/zm98UFhYCN4GFa1ardX5+Xq/XwxSjMMAAwICVbTQabWhoCDQqLAiG9BCPx4M12gA5xDKAKKKMBuJtwEKhCPq+H4K3EHgzmUxOpxPoPsT4l5eXn0i88YnAhhbLGo3G2dlZuVxeUFDws5/9DJA7mBZ/NGn8jJ8i3HJtbe3tt98uLS0FPQbrnT4VOdTVg8mVyWRcLhcEkUQisdls8PZgaxIwbMBdgWfCEgpA7qAz8CBycOsA71epVJOTkx6PB6p6lpeXP0uRwZMC5lOvg4bmnxJyKysrb7755qVLlwAMuVyu0+kejRxQSiglUigUkCgAeGC1IIvFYjAYJBJpdHR0bGyMwWAIBALUM0PpDFwHJTIPwgYnwIo0SIcqlUqXy3X9+vWbN28uLy/Pzs5+6oQ+tROeNnJLS0s//OEPr169CmRdJpN9KnKg7oBlyOVyWLqIkn6oFYAqD7VaLRQKR0ZGOjs7u7q6SCSSUqmEImiJRKL7QwNPHATrIH4oAwLZBcrqdDqvX7++vr6+tLQEpOCpYfPoH3rayHk8nu9973u1tbWQ1pJKpZ+KHDh5QDtBFNCoJson76tdVKlUIpEIto0hEol0Op3NZlMoFA6HAwWpD1IbOII6jiB/UqnU6XSurKxAlMThcDx6Np/mp08bOZfL9eqrrzY3N0OI/bMwFNT2HNR7MLOoxKAcEg05ooEVWEbM4/HYbDYej+/q6sLhcLADDWQkAEvU9UavCTI3Pz8P8ZelpaWnCcyn/hbKLcGbKikpefPNN9fX19FY8xPOrDqdzpdeeqm9vV2j0UDx66fK3MGp/HPGsO2PWq3m8XgjIyP9/f04HI7D4UCCBpC77/pSqRTsHASU/9q0JcRIAbnS0tI333wTClmf4Mo5IJ8It3Q4HP/n//yfnp4eMDaw98CjGcp9s/l4b1FigjIjqVTK4XDodDoej4dST9R/QH/i78h9jJzdbv+Hf/iHoaEhNKT7dGQOdcahxBjWl4BVo9PpsJQGNYF/R+4+Pw+ROZvN9rnPfW50dBRiiZ/FzqHz+GcOUJGCwDRs+yMSiQgEAiSPHmSbf5e5j2UOkCMSiWg27qnJHOSP4HcPcksKhQK7Dx1cHwR3yd+R+yPknnnmGRwOB54yrO+GrPH4+DhoLQ6Hw+VyYXMXcNQgsYBGUiDLCqFnUIOwbwh6wmepFwI5k8lkRCLxQWlD5RtKS9BaoE+lfE/tBOCWFosFZSivv/76+vo6bGYDr/cpvcd+i2hLs9n8zDPPEAgE1M7p9fqDyKEyARXdPB6PyWTSaDQWi8Xn88EUodFqcPLQpTHg50EFHzr1nzT4O3KfHUgEOYPB8Mwzz4yNjUGVwIMyB5VesNkO+FuAk0AgoFAoWCy2q6trbGwMSqTRdZEQn4TAGERVPgkw9PjfkfvTkJuamnrmmWfIZDLE/h9ETqlUAncAjXfQs0YnnUwmDwwM9Pf3E4lENpvNYrHQxDeI8iO0H3qRvyP3pyGn1+u/9KUvwTJi2BT3QW15MFiMFi8DGKBL0Xw6ZAwGBgawWCyBQIC8ATj4KEKfNPg7cn8acjqd7h/+4R8YDAZEhx+UOVRbQnwLdR4gMglv0TUJYPl0Ot3ExASTyWxra6uurm5oaOjt7f0kwNDjnwk5hdRmt6ysLgFDMSGswPJxt1jNyMo3q6/DACEoZsuBc6zIW4vZ9uhuNts+tVvMNqvJbjHZLCZkYDbZrBaH1eiYnpyVS5WlxeWv/98f3Vhf3/V6d5DHYnh3d5Et++9r3j2vd3937yF9e28f+kMWmCN2TqFQvPjiizQaDaKCkMaEukGdTodO65864PF4CoUC2CmFQunr6+vo6Ghvb+/u7sbj8TQajcvlotlXKLpFN40cGxv7hF3BZHK5yGY3Lq95rt9cdXnmDTaTwWZButU6Z7PN2hwGGzKJMKHIbPoAMFqsRjjNZp6zmYwWq8WETPEndYvJYTQ7DJZHdaPZYZ1z2eYWbMgrMrDOztvmXNZZ1+y4WSkaLyu88sYb/9/q+s0t797mrnd3b8+7t+fd8fXtPa8PFO/23s7+7tb+9s7/bPn65u7/bHr/5553/553/w70vf0N31f/CHEEOZlM9vWvf51Go4EDADL35yOHGkVY0YtWx8Leq21tbXV1dS0tLT09PaOjoxwOB7JFAB6ZTIadOh7wJWQyucgCyK0jyJlsJhMC3sf4GWwWq8lqN9osZovNiMgXInAW8x9OM87ZDQYbIqvwgeVhA98x5OUR3WKyWo02m8GOduTeMdmtRtusfk4pUZcVl7/x5pur6+s73l3kITJ/jNzvxWl7b9fr3UWkEene3R3v3vbe3hbSvRt/6JsPR04kEr3yyis0Gg0y1JA/eyLIHQxIAjWF53ZA2QRKTVtaWjAYTGNjY0dHx8jICI/HI5PJsLsDGmRBJV4ql1jtpqXrnhvrawueebPNaLYiEgUdxnaz0Wk0201Gu8lkN5qtZqPFjJxgRrrBZJ/z9VmT/VHdZpl1mH3dNOcwzSHjPx7YLXMWK9LN9j8MLLPI2DI7PaOXKcUXyore/OlPrt9c2dnb3vFu7e37xG1ve293e293F+k7u/tbuyiEnzTwPkzHIjLH5XK/9a1v0el08AqeFHJoQRiYQMjsSKXSgw8KgDJAuVzOYrHweHxnZ2dtbS0Gg+no6AA38UFGKpXLLHbL8toSIGexGixWn6a0ztmsczbLrN0y4zTNOY0Gp8ngNBocJoMdtKkFOdNiNZitRpN91uicgW54YGB0zpjss3bLrNM8g3TT3MGBwzyLHDHN2S2zJjtykY+v4JhG3jqmJww6iVZQXFHwxk9/cv3W8g6iLDf29kGSNve8vr67ube7ube9tb/l3d9CPvx9R62bT6N6txHt+mBDkGMymd/5znfodDpah6LX6/98mTtYDQYSI5PJYFGPQCAAYMDBOJhMFwgEY2NjENB56H58UpncYrMur67cuHHdvTAP9stumfP1Gadl2mmZnjfN+vrcPCIlCHJ2s9FqNlqtSAfNOYcoWMTmzTmMBpsZGTuM6EGjDVQsometJh+l+XhgtpisSLeY5xyGufk5tM86Z+echlnH3LhRL9KICyuK3vjpT9ZurezsbW4Dcgh4m4gO3LuH9N17e7sbPvB2P8bvD8ghmPn6w0TOt3sUi8X613/9V+CWUDgMyNlstoO75gGHRDE4mEcFxwA0G7yiz1RBs6kQW4HjaPwMXWkPcTV4vI5Go6FQKFA3hipJdCCTKc1m24pv/62FBZfFjHA7u9mIIIcot2m7ecZmnrNbDD6FabKaTBajCfSl2WQ1m+1mhHoszJkX58yLs5bFWcsS2uHgjHlxBvloeRq6aXnKvDRlXpr+w2DKuDRpWpw0uadt7mn7AtqnbK4p+8KExamaMgo0EwUXq370xlur6+tbu7t3NjY3trZ29xAz5t3b3vVu7no3vQiKmwh4u5t73i3vzrZ3Z2t3e8uLPDrNZ/V2vds7O9u+BzvdJ3aIzLHZ7O985ztsNhs2FIKd+KFKFTaoBFmB2joo5oE6dhRLeDoK5NsgdPKglkOn/hEDtESMSCTCfpgPnqxWaY0G8/W19bW1NVgPZzIZTSajBYHFhBB5q8VkNBlmjLPThrlZs9FkN1tdFovbYlkyW5dNlhWzZW3WsD45fXNian184rp2fFWtW5Eo5gViu0Bi44utPKGVI7YyZU6a1EmVOChiO0lkJQmtFLGdLLaRhFaiwEzkm4k8I11oogmMNIGRyjdQ+QaGyCxUL/AV80L1AkNkTs+r/9Fb7zlWbq9v7K1vbt/a2r676727s393x3t3d3dje/fe9vbd7Y3Nnds7e/f29hEG6vVubHnvbu/d2967h+jYva0d7+bW7icwFDqd/m//9m9cLheCjcAt70MOSvDQXdqgzBngQVdEAh/5c/ZP+SzIqVQqo8F4fW19deX6vHPBaLQZTXaDyW4wO3/frW6jfdFkWzbZVgy2lVnzyox5ddZ4Y2JqRa52caUmBnuWTDOMUsyjVAvaiQw7iekgMexEuo1It43Q7DiWc4Dl6mc6exmOHrq9h2brpSODbpqti2LtJJs7icYO3HQXbqoDN9mJRXo7drJtQF/XLmvs09S2ydoGxq9gaIrpNdX0umF+y3V7x72+c2PHe2N778bO/voOwvpv7+1teL1bezsb/7N5d//exv9sbO5vbu9v3t25eXd3fWf/3s7+va3tOw/nlkQi8VqLIKQAACAASURBVAc/+AEUuYpEImAoB5FDi+ZEIhGPx4OKPBaLxeFwUIsFdcrosoG/lMzJ5Gql0jRnuL5yA0HO4ZkzOIxmzxyi31ZmLGtTlutTluu62UXVtFs67hSobGypmSIwjdJnxuhGItNC4tjJbCeJs0Bke4jsRSJzcYzlHmN5fN09xvCMMt0jDNcw3T3AXu5lL/ewlnroS500Twfd3Ul1d1LcbVRXO8nVRpxvG3O04C0tWHMz1tw8aGoeNDUOGhoHjPXdk81Yc2W7DtM31TgwienT1bbLr7aImwZUTf1yHGOWJDTz9DaNadG0sjF/x+vZ2l/d2b+xs39jd//W3t5t7869vZ2bm3fubN3a3t/Y2d/Y2r33cOTwePyPfvQjsCuQD9Pr9QeRQ6Mk6ACNOJNIpP7+/ra2NiqVCsk2wAzIzoO67tFHPl3mZHKNQm6enb2+vLa6dN1hX5wxLBidN6bN65rZNYluiataYMrnR/mzw+wZHHMay5wZYhgITCtZsDjGXRphewhMN5bmHqJ7cFzPEMuDZbkHWPP99HkcexHPX8Rzl3CcJRzXg2Uv9XFWe1mrPcyVHvpyF22xg+7pILvbyQstpPmWsfmWMWfTqKNxZL5x2Nkw7MQQHEjH2TA426XuqYsdk1d6Z650TV9pm77SMl3fY6lo1F1sUhdUc4trucX1nAuN7IpG7qUWzqV2VhdFy9a4Tde9q3v7y9v7ruvb93x6E3nM1p7X9yjRT9CWWCz2xz/+MZA9oPIPRQ7NtAEfAeoI8UylUkkmk4eGhggEApVKRSPOj8bpwU8RS+m7+gE7J5PLoSP/yGVytUxhnJ5bW76xvLhuta9MznpkOgdfOU+TOse41kGGoZc2M8Q1DgusYyLnqGRhWLCA4yzg2Is41soQcw3LvD5IvzHAWRkQeAYFi1jREla0NCRe7ue7e7nzPZz5HvZ8N9vezXJ20VydtIUOqquDNN9KcrSQ7M0jtqZha8OIuQFvxgyZ6nGmq1jj1QFT9aCxatBQNWCo6Jmu6JmuRcCbudA2kVevLKzTX2mzlmOMRdUTRTXjpfXjxTWqkjplSYO8pEFa2iS+0CIuwfDzquh5VeT6XilT6pqZX7W4Nm9u7CF2b9N7987W5sY2Enz5vdz9fogwlIGBgZ/85Cd8Ph+WpsE2KCBz4+PjIIUPzQ8cnHo4QSQSsdlsGo1GpVK7urqGhoaoVKpAIABBhFouAB6yr3AFIDg+BqQUShQSqYpEIovEAo1KplJKFHKRXIZs4y1VKiUKLYOnnTCsuW7s6A03mWIrTWQdZhmGWSY8x0Jg2/AcB57jGOY5cVwHju3AcRx49jye6x7lrw7zVwjcZR9+y0OcFRxvZYi7jOUuDrA8/Ux3P8vVz3L1MRb66PM9tPluurOTOt9BmW8nO9vGHK2j9pYRW/OwrQlva8RbMIOW+gFTnQ+zygHDlf65Sz2zFd0zF7umyzunL3bOlrVPl7fPlDROFjVOlbYYCjBThfVT+VfH82v12dXqnCp1drUys1J2vkJ0royfcUmWXiE+V85NL2NllNNzL1GqW4SDY5Oa6bXl2/u3dvfXN/Y39/bubm1t7+5495HdhTc3biPI9fX1vfHGGxwOB4i+RqOZmJi4D7mDID1ifNA/02q1TCazu7u71tcwGMxBWwjbWsOeaVKpdGJiYmpqSqPTK7XTUrmWQqaJhHypmKuQCdQKiVwhFStUPJWWo5xgqT00xfUxoQfHdgyx7ATu/EM6x0X44z7Ccw9zF+Agnu0iMBdHONcJrFU8cxnHWBqiL2JpnkGqe4Cy0E929RKdPcT5LtJ8G8nRSrQjgBGsjXgLAtuQDTNgxfRb6/ss1/pN1QOGyv65yz2zFV0zFxHMpis6ZstbZsqaZ0obposxUwUNEwVNE3kN4zl1usxrmsxrmqyruqxKXeZlXUa5Nv2COu2COqlMlViuSCyVJZWIkkp4ySWcpAJKaiExMW+o/BpPPL5xfX//1v7+vb291Vu3N7c2fYGxLQS5zs7Ot956C9bDwYqbx0buYFUyqF9YBcJms8lkcqev9fT0EAgEOp3O4/G4XC64dL8XSqlSrhqXytRUCl0qESvkUqVCrlCqxHINV6qjSXQk0QRJ7BigW7qIs3iOc0zoeQhs3HkCa4HAch/sw2wPvMUzF3DMBTxzEcdcwzHXsPSVQdryAHWpj+zpI3t6iAvdY66u0fmOEWcr0d40Zm0ctTQMWzE4MwZrxgzZ6gctdQPma72mqz3Gym7D5b7Zir6Z8p6pC51Tpe3TJW1Tpa3TJS1TRY1TBfWT+XUTefX6XIwuuxbBLLNanXFZnXlFm3lZd75Ck35Bfa5EmVKiSCyWx5dIE0olCSWChCJuQhErPp+WVEhNyBuLzyKk5I0VVlM5OtvCvd3lu9tL67e3dnd3vNsIcs3NzT//+c+B6IPj/BjIob4dgAfbEIEjCM+JgifXKBQKkUg0Ojra3NxcVVXV3Nzc2dlJIpGA06rUGpVGp9Xq6TSmUCRWKrUKtV6smuDIJimiyRH+DJ47OypwDXMXEB3Inh/huYmixfvB47hwLPf9nYMcGWIvDDEXsCzXEMODpa9g6SsD1KV+yiJg1jU6j2A27Ggn2FvxiG5sGLFg8Ob6QVPdoKF20FA3YK7pNyGwdRqrOgyXOhD1iGDWMVXSOlXUPFHUPFnUOFnYMFlQN5l3dSK3ejy7RptZo0Uwq1SlX1GmVSjTLqnOVahSy5QpJcqkYnlikSy+UBxbLIopFJwt4J/N557NZZ3NYUWep0SeJ0XnUGJyKNHZhOjc9txrgwrT2sIthGhueb0IcvX19f/1X/+FLu8A3fWnaks0jILGiAEwnU4H61RBmlGfD5LsIyMjHR0dzc3NoFH7+/vpdDqHzSOOkSUylXbcIFbNMCQzZJFxRGDB8e0DPAdRvELguAZoNhzLiWe7sAwHge26rw9x3Pd3lhvLRjAbZLkGGa5B+uIBzNw9xIXOEWc7wY5ghrO1DFmasOYGnBmDM9UNGWsG5q71z1b3zVztNVT3Gqq7DJVtc5dbZy+2TV9omypunyxqmShs0udjxvMx4wUYfX7tRO618ewqXdZlbWaVJqNKnValPHdZkXpRnlIuSylTpFxQJCOYyeMLpHH5EgSwAn50Pi8ql3M6hx2ZxTmZwTyZyYrIZJ9IYwQnkoOTRyJzR8LOdx1Praerbc4bOyu3fDJXU1Pzq1/9CuQDUnSPIXPo+g8UORA+uCH+8EAb5Gm26GpxyN5pNBoej0ckErFYbE9XZ0N9bW1NTUtbh0imFSqmqfyJMf4cgWcd4i8M8pcHeKs47vIQfX6Q6sAzF4bZHjzzfsWIR2Rr8WDHIuwf6YNM9wBjYYCx0E/z9FKWesiLXUR359hCx6irleBowdubcbZGrKVh0IwZREStdsh0DSGNs5V9M1d6Zyq7DZVdhsvtcxWtM+XN02WtPlFrmSxsnshr0OVidDl1utx6fe61iezq8axKbcYV7flKdWqlKvWKMvmSPPGiNOGCLLFUnlgqjy+RxxZKY/IlZ/PE0fm86FxOVC7nVDYnIot9MoN7MosfliEIPccLTGT7xzMDEuhBqeTg1OGQc/1BsZgOnNa17rNzlZWVv/zlLwUCAbqv9tTUFCyvBrcMeOB99BKWBcNjSFGKiKpKIDvwlU96vY/p+FYSSTQqKYfNHBjA8eXjbOnMGG+WwLUOcRb6OSu9nOv9rBtDrBU8YqiQDqZrmO2BDm9xHDeBs4xnrw4xl4dYS1jG0iB9EREymqePstBDmu8mOjtH5zvG3G3DCy34+aYhRyPWjnQf+2jot9T1G2v6jJX9M1f6Zy73zlzqma7ongL2cbFttqx5urRhqrh+orBhIq9pPLdxPBujzaxTZ17TZFxVZ1ZrMyp1aZfUqReVKWWK5Ap5UoUsoUwWXyKNLRHHFIljCiQIYDmSM1miqExBZCYvKpNzKpt1KpMZnsEMT2MfT2cHJTIDklh+8Zwj8ZwjcZwjseyjsfSjsZSAxOHghL6I5NarbXxEW16+fPmXv/wlLKUB+ncQOTBgoNwgXwNiBLFpiCADy4DdNtAwyn3AfJa3KqVEq5aIRFz8yBhPOkEXz4xwDATu/CB7aYC11sda72fcHGKuHKQeBJZ7hL34MXJM9xDLg8DGWsUyVwYZSwO0xQHaYj/V00tx95BcXWPOjlFH28g8AhvB1YRzNmEdmEFb46C9YdDW0G+t6zPX9hiv9s5d6Z251Iv4Zxc7p8o7pxCi3zZd1jJd2jRV3DBZVD+RjxnPbdAhsNVrMmpV56+q06vU6Vc0aZc1qRWq5HJF0gV5Ypk88aIs/oI0tlRytlB0tkB0Nl98Jk98Jlt0OlMYmc6PSOeeymBHZjFPnmecSGOGpjFDUzn+8Uz/OPaxOPaRWO7hWO7hs9yjUdwj0Uz/s5SgOHxofHdSAR5Brry8/J133oFnUj4UOdjGBh6/CLoOLSJCV2FB9BLqiB6x4vvT8BMpFXypVEgk09kSPYk3M8yyEDiuIdbKIGttkLE+yLyBY64MMxcP9hHWErwlMDwEhgfHWMQyVgcYK/205T7qUi9lsYfs6Sa5O8dcHaPzbcOOFrytmeBoxruacPMNWAdmwFbfb4Ve22+51muq7jZc6Z6t6J4q65660DWJEJA2RDGWtEwVN00VNkzk103k1oxn1+oy67UZder0GmXaVZVPK6pSKlTJF5VJFxQJJbK4UmlcKYJZzAVxdLEwqlAQlSuMyhadzhKeyhREpAvCz/HCUjnh6aywdPqJdNrxVHpIMj0oiRkQzzwWzzwaxzwSy0J6FOdYJM/vNDvgDDU4eiwkDhuW3I8gV1JS8t577wkEAlBrEonkPpkDbQm7bfB4PA6HA6UGsN0C5BBgLeRBX/vTQHrY5zKRXMaVy8VkGpvG1xG5M6NsG4G1gEO8rlUcbQ1PWyPQl4eZ93cCY4nAWMLTF/H0xSH6Yh99qZe+1E31dFHcXRR3J3mhnTjfOupoGbE3EawNOHMDztYw5GgYtNf3W2v6EJYP/WqPsapr7krHzCVEwqZK2idL2ieLWyaLmhEOUtgwUYCZyKvV51brc6rGM6vV56+qEcyqlCmXFUkVsqQKeRLimckR2IplMQWS6GJRVLHodJHwVIEgIpd/MocXnsUPz+CHpfFPpPCOJ3FDE9nHU5jHU2jHU2ghibTARKp/AiUgjuofS/eLoR07Sz8aQzsWxQyI5ARGsoNO04LPkEJihkMScAhyhYWF77//PmTIAKT7kEPnGI1bCgQCOp1Oo9EYDAYEoEF5ouULqCyi3/0sA6VCjMicXDRGYZKYShLPQOI7h9muYcbiMH1phLoySl0ZfgA5gA2Qw9E8WJqnh7rYTV38A2auduJ8y7CjmWBvxFkRtwxrrB801w/Y6hDYLFd7TNVdhupuY1W3obJz7nL7zKXWqfLmqZKWicJWfUHLeEGTPr9Bl9egy6sbz60bz76GuNJZlzQZlepzVYqUannSFVlihSyhXBp/AYRMGlskiUa0oigqX3iqUBCRzzuZww3P5p7I4ISlc0+kcY+ncEITOcFxrKA4RkgSPTiRGpRA8Y+n+MWR/eLI/vGUgFiKXyzFL4Z8LIbsd4YaFMEKjmSGRNJCoijBZ0cDY4cR5PLz8w8dOgR5HOCWDyKHQgLqFH0yLNQosNnsoaGhwcHB0dFRJpMJe4N9FqjuO0epkinUYrFURBijDpNlJL6NKFzCsTwjTPcYfWGE7h6hIRDimcsHO46xBHGQIR9sg7TFbvJiF8XTSXa3E13tRFfrqLOZYG/C2xDYBk11A8ZaxDOzXeuzVvaar3QbL3cYrnQgrxVtc+UtM6XNU6VNU4XNE/ktutxmbV6DLgejzcZoc+q1iE9dq8qoUqVfUaRdUSRXy5OqZAlXJHEXxXFl4tgLYsSelYjPFAlPF/BP5fMi83kR+bzwXE5YFudEJvv4eYSAHD/HDk1hhiQyg+IYgbG0AJ+c+flgOxZDOnqW6J9A8o8j+cUTj8WNHYsb84smB52ih5yihZyihESRg8+SguPJH8scPF0ZSlEeRO6+KX7w7fj4uFar5fP5w8PD3d3dnZ2ddDqdy+VC+hstRQGFjIbBwAtEF5fIlGqxUiORSElEZj9BUtOnIYg3Btg3R5guCsdJFS720l1Y5jKOvYpnrxI4a8Pc68Pc6310dx/V3Ut1IbyR7GwnOxGoRhxNw/ZGgq0Bb8XgLBicBXGoB4w1A3NX+2aqeucu95mudJoudhrK2mdK2mZK2+ZKWueKmucKmmZzGqZzMFM5DbqsJk1mgyqjTpFeKztXI0u7KkutliZXSZKviBIvCeIvCeIui85eEkRX8KPKuadLuadKOJHF7IgiVngRIyyffiKffiKXcSKLeTyTEZpBD0mnBp+jBiZTApMogUnkgESyfwLJL4Hkl0K5r38QjT8cN+qXSvFPo/gnU/wTySHx1OB4sv/ZUb/osePJjLAMLoJcXl4eaEsQLJlM9hjIQbQaCoQUCgWXy6VQKDgcrrOzs6OjAwosYddD2IsDrekDFKEyTKRQ8+U6pUJNp/E7BvmJBeQO2u0e5u1hxjxN4MCxzf2cxT72cj9r6WDvpi10UV2dlPkOsrOd5GgbczYRHA1I2sWGwVvrcZY6rKVuyFyLNV0bMFT3z1b1IM7Z5e6ZSx2z5e2IN13aikStilunC5um8hqncuons+smcq9N5lRPZlXrMyt15y9rkHjVJXXaRdW5MmUyEmOUJhZLE4oV8cWK2ELZ2XxJdJ44Kld4OltwKpsfmcmLyOBGpHNOnGeHZjBDzzNDzzGCzlEDU6iBSZSAJHJAEtk/gYLA9jDk/FIRLI8lkY8mko4kEY8lEI/FEPxjhkNTKSczOMdTGMEpNAS5zMzMDz/8EITj0XbuQVFDj4D0SCQSHo8nkUgmJydBZ2q1WqFQiMfjGxsbm5qaOjo6cDgcg8GAvTvQJzxDEZFApuBKNQK+iE7jdeNEfmeaMqo1bWNrZP4yReAgSdyD3NUe5mIvw9NDd3fTFjop8wAYYNY6ZmsZtbaM2DE4ez3WXou11gxaavot1wZM1wZMV/tNlcD1u2YudU5d7pioaNOXN4+XtuhKGnQlGH1xg76wcTyvDgkzZtVoci5N5ZTN5FyYziqeyiicyCicOF+gT88fTyvQpeSok7NVSVnKpCxNYqYmLl0Ze04RkyqPTpaeSZKcSRRHJYhOxwsj4/gnkrmhqazgZFZQMiMwiRaQiHT/BISGIOrRpyH9k3yClfzx60cxw0fiRo8lkvySyH6JpCMJo8ei8WHpdF9UhRmWzgo/z0GQS0tLO3ToEEQsgfQ/hszBF9HoJTAUgBMtYgdBHBoa6ujoaPI1LBZLIpEgHa/RaEQKNU+BPFWGQef3D8tOJPVEZtFzajQ4posh8YzxPQOIM77ax1zsobu7kNy0o3XM1ka0A2bNI5ZGgqkRb6nBWmsG7Ff7rVV9lqo+S2Wv6UqP8Uq38VLn3MX2mfK26fK2iYutuvJWzYUmdUmDqrBeVVivKcRo8urUOddUmVeVmdXK7PLxnFJ9Vsl4RoHmfKE6vUB1rlB5Ll+ZkitLzpYmZkniMyRxmbLYDGlMmiQ6VRSVKohKFpxK4kUmcCPiOSdj2eExrOPx7OAkVlACKzCeGRBP94+l+cfCK81HHanHzlICEqkBCUgP9PWABGpoCsMvhvRhJP6j08MBsZTQVFpEBuNUNut0Nud0Dvd0jiAyy+eJJycnf/TRR7DiBuLOj4Ec7PUFgWN0422QJPDc4fHGkEyXSCRcLpdGo/X09LS2tjY1NbW3tw8MDODGSAwh8nA0CpndPywLjm4/k8eNyqUXVXMGqcZRwVI3a22QfwPLRcBDkWsesTQNmxsJpga8ETM0h8Ear/VZqvus1b2Wyh7zlU7TlU7j5Q7jpXbDxVYkAnKhaepC48SFRl1xk7YIoymoU+fWqHNrNTkQ0a9Sn69UpVYq0i4rzl2RpVySJF0UJZQJ4pHOj7vAiynhRhexzhQyo/IZUfnsU3msyFzmyWx6WAb1xHnK8XTy8TRy6DlSSMpYcNJYUCI1OI4VGMsMPMvwj6b5R9ECztKRfobuH03zO0NFeGMCJTiBAq8wCIonB8aRghIo4efZMQXSpAvKxFJJfIk4+YI8uVxxJk8QlsFCZC4hIeHw4cOfhByqDw8OgGgcPAJenVwuh/0OYbM8uCZ6MrqiDszhuK+pVCoulwvq9GptQ11LV0tzM3ZohMybDontOnmenlomy6ygF1yhYIamewW3sYJbOP51LHe1l+HppMy3kxwAGwZnwAzO1mFnagdmq3vN1d2Wyi4zwhjbDZegt86W+wJXpfUTRfUTBQ0TeY36nPrxzGu6rGvjmdfGM66Np1WPp1bqUq5oky5rEiol8VdEsVcEMZd40RXcMxc5UeWs02XMyAuMkyW08GJqeDE1rJR+vJgWWkgJziUF5Y4FZo0GZI4EZI74ZQwfO084mo73TyYFxTGCzzACo2j+URT/U5TA07SAaKQHRdEDTlMDoigh8eTQOGJI7FhoHPF4POl4EvlEEiUmT3C+Qpt5SZdSoogvFKeVK/PrZ/LqplPKFGeyuSczmAhycXFxhw8fhhgKRPSnp6ctFovT6YR9NmDdIlT8g9uAxlDQckpUTwKcB+POBwF+6BiMq1QqZXL5PbiRnu7Ovj4cgaKLPI8/lc1JKJXkXxFcqOeVt6ouD1iahp0D7OUR8a1h0U0sd3WItwYoNo9YagamKjt1l1p117qNV7sMlR2zl1umKxonyxsnK5qmLjZOljVMXKgfL63T5deOZ9bqM69OnL+qP1c1nlo1nnpFn3JJn3hpPO6iNuaC5myp+kyZJKpcdLpMeLpMeKpMEHmBH17ECS9gHy9kHs9nhObRQ3MZoYXc0FxuYA4zIIPul049fI78QcLIR4ljH6UQD58jHU2l+MWTA8+QgqLISI/2vUaRg86Sgs9Qgs9QQs5SQs9SAk4NBcfiw1NIMXmctAvyrCpdQc1k1mVt+kVFVqW2pHG2osNa3m4pbprLrh5PKZPFFglPZ/vsXHR09JEjR6COHzjefcih9ZboslVYgQDiBWvj4Ekh6AM5QNoeitODB1HkpAqVVK0VCfkkEmNoRHUieTAyixdXKsmrFJXWC8raNBX91nqCtZu2AGLXx1zsZy1huasE4fqo5Paw6OYgZ6WPulTZNlnZOlXZOnmlZeJy08TlZv2lZv3FBm1prbKgUpp7SZRVLcusGc+q0WfUjGdcm8i4NpFYoYopVZwtkUeVSqMKZacLZIklk4nFk3EF4zG52qhs5alMeUSaNCJNcjJdfPKc5OQ5cdg5SXA8PyiG73eWffQ080gE42gUMyhBEBIrCorl+8dyA89wg85SQmKGj8eMHo8dO54wFhZPOhFPCo0bhYNhiaTIc9TcKnUJZvJyh+lKh+lCw1TeVU1utfpi82z9oKtlZKV1ZKUB57nYYSppnsm6qk0tk8UVCk7nsBGZO3nypJ+fH6g7sEwPIicQCO4LKMP+8gAYbBgml8th4/vPuM4RlVc0wyCWKcQqlUIuJZEYPThJWAr2VJ4gtlSaUykurheXtOku9jmuDZrbSY4B9jKYum7aQh9zEctdxQtujEpuj0lvE6W3OepdqngDR1vpwFrrOierWjRVjerLGFV5jbSkSlh0mZ9XLcqtUeRUS89Xis5dEqaW8c9ViFIvIiYtvkwQW8qLKeTHZEpj0+QxqfLYFFlMiuzsOVnEGU7EWe7JGG5kNDcyhhcRwwuP5YefFYSd5Yed5YefEYRF8UJOsUJPskNOsZBBBDPo9HBwTO+JhMHIVEJ0BjEmhxKXR0st4xTWqKu7TA1D8y3DHgzWXjdgvdpnrOqerfT1JoKrh7qG5d3pZdzADDkquwwV7caS5umcKm3qBWlcIT8qx2fngoODAwICUL9KJBLdhxyABHU+fD4ftgliMBiwwBV2SUS3N0dzpw/K1oNH0NAMfCRRqORanVqlIBLpnYNCJKORLYgpkWdXSYrqJcWt4+X981cHzG1Eez9rCexcJ2W+ZdQK9KRl1CeOrJVR9gqRuUZir1E4Nyjcm1TBTYboNpV3i8haJVA9Q6MLnUOztd3KKy2i4mpmRvlYagEuMXcwPgcbnzsUl4eLzcPF5hISMkkJaZSEc5T4FEp8CjkumRSbRIxJHItOHDkTNxx1lnAqhnA8avB45GDIqf6giN7A8N6A8O6giN6I6OH48/SMUnHhZW11x0wT3tI2bOsiuXppi4PM5QHacg/V3T7maEYqJAyYwbmr/VNVfZNXe6dqsbNNBEs70dlFWeimurup7k6yq53obBp2Xmqfu9A0lVOtPlcu+Rg5Pz+/oKAg9OEDAoHgPuTQNaso14dnGpBIpMHBQSKRCMFooVAIe81+9gefoQ4D2EWJXCmWK6USEZFI78crwlKHInOEMcXK7CvSonppcau+rN91ddDSQUZMXT9rqYvqAje8jWjH4Aw1/VNVXeOVberaNlVrz+TAqIXCXuFK7/CV9xjCdbboFld+R6DYkCh3FLq72ulbesOdSePmtHV31r6vN20pp++KNDeYEg+RbcPTDB14VStW1tArrOvgVrfQqxqp19pYNe3sui5OfTcf0yPA9ImGWHMjPCtV5ubpbkhn7qnMW3r7vs62r7V41eYdpXGHp79LVtwiSa4PC5awnIV+hhPH9fQzne1jxoahyboBXU2/tmZgsh471TRsbBk1t4yam0dMLaPmHrpriLfSz/K0jlnqBg2XOmZR5OKLuFG5DERbHj16NCgoCCotQbBmZmZgVw2wZ59EN8CYwXK3sbGxYV8jkUgQSANKiYINoKIZPuA4qMIEgoNEv+RqoYA3Okrpwct+L3PFiqzL4uI6aWmbvrzPeW3Q0kVyYdmrA4zlbspCD8XdgDU04kxNeHPDkLF+YKa2Z6qmRVfTqr3m6zWtzvRTmwAAIABJREFU2tr28ZaBuS6sZYDoGmasULjrbMkNqWpNM3lLb7g3YdmasGxO2ramnNszrt05955pad+0sjd/e9dzd3dx07uys399b//G/v76PvK6htSz7i1uet1396zre6a1/bkV7/TizqR7a3J+e3J+R+/YVBpvCXQrNNk8SbSI5632kl3NQ4aaPv3VTm05RlLeKK1sU9V0jdf2TtT2TmEGZzG4uQa8oZFgbCQYm4ZNnRRnL8M9wF7qZbjbSTYMzlzRhURTc6o150plCfnCM5m+6Nfhw4cDAwP5fD5aSQdb7NpsNljF+sDC0QfVnhwQkkqlbDabQCB0dHQMDg5SqVS5XK7X6yHbju63jRY0HGSqCE+Rq0UKBDnSGG1wWBWeNhSVL4krkWdeFpTWiy+268v6bAhyxIVB5mo/bbmLuNBFXEDybThrIxJNNtT1z9b2zVS3T1W1Tl5uGr+I0VyoU5VckxdUivOviHIvC3MuCbIreNkXKVklhJwLhJJK8tU2QRtORWAZyVInR7MoN9wcn9+eWdpzrO8t3PZ67u4tbeyv7Oyv7u6v7SKvyzv7S1t7i/f23Pf2rLf3p5e8csstlsY9JjBjmTNtOE1Nq6C4ipxVhs8qxudeohdUinMq+NkV/PxKcUmN4kKtsqxeVdGovdKsr2qfqu6cquufrR+YwwwYm4YsLXhb64i9k+Tqoy4Nslb7aIvtow7MkKmiG0kQ5lRr0koU8bmS6DQhInMffPBBUFDQwd2yHwM5kCGQM2CYNBptYGAA42uw9yE8YgTdvRtuCOBECoUC2S5Koxcp1Ai3HKMN4BWhif2nckVxJfKMK3xArvyzIVfVjhDLS03jFxu0CHI1iuJr8oIqSXYF//wFVmoR7XwRJauIkplLTMsmJGdgE8/3nYzFhERfDY6uDIyq8D9V7n+y/EhA6RG/0sPHSg4dLj50pOjDw4WHjhR9dLT48LGSo/4X/ALLjwWXHYso848sCzxzKSSmOiymLiK+MTa1OzFtIC2bkFlIzithZBbTUgqpyC9eYOVeFhZdlZUiyKkrGnWXUeT65v4IOYK9c8yHHHO1j7rUPuL8ROTeffddsHPA8RQKxWMgd3BFD7pIDlgP7LMxODjY0tLS3d0NFewcDgd9qDwEVpDMu0TGk8hFQj6ZzBwaUYUmDTwp5AqqJHlXRDmXBJnl3Iwydno+My2dlpZOS0kjxSUNn4kdPJPQH53QHxnXGXa2JTSqMSSy0T+42c+v9ciRpg8/qH//vdr3fnP1t/997f33ag99iDl6tDkgoD0otDUoAhMS1RB+ti0qoScmFRubPBSdgI1PGklJI587Tz2XRk3PZ2aWc7Iu8nIvC/MrxYXV0ieJ3K9+9avg4GB0G3O5XP4YyIG0gQChYgRwymQy2HBKr9ezWKyenp7GxsbW1tbu7u6hoSGwi7D0S6uflGnGVUo5iyXAj2lDEvoicwRPROYAOZC5c0WMrFJBXrEqPZMXl0iJOjt2+uxwbCLxbAoxKg4XfrovOKIjIKQt6Hh/QMjA0aCeQ0e73v+o7bcfNP/2/ZbfHWo9dKzjWFBfYCg25ORg4In20JNdJ6P7zyQMxyeT4s9RYhPJsTHk2ERKSjo7K0dyvoCbXszMusgD2AqqJCU1iicmc7/4xS9CQkIgXAI68zGQg12iYHMMoDnAX0CLgl+BBr0UCgWbzSYSiQMDA62trRgMprW1dWhoaHSMQqQy2SwGkUjHjqh9yAmfCHKF1dKDMpeWx07KYiVnsBLTmXHnaDHJ5NNxIxEx+LCowdDIvsDwTv+wtsMnmz6MaHj/RP1vQ+veDb72m6Cr7wRWvxt07behtR+EYw5FNB6JbA2K7AyJ6D1+qj88aijiLP5U3HBMMjn+HC3xPDMpA7l+SjYjrYQBRi6/Upx7WfiEkQsNDYXH7kAx+dzc3MLCgsPhgG2z0e3s7zNmIFvATYC0HOSTD6ExcoTIQANWCf4Gm80eHh5ub29vbG3HtHY0YOq7uwfHqBOnMkZO54mfCHKozGWWc3ymjpGYT43PocZlkaPPj51JGzmdSohMxoXFDYZE9wWe7vKPaDt8sv6jk7Ufhl19/3j174Kv/DbwMtJDrnxwovqj8JojkXXHTjcER3WFnu49HjMQljAYkTR0KgV/Jm3kbAYxNoeckEdNLmScK2KklyIyl3tZWFAlecLa8j//8z9DQ0NZLBYsrJJIJNPT0/DkNtjJBnxtKK08+Oy3g5ihJSpoQOShyB08KJVKgdDCVpZCoZDJ5Y9RGEODA4ODwwTSeGjSQET2E9OW+ZVi1M6du0BPLCbHFY3F5BOicrCnM7ARaf3hSX3HE7uDYzoCo9sDTrf4h2H8TtQfDak5EnjtQ7+qD45Vfnis8lBA1ZHga37H6wJPYoIimoLOtAWd6QiJ6zqR1HMyuT8yfSAqcyg6Bx9bMBxfTEwqoZy7QD9/gZVZzs25JHjydu6tt946fvw4l8sF1i6RSPR6vc1mczgc8GRt9HnUEHQGNQjMHhwJWEV3X9D5IEifNAZPHP26XK2VqnVCAZ9IpA+Nao4/UYbyR8iVUZJKRuMLh2PycGeyB09nDEam9YUn95yI7w6ObQ880xoY0Rrk3xZ4rN3/oxa/D5qPvN9w+HeYI7/DHH2/4djh5sAjbSH+ncGhHcGn2oOj20NjO8MSek6m9J5K74/KHDybOxSbj08oGU4uJZ4ro/wFkfvxj3984sQJoVAI8iQWi00mEzwZHX3WjMPXrFbrzMwMPM4T3HMoYoB8OoSyPsltfyh44C9+/EA7pVqi0sqkYjKZifhz53BnCqRPSlv+EXKl1OSSscT80dhcQnQm9kw69lTKQETCQHhM//HTPSGRnUHhnYH+nYFHuv0+7PT7bfvh3zYffq/p8LvNR95rOfZBW8BH3cFH+4JCekMiukNOdZ2I7j0ZOxCZOHg6dTD6/FBsNj4ubzixaCSlmHSulPoXRO71118PCwuTSCRKpRLKJmF7hunpaZPJZLfbnU4nLBCBknW73W61Wo1G4/T0tFarlclkkGdAC4E+u/DBHg8AKgK5EpE5qfj30a/Q5P5T+U/GnyuokhxELr2EnlJATs4hJWaMxaQNx6QMn4nHn4ohRJ7Ch0UOHj8+EBLc5xfYeTSo4yP/1g+PNb9/BPO7w/W/O1z//pGGQ34tRwLb/UK6AkN7Qk8MnDiOPXly6NRpwpmzw9HxIzGpYwlpY4nZxORcclohJa2E8RdE7vvf/35YWBjE++G5fGj9OeyAPzExcfBZfMgOdr4Gz1A3GAyzs7M6nQ5F7r448kOlDcwhbJIC9hWJp/hkDomhkBgEojY8dejhDIXkGmT5YihkVxfZhcRQ8JbGIZMvhjJT+/+3957RjV7X2ah95ZZmK7ZXYkW5N8vJt3J97Sw78UpsTxGHvYK9ASQI9t57A0iCIAiSqAQBEizobCAJ9o5e2RvY2zSNRprGDoBx/tz14sy8ooajSFEURc73nXUW5uAlcDhzntnn7LP3s/fmrZCalojshUrmbEW9oYyqw5I1RSRFAUmWR5jKrhjPKh/NKB1JzxtKzR5ISpfGJ/fFJfRFRUswaEkEsjssuCPEXxwYwPcKbXAJpzuFUh2CyXcCa+wCSHYBpDuBtY4hFJcwmltEvXdYY3CQEBnQHh7aFYGSRKF7omN64hOlSSnS5Iz+1JyhzPzhjNKRzDLoSpdHmCogyYprlDiKtpymxzONhIa5N9tQ3nQTJ7RC/M/8GmNGqSYhXxkNbCh//dd/jUKh4ARE17c7wE7XarULCwtbW1t37949PDyEpRDUVjg4OAAlhE0m09zcHKxAAhSBSRrI4lUeO5x28WU1SY1BptSqZNOSbqm4Wx+e2h6WNRGRO5WBHy0jy6vblkjCwzoRZNYTTTwSjL3Pke419e3Y2AwbjI41unCVIlwiC5ZILfPExrnKBmNFvR5H05RSVIU1sgLSdG7VRBZ+JLNiKB07mFI4mJIrTczqjUmXxKR0YhLF4bGisEhBqG23DEA1IUIbvEKY7oF0Vz+asw/FyZvs5E129qG4+dM8g+sRSJZPWGNgeHMQuiU0khceLcTEijFJ7TGpXQmZPYnZ0pS8gbSiwXTsYEb5YBZ+JLdqooA0XVQrx1LVZXQtnmkgsGZInIWa5sXXrV+du03d+23S+/zB97n9D5q695nirSrOYhljtohkSC2WxaWNJ2UqIOvXVeRgZf2qoLzS5D/+02AwLCwsrKysgNqL+/v7ADZwLm5vb+/t7W1sbKysrACvAvCdfuxBVUFkE7iUDxz4o9LqZUrt9Pj4kHSU36lGoBvCMybii1TZFeNlZDmxeQnP36GLt1sG9oXjD9uGDpv6dmzIbTC71hkdazTRkg25RVLLHJEzW8k2VNTrcDR1KUVZWDddUDORWzWWRRjOrBxMww2kFEsT86VxOZLozM7I9HZ0ihCVyAuNbwuK5vhHsv3CWd7BDYjABg8/hpsPzdWL6uJJcfGkuHpR3X3pXgFMnxC2H7IxIKIxIKoxJLYFmcANS+JHpIqiMjpis7vjc3uTCvpTS/rTcAMZ+IEswnBu1VgBabKILMNSVWV0Db5BT2g0kprna1oXriPX2neP2/9ANPpYNPq4qXufzFshNM4RmIultcbMUkVC9gQmfghC7t1330UikUA9uQrYa2Ow7mDFASEaBKbOz8+vrKysra2BekL7+/sHBwf7tnZ4eAjKDG9vb5tMJjibOqzXwPsqmFyjNSo1hunxsdHhSUGHxsGb5IYUoTPGi2qUlfXq8oYZXMs6ibfa2LstHH8oGHvQMrDPke42dL+G3BKJs/Dvy5wNuYGvCLn/uMw19xy29t0D4SyNXXs0oam6eZHIXsonqPMr9NFpI84eTRByf/VXfxUaGgqsX/AudxU2+CEwFoN9Fbb3g/s4UC/n5+eB/WXX1ra2tky2BqQQVEBdXV0FBcSBYgkE7qW7Rzej0c+qZNOD/aMdEqOTf91vneh2XuyIdCG2drq6ZQnbZKKJt5v7D4Bzjt2z09S3B7hfEPEL2i2Xod3ys5CDdsvirwy5of/obtnSe1c89mHX1DPewEN25269eKuWu4yjG/MIar8I3m0Hiosn5xPIXbeJXMUP6BSwTRKYicHqA70U+N4AB2l2dnZxcXF1dXVjYwMchJubm6AUKkjqD6BdXV1dXFyEFVSZXK3SGtVy2UDvcIfE6B/V5BoidPBtdvAhugcS0RniAuYSWbDJ6d0XDL/PHbjfJNlrkuyxumANZY3KX6HwlkmcRWLjfGXDzJVzTg7OueyKscyK4a8KOXDODWVXjL065xRXzrlZ2zl3zcvTucvtf9Dcc9gmvS8afdwmvU9v3yyha0OThHZeNXbuZFc/TnC45PMi95raAuv9wBsAh2AB0QG+AlCZQqVSzc3NmUwmcEEEeg04DuG6DKDq9/r6+vzSyrRCq5iaGu4fE3XqwlLEUfly/6geex+CnVuJg3/1rUBGdF5fddN89/TzYb2lc/IpR3Jw3T93BTkDjqYtpagLa+Q23XLyvwu5PMJkAUlWVKvAUjVldB2kW7JmSZzFN/jnOndbeu+yO3c7J5/2yF9gqWpXZN2/uJfc8a25413nGsAKiZLEZNmYst///vcxGAyc2+6qTQvIHIBtfn5eJBINDQ1JpVKAECBAgJg5OKgVYAnoYiCxBiy4i4uLy8vLa2tr6+vrW1tbOzs74HYBKhBDGTUP7u4c3N8yrQ1JR1v4svAUcUyBCpM1GRzX4hNGcQkh3/Zn/ItjqaMvAZ3KK65T0ARrTd37HMlBvWizoX2bKd6i8lep/NWa5qWrLrpymuGqfy6leCC5SJpU0B+f2xud2RmRKgpL4ocl8V/TUHxD2d7BLE//elcEzcWT4uRe95kaCjpFGJneHpPVFZ/bm1wkTSsdSsdCdsvsiokCory0TlNG1ZfWaXAUHYE5R2pcIjVCtxca38QQbjCEG3TBer1ok227FdCFpjziZGAM+w6i4reuJe/5VrqFMwPjheiM/tjsieiMz43c0tLS/v4+CoWKj49PTEwsLy9vaWkZHR2dmZmZnZ0F4ayAxAeHfcBqCDB4GgyGqakp4IuAb/qg7gq4LG5A2Q53NncONtfWBvtGeJ3q8LR2TJ4sDWcsrlVlVfSj0vmeUXyXYJqDT+VtjzJ770qfCDoqqS2HMEYXbLT03qMLNupal6ubIKZedcMSkblYQZ0pIqoKCApsnb64Wp1bMZ2JHUsrGUkvGcnAjaSWDCbk9cVkdb1Rt/wCyEWkiqIzO2OzuxPy+pKLpKklg6lFQ2nFw5m48Ty8rLhaja3VYWt1OLIBT50jMiFqIYm1VNe6TOYuszp2WnrvVjfNJxX1hMRzHHwq/9kh76ZbqQeS7BvN9E1ojMzvyyAosip1iUVyTLqNb/mZMgfE8dmzZyEhIYmJiRgMBolEBgQE+Pj4REREVFVVSaVSOG8N8DYA+h6wagIhBmZl2A8OX/ZBaj9Q6HZ37+7h/Q9My8tdnb2tAjkqURhbpEooVmcRJohMHbF5KbtuFp3eHZ7CC4hmO/oQb7ri3vMsv+mK/Rf7AkffqlRsfxUb8oNXUGaJzKXaxtXqhqUKymwxUZNbLsurkOeWy7JwE8n5g4n5/UkF/Ql5feBWEJXRcf1W8AWQQ6cIMWniqIyOuBxJYr4UErvi4czS8eyyybwKeSFBVUzUYGv0uFoD+BvWNa3R2tZrW5aq2LOJhZJb7thf3sj4jVPhe55l9t54v8j6uLzOhILumILuIqa2lDWXQ9YllcriCqejsj+fzOl0uuXl5Q8++CA+Pj4sLAyDwcTFxUVERISHh6NQqLCwsPDw8MjIyPT09OrqapFINDo6Cqrfgis8zOS8GvwPbM3wExA7YpidX1rdWJybGxmaEHfpkUnC8IyJ2AJFQbUcT1MRmhaI/IPa1q0KujEDNxKRKgqK5vhFNPiE1zv6VNt5Vr7nVmHnWYlA0QPQTWFxgqS8gbwKeVmdEU+dKyZq8vGKLNxEZul4Fm4iCzeegRtJKR6Iy5FEpreHJwu+lN0yIlUUk9UVlyNJKuhPKx3KwI1kYMcySsayyyZzy2UFlcqiKnUxUVNUpc4tlyXlDYTFCXzDG+y9K2+5Y3/nUmzvjfcKowbFNobEc2Ky21NKpblVEyTOQkP3LkGwnM8wZBBVKWXKuCJZRKaNQfSZMmcwGHZ2dvb39+vq6nx8fLy9vcPDwzEYTEREBBqNDgsLQ6FQ4baGsjU0Gh0VFUUkEjs7O0EWMeAWB+cl2EXhxCgweBDRVqGZlKkMGo1BM9s3uBiaKIjOV8YXqfKqpivoysrG+dJGE5m709r7sGvyhWj4CalxKR07HJcjSSsdSi6S+qKZ77nj7TwrnRG1d1yJtx0q7ZyqnL3qPAMYwRFtUSnd6YVjeWWKQrw6u2wiMV8an9sbm939aTfx/6TM2W7ig7kV04V4dVbpZEJWPzq+IwTDdfWmuiAobj40Zy/ybYfKf75Z+J5nuaMvISSek4UfySGMJRZKCkjTdMF6x8QT0ejjetEmgTNXwjHiOEu5FH0CdhrKVpRnYxD96Z/+KQaDgePnrmsooP763Nzc/fv3FxcXxWJxYWFhXFwcGo2OiIiIjIwMCwtDo9EYW4uKioq1tcTExMjIyKioqIKCgsbGxt7e3vHxcXB5B5Qv4LAFpktgelZqoFx7WpVSr53t7J0JiuXGlmgSSrU5lZPYOhl0E+dssHrfb+2739J7r7Xvvq3fo/JX8UxDDn48hzBWQJzOxA0n5kjQ8TzvEJoTosreDW/nWm7nUmbnBL3au+NdvUieAVR/FDMwvAkV1RaRIIhO6giP5YdGtgRjmgPDmwLCWf5Ilk8QC+HP8vSrd/Oku7hTnVzJTi4UF3equzcd4c/yC+IEoDgBKFYgmhUc2RSKaUZGNYfHcaOTReg4XnBkkx+y3iuA4uZX4+JDdPYhOHpV2nuU33Evc/GtckIQnH0I3khqVKowq3yolKzAUlUlZEUJWVHTutjSd8jp2W/uPeD2P4CsXz02BhF/uahhNrtWn1ahicuXRWTYZO473/lOZGQk0ADfWJRWq9WCai3gfra1tbW6urq0tNTd3Z2RkYFGoyMjI9FodHh4OIAtJiYmIiIiKioq0tZg6UxMTMzNza2tre3s7FSr1QsLC6CeDDB2QxwIjU6tn9WoIdqDuNsQlCQArD2Y+1XO27bxLQ+Eo4/4Qw9abBZnKCmeZJcuXKtpWcA36MqoyppGfXWDtpKuxNVNlRDHC/BDyfkd0encoGiGR2DVHbeS9xxK3rMrc7DHOzsT3d1rvRAUTy+yp1ed7ZUMXl3d61w8al3doO7iWuPsSnJ2rnFxrXFxq3FzI7t5kN296ty9SW6Ialcvohui2g1R7e5NckdUu3hWObpU2Dlgb90puuGUe9sr1xOFD0tmppSK8qqkWMoogSUjt+lofGNNs7qCOU1ga4icGbJgqaF7q2XgkDt8nyPd5w7fh5LaDt+HSMA21l4pe9HGt9RArL1Mm8x9JnLgDg7sXnA1g9XV1fv37+t0OgwG4+PjExAQgEKhMBgMOPni4uIiIyPh7RRpa8nJyWlpadHR0b6+vv7+/rGxsSKRSKFQzM/Pgxv950Suuf8AxBWAmFUoTtXW2T077J4dTvcOnbdYy9YR6IpqppreNs8WrjSKVps71vm9u+2Dd3vGH/ElBxTWHLZqKiFdHBBKc3Qrs3fGOrjg7jiV3rYvunEn/3f2uU6+hY6+ufaIrNtuGTddUn/rknTHK/OOV6adZ8Ztt4zbbuk33TJvOuf8zin7d07Zt13yHTxLXHzLECFEVFxDZqmkmqlmC1c6hu/2yd+XTDxoH4FylfH6txpEi+RWHaFehqdP1TSpaPy52rZZMh/iy9Z3bgCr0BuRewPf8jORAwkY5HI5nO5keXkZeFl3dnZMJlN9fT2QMwwGg0ajUShUaGhohK2BLRQIX0hICAqFAs8BqEgkcmpqam5uDmQSVqr1n0fmXkMOBKzWd27QxWsU4TKNt0hpnqW2zJE5xuoGLZ4qx9ZOFleN4uqmiPVqSvNsPX+psX21pXtDMLDXPfn+oPrZuOFkcvYc6jNnEzNH4zPPxmc/7JNt9spX+pRLUtWiVLkAddViv2ZxQLM8qFsd0q8N6benlj+Urz1Xb56pN8zKVbNs+Xxq4WRE/6xP+b54bK9NutHYsVrPX6I0zxKZ6jLyVDFxrJwyXUGV4WmKqnp1baOB2jrHEK5AAZvtpvrODWbXZkM3RL+/LnNfEDmQOA840lQqldFoXFtb29jY2NraWl9fN5lM8/PzAoEABFH6+vpGREQEXWmBtgZQBJhFR0fHx8cHBgaOj4+D8llQ5nal9oshB+KMAXIUwVJd82xd02wN21hJV5fWTBURx7G10yWkycKqsVz8UHb5QBa+L4vQk4nvTi/vTMW1p2DFCUX8pBJhZqWkhDpU1TxFFigaxEpOp7KtSyOU6tsHDJ1DM6J+nVCqFfRpuD2atm4Vp1tNbVcR2yZL6vszq7tSy0XJOGFaRXs6viOT0JVFlGRX9WQTpLn44cLK8RLiFK5GXl6nrKRqKqkaAk1LZBhq2LOUlkWGyERvNzE61gFyzK7NLw052AgCTM+A+aPX64EF5N69ewcHB5ubmwcHB/fv39/Z2dHpdP39/Xw+XywW9/T0DA8PA2waGhqysrIwGExiYmJ0dLSfn19KSgqoAAqoSl9M5liSbYAcZHRuN9HFa3XNiyTILaKvrNcRmPqqBkM5TV1aJ8+tHE3HSpPyu5MKu1Jx3cmlnYnF4vhCYVyBICaPH5ndikppDIijITA1Hsgqv+DagMBaX79qL0Slu0e5qxvOzQ3n4VHuhaj09SX6B9T4BkEf80RX+0aTQxIbIrNbo3O5kdlt0bnc2Hx+fKEwsUicWtyThR3MKR/Nr5gqrpJha1QEurGSZsBT9VX02brGJVqrjeAsXGV0rDO7NlmS7cbe3c+L3FtvvRUZGQmyusJuARgtMIAty8C0r1AoZDLZ7OwsZPhYX9/e3gaDjY0N4BzY3Nzc398H7BVgqwTlYvb29tbX17VaLagR2d7eDqp7AvqeWmv8AjLHkmwzuzY/4StonKtmzwLk8AxtOU1dRJoqrJ4sIE7kEcZyK0ezcUOpRdKkvN74rO7oNHFkihCTKAhP5IXFtYZEcwIi2f7hLN8Atq9Po5dXg4cHw82Z5uJEcXWmQQRnT6aPT6O/f7N/KCcwnBUU1YiKaQ1L4KITeZhEQXSKOCajIyFbkpLfl1bcn40dyS2fzCubyi+fLqyUFxEUWJKmrFaHpxiJjPla1hKFs0Llr1BFK/R2038YuW9+85uRkZHACALs/a/Bdv0t8BiAKGSQghmYj2Giymsec2Dlgq2UYLCxsQG2X3Ar10EJtr/IOXfdy1PLWSA1zlU1GCrrdeU0NY6iLK6ZLiJN5VeN5+BHsiqGM4tH0nPHUjNHktIG45OlsQl9UXHdEVGd4RhRaDg/CNkWENLiGdTsHtDi6tvkgmA7ejY4uDEdPJiOng2u3o1u/s2eQW3eoW3BodxgFBeFFqIjxZjoruh4SVyiNDG1Pzl9KC1rNCNvPKtwPKd0Ird8qqBCXkxQlRI15bUGPHmmijZfzVisY6+QG18hJ16r79xo6N5iSbY/r8x9MeSAfw6+/AGfzurq6traGhC7hVdt/tMbnDQfOB++FOQovKV/31cA8VCKx9NyJpIzxhJSh2OTBqLj+yNjetGR3WERnSFhoqBQvh+y1RXFckTX2yPpdqG020HkW4F1twLrbgeR76BojuEMZ0yDB7opEMUPDhUhUZ3hEZKIyN6omP7YhMGE5JGk1LGUjMn0nOmMoslM3Nhn8C2BzH01yAFjFWwTATstTDOBwwlg+gK4UQBJhV/BNe4q1++L3QpekzkKb6W6eamKvUBgzpUzjDiqrpSsKSRBJrRciEFkiwgpGU/JH0uOGrwGAAAgAElEQVTMHk7IgKjp0Um9EXHd4TGdSIw4CM0PCGvzDW9ywdAco8h3ImreC6++iaq6gay8gSTcQlbZoUkOkXXOMVT36PqAMG4wShiK7gjDdEVE90TG9sUkDcSlDCWmjyZnTaTlTGUUj2dUjGTjx3OIU/kkWWGdspSqwTH0FUwjgT1X3bxY07L0crf8apCDqx3DJFcYD9jHfRUScHwCaK+/gt0Y8up9vpv4a7eCNyJHZC9WMucqGDM4qr6UrC0kKQuqFbm2WJ7M8rG00pHkosGE/P647L6ozO7ItC50ihiVIAyN4wZGtfhjII6zRzjNFU1xQtY5htTcCSTaBVTZBVXdCap2Cq11Cae4Y2iISIZ/RHMgujUkUoCMEYXHdUQkdkWl9MZmSOOzBpJyh1MLRtNKR9PxQ1mVYznEifya6UKyvJSuxtVrK1iGSvZsdcsCqXWRIlyGzrmvBjn45INhAOJ1VcEBP4JRgfdV+LsvGQxaLUxoV6g+jw1l8z+PXGrZUFKpNL5IEpPfGZkjfslxTmkNSWoOiGP7xTB9ouoRIfXeAQ2efgx3b7qbJ9XFg+LqDjGIPHwZiACmbxDEIPKLZPtHs19ynJP56FRhZFZ7TE5XXH5vYpE0pWQgtWwwHT+QVTkCIVc7VUiW2ZDTVLD0lY0z1S3zpNaFz4HcemXrEo4F2VDScRBr72Xk47e+9S0MBgNW9urSX13i18bgY1fBgJ9cfQhDcvWnV8fwtOChTKGRq/VK2bRCppFI55EpovDsyZgiZRZhoqh6AsvQE/i7tE6I78UbuScYe9A2dGhjEG1e5X5B59y1yEcoIuRKXIGNzSBNLOiJy++KzmqHOM6pfFRyW2hCS2BMo39Ug28E0zuECbhf7t50iPvl8ZL75eHL+Jj7FQlzv9rCkl9xv3K64vNfcr8g1l4FxGZ4g0+cDXziixThElW8SBOv1HeabEHiWxzp3qto47uNvdu0Dog3VcacL6TMZOP1cbmy0Oh+iM3w7W9/G4PBwG5ueDW/+oFCqVWo9VqlUqMyCDu0qBRRXJEmpVSfT5QVVU8UUzW41g16+0vkYOLeG7hfb0LuKsc5HTv8lTCIBj8Px/kacpsc6S53+K5g7AF32IZcu4nQMl9MM+ST9DmVuoRC2Us2w9cHOaVKp9LNGLUao3auVaxAoJlR+fKUUn1e1TSuTlbBnoP4lv/7IUcXmSqb50rpxlySNrNclVSsiEi15UP5WiGn0c8aNGqjdk7UqfudS5l9QGtMvryyYY5Qry2haSHkoN1yjzfyQDj+qG3o3nXWHmCnvxYn/lpcwddK5j5bt+xYr2pdyK1WFZKNRbVz4amDrr5tX6/dUqnSqXUzarnMoJmVSOfveBH/xZ72nicLmcjNJ4xWcRarePt08R6nZ58/9EA0+og7eJ/Tu8/q2m7oBHEFa1Thy7iCPyzkaKJVusjE7NhkdW2zu3ea+w54Qw+Eo49suRl2Ge2bZKGpgrWYVDLujebecKLYu7O+Xsip1HqFWi+fnDBq5yT988Gxba4hwlvuzNseFY7e5egMcSV/l9EJkb34g++LRh9z+x+8mbX3B3XOXWenv56bQbRZUq/1ieL8xhl/253iEcpFJdhyyv7gBz9Ao9GA7Qpysr2mmwCjMEzBA1e31z7zpbxVanQa/axOpdIqDe3dhtBEQUjyMCKs3dG3+o576W0E/oYvLRk7TBeahCMfiEYfC4YfNXbtNXbtMcVbdKGJLlinC000wRqVu17bvEJgzmHJ2sJqRQFRjiVr86tkmWWjgB7yle2WgLhni+WZLiIpAXmwtE5TQTeSGpeo3HWGcAuQ9QDrsF60yRRDCV+4/Q/axz9q7buHparD0rg3EGV3/GvtvOuc/JjBsT3RmZOQzH0mcjD/Fdyyr17UvhTA4EmuIxdbqI4tUISnCPzQNKfAmpu+dDtEtb03Pii2qYSsYIq32qT3WR27rI4dVscOU7xN5a2ROIu1zVAgFtgwK+hGwLfMr5LZQrDGQKj4V6NbZuBGssrHrsaJl1H1eMYMSIZS17JKaTPR+C87XbDR2LXH7X/Q0nuXyl/NKB9EhNNuuWNveuEcQ2odAymBcYK4/NGYnImXGsrnQQ7OuXGV8AOv+Jc1uI4cJns6vXymnGHMrxxBpUJ8SzcUwy2o1iWAdMsNd9MVGxDNxtG0rI5d/uAjumCD2DhP4iySW9dITUsE5lwZVV9Sqy6sVhSRlDbkJjLLRtOxw2mlQ18NckDmAHgFRHlhtQLkQ8EzZirrZwnMuaqGeSpvrbppgcJdbezaJ7et5FdNOfgQ7L0rbcyiKk8k1S+mISChORk3WlQ3k189E18w/R9ADtypgfDBAThfFmDwPG9ALk8WnSfLJUzVNs5UcRaT8arIjL7Q+DZfNNMzhObsVwPIeg7exMCopsyy0Qq6saphHkpr2TBPYM5BdWkZM+U0Q0mturhG9Qq/l5S9//pYHij1UHbFRG7lVAFRXlyjKqlVA45zBd1IYM5VsxdrOMsVdGNJrToxX+qFpN10xv3GvtjBm+jsV+MTXh+eLIA4gMX9ubXyCtYilrGQWa6OL5h+eZ/7TJmTyWT9/f0gkBy40+AzD170L2VwHbmIrKnYAkUuYaqMKsez5/BtO7Utm1TuenGNKi5HEpXR4R/J9kLS7BFVv3MsveVS5uJfi0DRfdHM0Pi2xHxpAVFOZC2QmpaKa1SldZriGlVu5RQ45L5Kmbt6zoGdIAc/GZvdHRLbApNFbzhhb7uWuwWSA6OaMGni6MzOtNIhHEVH5a7Xt+/W8FawjJnsKlU6TpFUrIjNnIbOubfffjs8PByUZwFW/9dgkMlkEolEJBIJhUJQnxE2a8GfvGrTAmP4R1c//NrHrn4Gcq6+0lA0qpcaSlSBIh6ryauaxtbJcExDaZOJLNxlirc7xp+KRh+XUtSp2P6UUml8XjcysdUjlOLgQ7jjVeGEIDghIHKci0+1qy/JI6AWGcWJSRGnFUlzbe7pzPLxpEJgcZZGZ/REpXejkzvCEkWhcbzAyFZ/DMc3vPETMasIiqM32dmT4uxNhWJWg5jeISzvsEZ/DCcgsjk4pg0ZLwhLEkekdERnSGKzeuNz+hMLBpKLhrIrJvLx45mlAwnZXZhkPjK2GRFCcQ8gufgQHRF4e49yO7ey3zgWuQSQ0Kl8KFirciKzYjijfKiudVk8+pFg6AMa31TRYKxonMMyZnNrdWnlqrgiWRTQUH784x+Hh4eD5Odw6pPX1lQul/f19bW3t4tEIihZkEQyMDAwOjoKqrNed/oA/fM1nGB/AnD6XBfcz+MroHXs2u5zD0WjH3AHoPscqXmewDZiqar86omsyqEMnDQuXYxJ5AZFMhEBtY7u5e85ldo5lTq6l7t6V3n613gF1HoF0xChTT5hLQERvOBoUWhse2hse0iMOChKGBDB8wlv9UZxPFBMjzCGG5LmEkxzCqI4BdU5B1FdgqluSJp7GMMznOmFbvAJb/ZDtwVE8IKihKGx7ci4DmRcR0iMODBC4Idu8wlv9gqheQQRXf3wjgicnXvxLZeC99yKnHzKfcPJEUmcpLz2TGxfYfVEEVlWRtcQm2bJ3CWaaBXKtQfd5+Bce+uE1kUcayGHok/CK6NLZWF5Nt3yJz/5CQqFAtRjUAf1Ndg0Gg0IN+3v729raxMIBCKRqLW1lcvlikSi3t7ekZGRyclJkDEYeN1AdCSQNhiwz1RKPydyr9lQQPr7+s4NinC5pnW+utFQXquoomhqGAYSXU+kaitqFLnYwdgUgW8Q2c6x5F9uZN20L3L2JjkjSE6e1Y4eREfPKujVg+jgXnXHtdLOteI9lzI7RNkdb6jb+1TY+5Tb+5Q7+OId/fAOfuUO4Il3ub17paN7lZMX0RlBcvWpdfGugSd08CDYu1f+zj7/N/aZLr5lIbGMpDxRHr6/hqWltczSWmbJTYYqhhJHmarhzNS2LVBFK8wuKF0uqJ1xlftFazcB5LIp+kSCMqpUhgLI/c3f/E1ISAjMyLu+YYKsXYCGPDEx0dXVxefzBQKBWCwGUsjj8bhcrkAg6OrqGhgYmJiYAGXOYF0GgAd77GD6wmv/Rb4YchzpfmPvbkP3FqCi0PlL9LbluoZZAlldSVZX0/VU9jxHuMXt2BNK7gp67vEkBw3clSqqrLh8MCVDgIyi+wZVe/lWevnjvf2r/IJJAaE1Acg6f1SVb1ilD7LCO7jcKxjnEVSKCCpDhJR5I8v9kJX+4QR/NDE4nBKEpAQga/1DSL4B1b5BxKAwclRcU1axhFA3zWiabevaFA/cFQ/cFfUfCvsPhP0HbNEqrWWO1KAl1qtq2Dpq6xydv3SVhwJRRj/J2vtU5P7+7/8+ICAABOx8mlgA9xtYcZlMJpVKu7q6Ojo62tvbxbbWbmtisRgchyAt6fDwMCj2Ajyx8OSwr/xLQa6xd5cl2WZ0rFOEy3XcxZqW+WqWsYY9W8OeJdYbKsgqXI0cVyMvrZ4urZ4uq1UQ6DoKW8dq0fNFi70DO+PyD9S6F0rNs2n1E5nmqVz7ocz4UG68L5/bnZ7bnprdmjRujOlNo/q1cYNpwrg+MbMxPbMtn9+Rz+/plh5qFx5r555pZ450hmOt8URrPJ5WfNg/tC9oX2pqNVDY2iqGBk9TlZHlJaTJIuJ4CWmynKIgMnV1TbNkzlwtZ4bCW6IIl+niNWbXJoDt8yL3i1/8ws/PD5YSeKODlxWGDQxA3hOZTDY0NNTV1SUQCLhcLpBCoa0BLHk8nlAo7Orq6uvrGxkZGR8fh483EA6iUCjgXwEGX0zmIKaerTM61kEnMPV4hraCrqmgayrrdRV0TX7VOJasqKBrSuvkOfiRvHJpUbkkr0icltkak8jExNBS0ptzisXFOAm+aqCGOkGtl/E7FoU9S+3S1e7+dcnwZu/otnRsp3dkq2too6NvTSxZ5nUu1dImiKQRHEGaX9KRlctPyWiOS2pITm3KzOHlFXcU4yT5FdLsiqHcytEi0hSWrCijqqrZs6TGOdDrmhdpvJWG7i3YrQ+Ih58XuX/4h38AMgdCvD8NOaCGgDA4ID0gyGpwcLC9vZ1razweD+yiHR0dPB6Pf6WB0xEUqFOpVCBQ4SpyMJtBrVKoVIb2npk3xhVQxJCvANTCah28y5HuX2XtkQVLZP4SpW2prnkREPcq6JoyqgpLVhRWT2bjhzPLBjJw/RklvRlF3WmFHcm54oQsQUIGLzqlJSKxER3HQsbUh0TRgzBUXyTJO6TKI6jC1Rfn5FVs71Ho6FnkhChx8yvzCqr0QRH9wmpCoujImPrwOFZEQmNUcnN0aktcOjchS5CSK04v7Moq6cnESjPL+7MqhvIIY0WkqZJaGY6iLKep8QwtkTVTy1kgt0AJXCCZe0W5vM5xvr5bhmTb6hX8/Oc/Dw0NBYVZQNDw1QWFtQwQqwgCcOAARpCtAYQdj4+Pd3d3gzNPKBQC5IRCoVgs7ujo6OzsbG5ubm1t5fP57e3tXV1dvb29ICsmOFkhM40e4lsqFTKVytDVNxuUJHgtBxGICPn32QxkwdJnsfaGMqBMNv2J+f1xOb3RGZ2R6R0RyaKwBD4yti0oqjkgstEPzUIgGV5Imnsw2dWf7OxLcvKpdvImOfvVuAXVeYbQvMMYvmHMgMjGwKimkJhWVBw3PFGASRFHZXTFZnXH5/ZBUVhFA+nYwazywRz8SH7VOECujKqqoGsITD1Arq75s3ko15ELBnV5/vEf/zEkJAREdoPUoteRA/qLQqHo7e3t7u4eGRkBxZNAhCqcMR8UOQZSCE5BkUjE5/N5PF5bWxs4GkUiEdhg29raWCxWW1sbmBCiAdr4lv955D4rq8ZwGm4ksWAsLnckOnsoMq0/IqUvLFESGt8ZHN0eECHwRXO9w1o9gpvcQ9gugUxnP6ajN90eQXHwojv40J0D6t2C2Z4hHASyxRfN9UPzgyJFITEdyITu8KQeTKo0KmMgJmcoPm80qXA8rXTUlj3qTWyGjyP8P4NBdB05DFYJ3cRv3rwZHBwMVl+n071xt1Sr1aAcCCjM2dLSwufze3t7BwYGxsbGAL8WZn2BC8b09PTExMTY2Njw8PDg4GB/f7/E1np6enpftcHBwZGRETiuQGOY+VJkjtSyQOTMVbKN5fV6LE1TQlEV1MjySdM5VRNZlSOZ+OFU3GhC0Whc3mh09lBEhjQiVYqyIRcU3R6AEfpGcBGoNo9gjntQk2sAy9mP6YBg2HvR7b3ojj4MF/8Gt6BGz5BmL2SrTwSEXGC0MDgWQg6VIolIk0ZlDELI5Y8mFk6kYqFEqNkV47mEqYJqeVGNEkvRltH0FfUzhIa56qalz8Pau45caI4tTtzJySkwMBCoDxqNBlQsvip2sCqoUChA/nqpVNrd3Q0Os7a2NnA97+3tBWWZILayUjkzMwP2XpjZd3VOcFKChJlA3Kenp6cUqi8FueqWhSrOHJ5tLG/QYxmaEpqqoFaWXzOdQ4SQy8CPpOGGE4uGE/IGY7P6I9N7MamS8KROZFx7cKwwMJIL5ZQNb/IKYXkGN7gFMFx86Y7eVEcExRFBcfKmuvoxPIKYiFC2N4rjF9Hij2kLiuaHxIlQCR3o5K7ItJ7oTGlc9kBi/lBy0Wha6VhGGcSUzSVMF1QrimpUWIqujGbA188SGuarm5ZIn4NveR05VL7tJu7h4QE0FCA015EDKw7btEAyxYGBAYlE0tnZ2dHRwefzwWWAz+d3dHQMDQ0BBjRceQ5km4K56IBiC1vFgO4DybrBqDbMKJXTKpWhs28+OEmAsWUD/rheAX+zTrjJeRk/B1Uxa+4/gBjdL+MKoCgsCm/ps5ErG0opHEzOlSZk9cWkd0WndEYkicLjBMhYbjCmJRDd5BfOQoTUewUzPP1p7r4UF+86Z0StM6LW1bvOw4/qFUT3DmX6olgBEY2BEZyQ6FZUHA8dL8Qki2NSu+JeZWxLLRpKLx3JAEbnT0eOwl8FPvE3stObJLt08TrItZdju4lHY6dDc208FH9/fx8fH/gkm5mZuSoc8BhICfDyGG1tenoaZNHm8/ngDOPz+cCwAt5KJJLBwcHp6WlQjgBO8g3uA3C9LDAzdFmcU2kXpuTq8XG5rmdwLSpZHJ8jSy015FXrC+nqQo6mTDxf277W1H/AH3+fO3rIGdriDG2xJWvsTlODyNTANdU3rzM4phqQJZE1U27LklgCMtlUy/MIUCabrIoxyOhc2J+U3xefI4nO6IxKb49IEoYl8pCxbcGvIkK8Q5jeQfWe/nR3H5qLN9nZq87Zq84VQfbwoyEC631CG3xR7EBbxrbQ2BZIQ0niY5JF0RkdsVndCbk9yQVSm4bycX7LAlvWe6ytXgEerlfAWaFwN8mCTZpwk9GxVd+zyerd4AzscEcOBWMP+YP3OV37dOFWrWCnonktg6jIrdWkVExE5PZA5xwSifT09ISR+zSZgyEENa/gHLSjo6MSiQRcyWHto7W1VXSlgXve5OQkKBkyPz8PdtSrc0Ib9dyUcqZXPy9XGJam1A+j47jpOVOpharMSl0KcSqjYaK801DTtcoeOORNPGwb3+eMbHCG1xt7Vhq7VhpFa+w2E6txg8nerG1a/kPhodRyVimtO2TuLlWwA5BrkG40Dm5xxw4EYw8F/Q9bOg/rhQelzNUi2iKufiE2vyetvC883ZaxLTY21s3NDdh/gcfgtQW9/haoM3DlOaVSOT4+PjAwAC7m4FYusDWgWPJsrbm5mcvlisViqVQKbCuvzazVTekMg3LlmMa4NC7bbuQtxmV0p5VM51Trc6j6ouZZYtcaWbzOkd7ljb/PHT/kDG02D2+8Qm6V3bbW0Gyqb1qveeUQh2uEfG25X7WcFWrrFo23RRdu1XdsMns2Gno3mgZ2uKN3BWMPeQPvczrv0gUHpQ2mQvpCAVmXWTmWSZBm4rshmcvMzHR2dgbWL6AWvrag198CFzm4GMzNzYHoOqDITE9PDw8P9/b2ArS4XC4YgHsesFCPjY3ByaquTm7Uq4zaifkZg0o5o5+7y2nXVzUok0r7k8rGssm6smYTQbBFFmxzpHf5Yx9wR++1DGy3Dmyxe1bYXSsN7csNguX6thV66/IfEHI1nGUqd43ON9FFpob2jQbJOqvP1DSw2zZ6Tzj6AXfwUVPXParggMDdw7JXc0iq1PL+DHw3f8gEIYfFYh0cHAAMGo1menr66mq+cQyQGx8fB14CoJcCEwzQJ2GbMrAyg7dGo3HG1oCOc/0XGdVa47TCoNBolEaVbqWCwsPRespYE3lkeV6doYRmKmfuULm7zb33haOPodwM/XutAztsyRqr24accKmet0jnLv4hIde8ROcuMwTLTNFyQ8caW2Ji96xD7PShh4LRx22DH7C779GEBxXNG0X0+VK6Iad6sKljoU+5ACFHIBDu3Lkjk8nAKoPT6I2AwQ+B6UShUEilUpFI1N7e3t/fPzY2BtJ6fVr4JJgfvmO8FoEAnXMq/fyUfmZar1Fop5W6AbkOnYFFZ9UVUEZx9Pky8mYd6wM696Cl5554+LFw8P22vsPW/l22xMTqXmV2LtPFizThPI278AeEXF3zEp23WC9YZIoWWR0r7C5To2SjWbrPg5D7oG3wEVtySBPtVrWtF1B0hEZDNUeeUtTIFNrqz1EolPfee0+v14NL2HUvDwwYPAAaJtAVBwYGuFxup60JhUJwKwC1jUEOTLhUGfx12OMKPwEDvUI/OzUzO23QKjVKnWbKoO8Yn/aJyfon57jEfAmBuk5resjg7rHF24KBh13jT/j9D5q6tlntJmb7ar14BUJOPE8TQQnsiKyFyvrZClDFjKz9+pxzeMYMOH3xjBmIuNe6xhAsMoRzDP48XbjIECwzhCttfQdc6aFg7H3R2Ifs7t2qpnlS63ItdwmV1mDnmd7AH/vwzAzJHJVK/dWvfqVUKg0Gw/j4+HUbymvrC5eABKYypVIJiux0dnYKhUJwsAkEgo6ODuA6B4VAPs+0OoXeMDWrV0DIqbVKmUGpWJjrkWvTsQ12bjluXjXRyT01TfPNknXB0IFw4K5g4CG3715rz2FLz35D9xa9fY3WscLoXP86I1dG1YNeWT9Lalqi8UwM0VJ9+yK709Qs2W7u3m3q2ORLD8WD98Uj99rH7zW0LxfXjYalsh38C1AJpPZh/ZOzyxcXlxByzc3Nv/jFL0A6UVCv/TpUb3wC36CNRqNWq52cnOzt7RUKhVBN9/b2q/bl7u7unp6eN05y9aFapdcojWqVXq3WqLUKpUE+pVHIZuZHNSsNArmbT/Ftl1yfCAIms57EUXZPPBQO3mtq3+P1PmCKd2hCE0O8RReZSK2LX2fkAP2rjKonMOdqm1eoPBNFuMzoNDE6THTBKrt9RzTwPr9nv2f0Ia9nI6+q2z8S7xyQ4+SXTaBLVw4/eHJuObFYTi9sMjcwMPCrX/1qcHAQkErm5+evruYbx3A8Mdg2wVUavqpPTU2Njo4ODw8Dt9zk5CTwCbxxqqsPlVqtXKuX6bUKnUqphyodzy7MaozGoSl176hOv/gIV9tu55vsGJp5A5Hi6FeYXtJTxTRwxIctXQ+bOu6TuRuVrIVyphHUo/567paAhQbYhVBy0ualGuFKZdtcVcsCXbTZIrkvlL5P48yjomguXjmuvpneoVmJ2aRJ3c7DM+tHp9Zjs+XRR08uzs8gmVtaWvrhD38oFAqB2+w6sefq4oIx0FBgQzPsIwXaB5yEDbZYAlCvz/PaE4VOMzmjnjKq5HqVUqfUaJVqlWJ2bk5jnJnSGmUzi9Ozq42SiSK6ODKX5hRY+FunbBef6qAwDiahKwcnr25co/F3aYLtrzNyWLIWkC2JLFskO91Y175Jal8vb1pIKxsNTeD6hdFv2xfYO2WhIgkkRqdsZvXR8eVT8+WTE+vzM/PR8fnRi+dm8ymE3Icffujr6/v2229PTEzodLqJiYnXFvT6W6AWGgwGYAaD0gfJ5eCKBhRIEJ8ApwCAEb0+1dUnMp160qiatiGn0qk0WpVWo1JrlFPTU+PTsnGFYnpmZkQzO724bdz6SDb/QSV9+I5LnqtPpYs30d4db4fAe6Lp4WmCGtYCqX6hij6LpxrLyQZsjb6oSl1EUOfiFTllsizcVBpuJAnbm1DUG5ffFZkjxmSJwtN5qOS2V9HGDT4Y5mfWK/BFsf2iWP7RrKCEptDkljBbRaXIbHF0Xkd8QXdCiSQZ25+GG87ATmaXyXLwinyisoikKadB1HTwf6uMriusUyBimA7Imtt+lfbelXfcS3/nkJWUzhlX7x1+9OyjU/Oz08vHz89PLNZTs+Xo5MJssZydHF2cvYCQe/r06czMzK9//et3332Xy+WCRKKgzodcLp+fn4dF6uoq/1eM1RqNSqNRv+pXf8Wrh2qVSmkw6Lf3DlbW91e2HiysP+L3qNKKG7xQhe7IQqeggve8cxydS1ycyvz8qbFxotiEjsIyZUmlIbdElZYvyy7WZ2F1CWVDsURxNF4YgeOGlbSEFnJC8jjB2ZyADLZvSr1XPM0rloYIYyKQLM/gelAmxMWX6uRNdvGlugbQPIIYXiFMBIrpn9Tgl8YKzGwMyWlG5rUiC1tRxS3hpa2R5fzoKmE8sTMRP5qEVSViFUml8qTy6YwyWRp2PCFPGhLb7OJDsHMvdfIt+7Vzsmt4iX9CZUR6Xb1gdGnn6fPLyxOL9dxiMZvNFvM51K0Wi9VqsYJmsV7azrnT09PHjx9rNBoHB4ef/vSnPB4PBO9MTU3BlRyvLuJ/61itVcnmDOr9XSjr0cbW3vLGwczqwYzpvnzhYEBlYnfLC0mi2ASas2OWg1OWk2u+myfO0Q3njCAERTR6+tP8w1tDY8VhaaLwTD46m4/OEqCzhJDMpQmg+nNxrQFRTd7oBi9kvXswwz243jWI7uZPc/ajOflDmLkG0V2DGZ4hTK/QBi9kg5lWLp0AAAywSURBVCey3ieCFRjTjEziYzI7IrM6I7PaMTliTK4wIkcQkSMIiOd4RbAQkWxEJNMzjOIWUm3nUXzHM9/BI88VkY+KImUWt7b26gYNqwt3H987snxwevnhseXEar2AsDJbzedWy6nVcvYxai/Bs0Iyd3BwcHJyYjabTSbTr3/9629961tRUVGgfsv8/DwoSPzfitbVXw4hN2PQ7O/tbGxsbG7vrm7s7j98urx5f2b1wHTv+fr9E+3i/Y2D09nlD6fUuxRmPzIaf8M57pZriqNfnmdoOQJVZedd5IIgOLxX6WhHcLSrcnqP6GxX7elM9XGv9/dsDPZtQQbykMEiBJLljmQ4B1EdfGvtENW3PKtuuuFve1bZeZOcAsiuITSvEGZIoCDYt8XPg+3lRHe7U+fmUOfjSff2oCE8aF4eVC93ipc/0QOJdfbLd/DKtEekOyHSQqNKy6p5I7KVvbvnT55fPru4fPAcKlP+9PLy0YvLp2eXJ1brGYyc5QKC7dOQOzo6evbs2YmtHR4eZmZmvvPOOwgEgkaj6XQ64Fq7unj/vWOwW+7t7doy/W2b1rfXN3cXVzdXtw7Xtu8trx9u7D1c2763vv1wYW1/fe/x7NLBhGZZ2CP7x996/P2vXAuJbXXNknKSpLCgLyu9Iz6mOSyUFuhd43GnzOV2qcstnOstnOvNMpdb5Xfcsbe8i295F9/0Kr6JKLqBKLoJd9tzO3esy80yqN/AOv+u1OlGiZsdLsCLhAyixkY1ZaSKC/J7SOS+JtGAZEAu1y2vbj+89/7Rhx+eHp+e23bBC8v5udliPj63Pj2xPDs9PzFbT83W50dnFxar2QKa2WK9gITvWoNk7tmzZ0dHR2az+eTk5Pnz5xcXF1qt9uc///mPfvQjHx8fcO/+70Xr6m8HZXZBxaatLWjP3N3dO7x79+DwcHVtDSovs7q2u7u3vbO7u7ev080sLa8Pjch+e8PhL9/9u0Z+96PnJ7vvP/vgyHr3A8v+g9PNu09Xdx4tbtyfWz7UGQ/lit2h4ZXuTqNApKG2TtW0TlY1jlUwh3B0aSm1D1ffX14/WMkaIbVM1HGnaVyZUKzr7ZkbH1/XGA7m1w4WNw7Xdh9sHj4+ePT8wZOzR8+tH70wPz06Ozk1n59bTs/Ojo+Pz89OzRdnFsuZ9eLEevbMaj0+Oz++gJr57Pz86BhqZovlFXIvAbwGnG23BE8fP35sgU5B68nJyYsXL54+fVpSUvKXf/mX3/zmN0kk0uDgIFAaQWgr0C3B61X6Cew3v7rWX+5YqdTodMZdW60tqADepml9bXV7c313y3R3f+v+wfb66uLm0oppaWVxbn7eONfS1Pq9t/74r3/yN2q14fjk4sWR5enT8xPL+bH15Nh6fHx5AnXr2ZHl7Nh8dnxhPjGbT83mE6v56aX1o0toH4O69fJD6+XjC6h/aH7Zn1itJ5fms0voK0dn58/OT56fHx+ZT44sx0eWI9BPLedmq+Xs4vzs7NSmaFxcnB9brafWyxPrxQvr2VOr5cXp0ROr+cRqgeCEQIVUko+Bs6F4HbgryF394cnJyfHx8dOnT5VKZVxc3J//+Z//6le/yszMHBkZgZED9wdg9TcajcDXA8oUAO30ywUMnk2l1qjVup2d/c3NzfV10+aGaXt9bdO0vL9tun+wdXfHdG9/2zS7PCs3aibVVaWEH/3pj7ydvHUK/flz87PHRxAm55bzi5OLf3vyqj+9+LenF79/dvH75xe/f2HrRxf/enJ+eX5uvfj3+uX5xb+eXPz+6NW3nkOT/JtttleTn//r8fml+fzScn5puYAAsXXrhdl6ZraeWaB+arWcWM3HVvOpTRmx6SOXZusrZfKKSnkVok9BzmKxXFxcnJ6eHh8fP3/+fGdnx9fX99vf/vbbb78dHx8P6oKsrKyAirqjo6PTtgYK8RiNRpBmFF7rL3fwSeTWNzZNeztb7z88XF2c31pfNq3M729vaSY1e4t76KCI7/1ff5IQkXz89MhyZDn64NR6arEeWa1nlrPTU/PlC/Pvj152SAk/tfVzSBuH+pnFemy2vnhDv3z50GI9tn0M/go0g/ny5ONpf//i/PL87NICdwDhx68Wy4XF8hIwgJz53KZPQngBzP5jyJ2enp6fn5+dnZ3b2vPnz589eyaTyfz9/X/2s59973vfw2AwPB5vbGwMlPPU6XSgWidcKhe4e75czMBsEHIa7SuZW1/f2Njf319ZXdrb3d7a3Jifn1PIFWODE/a3nP74O39WnFf69MNnx89PzMcX1gvr6dOz06dnF6cXp8dnZgieC4v5wmy+gE4Vs8V8YYVUObB05xboKIJw/tRusZxBXzy3vvzihRXMYzFfWCCpurBYzy8sFhhYeABk7cymQ55ZbcoI9OGXHdoobZeAq6+fEDfbG0hDuf707OwMaJvn5+dms/n8/PzJkydnZ2dPnjzR6XQUCuVv//Zv33nnnVu3bhUUFIyMjMzOzl4lywKj138FbIAuptFoQCk70/rG+vrWzt7+3sHh2sbW1LRydm5JKO76X//r//2//5+/6R8cfPLRs2dPnx69eHF09MJivjg7PbaYz588/dBsOQfnh/kCWvdPdBtyEBjQJ2y3YAja6wMIb+iLNuQ+McOF1WxTDqEJbL/mFaIv/3/YfvoKqJcybjmHMIZEEEbuOi5Xn3wqchaL5fnz5y9evDCbzWdnZ0dHRzb95wJI4cnJiVQqvXHjxo9+9KPvfve73t7eHA5ndHQUcJyB5fq/CDmNWqnVqHd3dzc2tk2mrbX17d3DBzNzy5NyzezCKr6a+o23vvsbuxtLm0vPL54fW47PL08/Onp8bj26sB49O/7w3PLsxfmHF5fHZ/96+rJDG9q57TR6eSCB3QySCdtu+KmvVuvH+x50kpnPIYXl4uzyHJ7cYjm1Xpy9Oi7B/xGz1WwG2ELiZracWqzgDgd+I7QVWK3QQQeAujRboWPv9fZm5MA5Z7VagcBZrdbz83NIo7WJILSPnJ2BW8Ts7GxxcTECgfj+97//05/+1MfHJzMzs62tbXx8HPgcQBwC8NYCx4JCoQBvgVI6PT0NilqDoNmr2g0gSYCPXXHGqtUqpa2I5P7q6trWzt7iyppWN6PVzfj4Bb39gx/HJ6SYttaPL47PrGfmywvL5bnZenZ0+uz44rn58szyr6fnF0fnFkgBMdu6bXBhvjRfXJrNl2azbcu0vUIr+Fnd8vLztu9eQJNcwNNaLqENEpJK6PXCBhiA7QpykJxZzz/5iwBsH9u6XoF4Fb03I3f1E28cAxE025rFYnny5Mne3h6Px/vlL3/5rW9964c//OG7777r4eHBYrHA+QfI7SAOCFzI1Gr1yMgIqD6yuLgIuJfA+woctjBF2vDJNj8/r1ar19bWdnd39/b2TCaTcWZmeHjkZz/7/37wg7eJROLp6anNygcd/aBfOzWgEwT+6asBtDxfRv945k/MBz3+xAP47Rsfv3HZrz78gsgBcQQSCe+fQFIPDw9bWlp8fHxu3rz54x//+Hvf+569vX1RUVFlZaVEIhkbGwMSBpgQoMwgKIYwMzMDiEnwQ5lMBligwNUARBB8fX9/f81271YoFGw2+5e//OXf/d3fdXd3Hx0dnZ6eXv0X/k8df0HkwIYJb56np6cnJydHR0dAHQVvDw8PR0ZGGAxGamrqL3/5y7feeuudd975p3/6JxcXl7CwsLKyMg6HAy74MzMzi7YGSmYBzidUpkeh0Ov1c3NzcNCeRqOZmpqan5/f2dkBQCYkJPzFX/yFq6vrwsLCkydP4O39fypg8L/rCyIHvg+0zRcvXoBjD54UHIFABIGOarVanz17NjY2lp2d/e67737jG9946623/uRP/uQ73/nOd7/73X/+539GIpHFxcXt7e0gJGVubg6mWsNeWXDUKZVKuVyuVqu3t7fDwsK+8Y1vIJHIx48fP3nyxGKxnJycXFxcwH+T/8GDL4ic2WwGqiYwq52fn19cXAAV9OzsDGAGbKHwjgq5mmzt+Pj40aNHCwsLfX19OBwOhUJ5enra29v//Oc//+EPf/jd7373j//4j3/yk5/84he/sLe39/b2DgwMDAsLi42NTUtLy87OLioqKi0tra6uvnXr1jvvvEOn0+Ff9+TJk+fPnx8dHf0PBgz+p31B5CzA6Wezc8JjAJLZDKmw4BVABWAGY/AjYCAFr+fn50+fPn3//fc3NzeNRiNIH8Dj8RgMRkVFRVZWVnR0tLe3940bN372s5+98847b7/99h/90R/92Z/9mZOTk06nOz4+Bn8BIGrgd8H/vP/BAwi5/9P+EFfg/yD3h4ga9Hf+/wEs9z1iN2mlGwAAAABJRU5ErkJggg==;" parent="1" vertex="1">
          <mxGeometry x="860" y="294.41999999999996" width="108.91" height="135.58" as="geometry" />
        </mxCell>
        <mxCell id="CGWt4wzMSBsF5mTkpCt7-44" value="&lt;font color=&quot;#000000&quot;&gt;&lt;b&gt;Servidor MySQL&lt;/b&gt;&lt;/font&gt;" style="text;html=1;strokeColor=none;fillColor=none;align=center;verticalAlign=middle;whiteSpace=wrap;rounded=0;fontColor=#CC0000;" parent="1" vertex="1">
          <mxGeometry x="868.91" y="427.42" width="100" height="20" as="geometry" />
        </mxCell>
        <mxCell id="CGWt4wzMSBsF5mTkpCt7-45" value="" style="shape=image;verticalLabelPosition=bottom;labelBackgroundColor=#ffffff;verticalAlign=top;aspect=fixed;imageAspect=0;image=data:image/png,iVBORw0KGgoAAAANSUhEUgAAAGcAAACRCAIAAABR6DGqAAAgAElEQVR4Aey9d1Rj+Z0vqHP2vfljd9+eXZ/3zoznvTeeGY/t8bptT7ud2rntTq5cBUUoCigKqEhRiZxBESRyFiiAEoogkpAECOUckASKRBGFhECx3P5nj/i5rnF1e+2ZM2/PvJ3+njpCdbmSrj73mxOwxOf0z0cA9s9/yeevSHyO2r+ECT5H7XPU/iUI/Ete8zmv/Q9ALX5Gf+yNY2cUjUZjsRg4E3qMxWLgVeePvHEaeHk8Hv/0mW8cgd4EOhmcAN4BettEIgGdCV0bdHngJZ/5CL3qM3/76YN/gtfA20FXAy4FvEssFou+JuhTzz+Bvsz5g5/5HLwh+NX5j4BOPv9W57/D+ePxeBy8FnrVG0fOv/CN59BL3jj+x/77J1AD1wFdTSwWi0QioVAoGo1CnxSNRsPhcCQSAQehT4JOgI6Al0fO6DXgyfeBTvj0S6AbBj4lfI7A+3z6EbwJeE8A3MkZQewfjUZPT0/PfyjgAOgE6Fd/7MmfQA36bOj7QF/yPHDgYDweB9/t9PQ0FAqFw+HTMzo5OQkGg0dHR4evye/3Hx0dBQKBYDB4cHCwv79/cHDw+pef8fPg4CAQCIRe0/HxcTAYBEdOTk5OT08hMMHNe+Nmg4sPh8PgqgCHQjcP+mp/DKNPH/9zUQPXARgEfGosFguHw4FAYH9/f2dnx+fzbW5uer1eh8Nhs9ksFoter9e9Jq1Wq9FodDqdwWAwGo1ms3l5edlms9nt9pWVldXVVYfD4XQ63W635zW5z8j1mpxOp8PhWF1dtdvtNpvNarWCj9Dr9eA9TSaT2Wy2WCwrKytOp9Pj8Wxubu7s7Ozt7R0eHgYCgZOTE6DjotFoJBIBDAikBBKmTwP0mUf+XNQAV4dCocPDQ5fLZbPZDAaDSqWSSqUSiWRmZmZiYoJ/RpNnNDU1JRQKRSLRwsLC0tKSQqFQqVQAOL1ebzKZLBbLedQAZF6vd21tbX19fW1tzfuaAIxOp3NlZcVuty8vL5vNZqPRaDAYdDqdRqNRqVRyuVwikSwsLIhEopnXJDijubm5paUlpVKp0WgMBoPNZvN4PBsbG4BJI5HIeeX4mRh9+uCfQC0Wi52cnOzt7blcLr1eL5VKhUIh54zYbDaLxWIymWNjY0wmk8Visc+Iy+XyeLzx8fGJiYnJycmZmZm5ubn5+fnFxUWpVArg02q1BoMBwm5lZcXhcLjdbq/Xu76+vrGxsXZGADcINbvdDljMaDQCJlYqlQqFQiqVLi4uisXiubk5gUAwMzMzPT09OTnJ5/PHx8e5XC6bzWYymWw2m8Ph8Hg8cIOFQuHS0pJer3e5XAcHBycnJ/9CvRYKhYD2BZIYDoc9Ho/T6bTZbEajUaPRyOXypaUloVAoEAimpqbGx8c5HA6LxaLT6TQajU6nMxgMCEQIuOnpaYFAMDc3B7GeUqnU6XQmk2l5eRlA5vV6N85obW3N4/G43e61tbXzRwCv2Ww2k8kEWEypVC4sLMzPz4tEorm5uZmZmampqcnJyfHxcR6Px+FwwF0Etxa6qeAgQBACcXJycmpqamFhwel0Hh4evqGmwX+BRgLIvslrgLkikcjh4aHf7wcKa3t7e3NzE2IBj8cDlBf4Amq1WiqVLiwsCIXC6enpiYkJACW4Mi6XOz4+zufzp6amZmdnIaaTy+VAagB2q6urbrd7fX19a2vL5/Pt7Oxsb29vbGysr68DsXU6ncvLy0ajUavVAnmcn5+fnZ0FYPH5/ImJCd4ZTUxMAOC4XC7A7jz7T7wmoEkAXlNnNDMzIxAIhEKhVqvd3t4Oh8NAD0JaDxLnP0AtFAq53W6j0eh0Os1m8+rqqsfjARe9sbGxtbW1vb3t8/l2d3cBmj6fb3t7e+uMNjY2gCmwWq0mk8lgMMhksqWlpcXFRcAOQqFwdnYW8J1IJIIEFig4oMLX1ta2t7d3d3f3z2h3d3d7e/u8hTEYDIDlgUiKzgjwPkBwenr6tVpL/pw+o9nZ2bkzEr4m8ELxGc2/psXFRXDNEolEoVBYLBZI/QH4IHvye9ROT081Gg31jMbGxlgsFpfLnZycBNcBPlgkEonFYohfALNAsmaz2YC4uVwuIGJAPQFVBWAFggaQ1ev1Wq0WGEGTyWSz2dxu9/b29v7+PuB0v9+/t7fn9XqBigC6DKh/oNFUZ6R8TYozAv9TqVTqPyTNa9K+ptcW/nc/gZkC2tZqtQJL7fP5QqEQ5FS9KaFbW1tDQ0MIBKK7uxuHw7W3t+NwuLa2tvbX1PGaOjs7u7q6enp6+vr6BgYGBgcH+/r6ent7BwcHiUTi6OgonU4fGxsDEjo+Pg7xl0QiAWYUYAT8A6Ds19bWNjc3d3d3Dw8Pg8FgOBw+OTnx+/27u7ubm5tATiHGX19f3zwjoPg2NjbAf8EjsMLgIJAPoF7AyeCcra2tzc1NICXgHCBGO2cEbtv+/j5QFxCLAQkNh8O/5zWTydTW1obBYLq7u1vPCIPBtJwR9oxwrwmLxYKnbWfU3t4Ozm9vb+/q6urt7R0YGMDj8cPDw0QikUwmUygUGo0GcAQgLiwsqFQqo9FotVpdLtfa2prP5zs4OAgGg8CN2t7edrvdy8vLwOmDUAZcDEzt+vo60IC7u7t7e3vnXeWjo6NgMHh8fAzci5OTk1AoBN4ZHDk9PYWeQE5yKBQKBAKRSAT4oYFAIBwOA496f38fOMPAt0+iBsIOhUIxODg4MDAAcdDw8DAejx8aGhoeHiYQCCQSaeSMwBMKhUKn04HPASwUMEl8Ph8I9dLSkkwmU6lUOp3ObDZbrVaHwwH0/d7ent/vB546sNenp6d+v397e9vlctntdrPZrNfr1Wq1QqGQy+XgUf6aIEkEBxQKhVKpBCKp0Wi0Wq1Op9Pr9ZA7vfyHBEmf9VO0vLxsOCPIH9TpdEBvAtV2fHwci8WSqEWj0aOjo+np6aGhITKZTKfTgVIDto/P5wPtNjc3JxaLF85IIpFIpVKZTCaVSpeWlgA0RqPRYrHY7XbgsgJGANwObv7p6SmI+EBwc3R0BMz0+vq63W7X6XRyuXxhYUEsFk9NTQHogcsCHGbw6RKJBNwPYIVVKhWkyMBzCFOg1l5rs+RPtVoNHtVqNQhXlEqlXC4Hvjr4aGC1gF/F5XIHBwefPHlSU1MDxBNwIgww2vr6OovFIhAIZDKZRqPxeDyBQADMnFKphJxS0xkBaFwuF1Dzm5ubkOE7PDw8Ojo6Pj4OhUJQoAcF6oDhDw8Pd3Z21tbWgPui0+kUCoVYLObz+Ww2m8Fg0Gg0CoVCpVJpNBrkALLZbC6XOzExMTU1JRAIIAQBiOAWymQywJgAOOgRghU8AZwLDKhQKAS+8ezs7NTUFPBUaDQaHo/H4XCNjY3FxcWZmZkvXrw4ODiAItYkavF43G63j4yMEIlECoXCZDLHx8eB8wLcUavV6na7t7a2gAYBBg7E3oFAwO/3n56eguAOykCAcPr09PT4+BjE7fv7+z6fD7gRZrNZo9EsLS2JxeKZmRk+n89isUZHR4eHhyEt0d/fD0wNUBGQimQwGBCC4CKBHyOTyQAoAMelpaU3oARsBT4U+GVzc3NTU1M8Hg+6WyMjI/39/c3NzdXV1c+fPy8qKiosLMzLy3v8+LHFYgmHwwAuGIjC3G43nU4fGRmh0WhMJpPL5QKnVCqVyuVynU5ntVo9Hs/u7q7f74ciuPMBWjwej0QiEEx+vx/oUcBZGxsbHo9ndXUVuKkKhWJhYQEEGOCKyWQyHo/v6+vrOUe9vb19fX2DZwTuKJVKBQYaiuGAFw2FbiKRCNIbwFUE3qJAIJicnAQeLrDpY2NjDAaDTqdTqdTR0dGRkZGBgQE4HF5RUVFcXFxUVFRcXPzixYuHDx8WFBTk5ubKZLJoNAq+chK1RCKxvr7O5XLpdDoQDTabLRAIIOWlUCi0Wq3FYnE4HMDpdblcQHltb2+fz+wcnBHwUYG74HA4rFYriLRVKpVEIpmfnwc3GQRkNBqNTCYPDQ1BkHV3dwOPp6Ojo6urq7u7G3g5g4ODwDoRCAQikUgikcbO6LxFgmLh8fFxcOMFAsH09DSfz+fxeCAmBecAhUAikTo7OxEIRGVlZXl5eW1tbWVl5cuXL4uLix8/fvzgwYOCgoI7d+7cvn1bqVQCr+34+Ph3EurxeDgcztjYGIVCAQ4XYDfgLms0GqPRaLPZHA4HwEun04lEImAlhEKhSqXS6/VmsxmYAhBCut1up9MJGUSNRgNYTCgUghwJCKrBrSISiUNDQ/gzGhoa6j2j/v5+CKmhMyISiSMjI1QqlcFgMJlMYLUnJydnZ2fFYjEUbwB2A1kQcJNA4MXhcEZHR/v6+oCPhUajkUgkHA5vbGxsaGiora2tqKgoLy9/+fJlUVFRfn5+VlZWSkrK1atXU1NTNRoN0ELRaPT3EgpyGAwGA+JYcH1jY2OTk5MSiUSv1wNec7lcBoNhfn4eMLxAIJifn5dIJHK5XKvVAt9qdXUV2ArgKIIgaW9vb2trCwQJLpcLJMugTAYwNSBNBrkKwEuwvSar1QoyReBkEF0olUqJRCIWiwFbsdlsOp1OJpMHBwd7e3uB047BYBAIRENDQ319fWNjI/yMEAgEQK2hoaGmpqa0tLSoqOjhw4eFhYU5OTkZGRkpKSk3bty4evVqWlqaVquFAtLfSajX6wXmg8lk0mg0YBkIZ4TH4/v7+4ETB1yT8fFx4IXMzc2BSAtKogHUrFbrysqKy+Xyer1bW1v7+/uBQABYDKD+QqGQ3+8H9gEC0W63WywWyFECvAnBAVwBNps9NjY2OjoKeLOnp6e9vR2DwTQ2NtbV1dWeUX19fW1tbXV1ddUZVVdXV55RdXV1fX19U1MTEolEo9EtLS1oNLqxsbGiouLJkyeFhYV3794tKCjIy8vLycm5detWenp6amrqjRs3rly5cvPmTbVaDUxBPB7/E6iBewW8fxAPYDCYurq66urq0tLS8vJyBALR19fH4XCAHtRqtTabzev1gsAF8vihbAFwdE5PTwOBwOHh4d7e3vr6OkiiLC8v63Q6pVIpk8lAcD47Owu0D5PJpFKpZDKZQCAMDAz09PR0dHQAKUMgEHV1dRAuNTU15eXldXV1zc3NXV1d4DYDmzs2NkYmk/v6+kCwCCSxuLj40aNH9+/fv3fvXmFh4b8aaj09PV1dXeAqW1tbcTgc5ozgcHhtbW19fT0ajcZgMFgstqura3h4mMFggLAJhJxms3llZQXKR0OmAyod7J7R+Ry60+k0mUx6vf7T6Q2QqwBJBLFYLJfLgYMN0k32M4KS4wqFAihfBoNBIpEGBwc7OztbWlqamprq6uqqqqpKSkqKiooAXvfO6F8HtYGBgf7+/t7e3s7OThwO19zcjEajUWfU1NRUU1NTW1uLQCBwOFxHR0dvb+/Q0NDo6CgIOYE3IBKJoODBYrGAiH1jY2NnZwdUWKC4CuTyAQ9ubW15PB6r1arRaCQSydzcHIfDAUELj8ebmpoCKkKtVhuNRqBtPR7PysqK2WwG3LqwsDA7O8vlciGJHhwc7OrqwuFwSCSyqamptra2rKysqKiooKDg7t27+fn5BWf0ryChwKgBtdre3g50AQqFQiKR9fX1VVVVtbW1SCQSxPNdXV14PH5kZASgBtyi+fl5YCUMBsPy8jJQdqAOAgKJk5MTKFgJBoPAYoDvr1KphEIhj8djMBjAsOLx+NHRURaLNTExMT09LZPJdDrdysqK1+sFqJlMJrVaLZPJxGLx9PQ0l8tlsVgUCoVAIAwODgLLAEwnQA1otLy8vDt37vzz9Fo8kfB4vWwuh8VmjzFZVCpjhEwhEsgEArH/NfX09AA9gjwjBAJRX19fWVlZXV0Nh8M/k9eg5K1MJtNoNOddk/X19Z2dHZAUAnmYRCIB0sgHBwcghgeMJhaLx8fHgYgBJcVgMHg83vT09NzcnFKp1Ov1IC8AHEMg2kA2IZ0Ioo7+/n7Aa2g0GoFAVFVVlZWVPX36FNJr9+7d+3MlNBKJhxOJVa+XNs6lcbijbO4IjUki00kEChE/Mjgw1N/f39PT09nZ2draisVim5ubAa81NDRUV1fX1taiUCiQj+vp6RkaGgIxGZvNhtwogJrBYLBYLCDTDSQUKrhFIhHgQIZCoYODA5/P5/F4TCaTSqUSiUR8Pp/BYIAs3tDQEJVKZbPZQEgVCoVOp7Pb7aD+Z7fbIV6bn5+fmZnhcrlMJpNCoRCJxIGBgc7OTiwWCyS0srKytLS0uLgYuLJ3X1Nubm52dnZmZmZaWlpqaur169evXbuWlpam1+uBKUvmPCLR2OmruN3rpfF4FB5vhMMh09jkM9QIQ+TBwaTb8Tlqn0ItFg2/iq94vfRxLp3LprFYFHpSQkeGyaQh4uDA4OeofRavnaHm8HiYPM4YmzXGYtBpSddolEAgDw3hP0ftsyU0Fo0m4i6Pm81hszgMJos2RhuhjRAoBPzI0CA+6Xh8LqGf0mtnifCY2+Nks1lsDoPFpI3RyfSRIdrwAGWoH58U0H9PqOUV5ObkZd/OzczISruZkZqSdv1ayrWrN9JuZuh1xng8EYsm/8GAr+Rxu1hMBnOMymMz6VQihYynEAfJhIHBgT6AWkdHB2RDgeWur6+vrq6uq6sDNhR4ucPDw294uWKxWCqVAs/j0zb06OgI6vOJRCLHx8f7+/ug1GI0GpVKJbChdDodhMPDw8NUKpXD4QDPA7KhbrcbFBxMJhMoMy8sLPwxGwrcppqampKSkidPnjx48CA/Pz8vSXfz7uTn5tzNupWTkZ6VkZ6VfjPz2tWUq1du5N8tdDncsVj8d6idnJzE4/Edn6+nsxPR1DRGo40QCaMjBCJhkEIhDQwk4/bu7m4Qu7W0tIDwAPjWtbW1jY2NwMtta2sDnsfIyAiDwWCxWKDsIhaLZTKZVqsFFSmo2wcU8UCrD7hz0WgUdN/s7Ow4HA6DwSCXy0FmHKAGYg8KhQI8D4FAADKmNpsNdByB4jxIqS8uLgIvF+QjiERiX18fiHAQCERNTU1dXd3z588fP3786NEjkHfMy7tbmPcgL7sgIzUr7UbmrbTstBuZWek5j+49GSFRI6fRcCgajyYikSjsNHSSiCfCp2HqCO3hw0fPnr6ob2js6O7tHcQTR0cH8MmqVW9vb1dXFxTDo9FoEMpBqAEvt6+vj0AgUKlUFovF4XBAOmR+fl4qlYLig8lkAtEPlAgBBTfQGxAOh6HYwO12m0wmUE+YmJgAifz+/n4CgUCj0bhc7vT0tFAoVCgUer0e+GtOp9NqtUL9KPPz8xBqIHF03sttOKOXL18CF7ewsDAZwBc+uJtTmJddkHYjM+VqWmHeg5qK+raWzu72PteKN3ISi5zGYpGkNw6LRiKJeCIeiytkqmfFJTl3CvMfPrtd8PhpZWN5PQrblqx1QnVPABwKhWpqaoJyVVAc2tPTg8fjSSQSyBqCUBEEoQaDAeQsQe8Q5OX6/X4AGXAgIS/X7XabzWaoCkOj0UBUh8fjAa8BFxrEBhBqoESvUqlkMhnwckFNAKRMhoeHoYgKgUCUlZWVlJS8ePGiuLi4oKAgMzMz/WZmwZ37laU1HbhuConOZvLYTN4IgTpCoB4dBOOxeDwWj4UTiXgCdlYNjcci8fBpnEbj3cy6V1BUWfiiPuNBacGLmuelybxwVVVVXV1dU1MTCoUCSg3kPxvPCA6Ht7S0tLe3A9QgvTY9PQ1SrFKpFGQmLBYLaLcCqIGiH2h5BNUZ0Drp8/mcTqfRaFQoFPPz81NTU0wmE+SIiEQinU7ncrkzMzNCoRCgtrKyAvQaQA0kmoRC4dTUFIhDyWTywMAAlJ4E1XEoB9fY2Njb28vl8sSiRblEJZeoJWL51LhgjMqmkBjDA2SNUhcLJ6LheDQcj0cTsUgcBiA8DURPgrG1df/ACC+vqPbO86asp/B7Fegnz8tevnxZXl5eXV3d0NAAh8MRZwSHw5teU2NjIwKBwGAwOBwOUm00Go3NZo+PjwsEgqWlJZBDX15eBhHV5uYmKCQHg0Gg1EAcGgqFQJ+A1+u1WCwqlWp+fn5ychLiNRCxgXBNIBC8IaFQx5hSqVxaWgIdgJOTk1ALG0hTMxgMLpcrl8uXl5c9Hg8wIwaDQa3SqWS6RZFMNLs4yZuljTCHB8iyRdVpKBI9SZzhlYiFE5HTGCyWhC0JpG97n0qdQLQQmjrH7jfis6oH00o6iypaX1Q0l1a0lFdjq2qwtXW4+gZsQ2NzUxMG3oSCNyKbGuBN9U319Q11dXUNDY2NjU1weDKtjEKhQNKtvb0daHEyiUShjTJZzHE+b04kkCmkOr3ObDFbLGabzer2ONc2vGvrHpfLubq6YrGYtVqtTCqTLC6KhEL++ASHzeZyuFP8SbFIBIyAyWRcsdvWPO69HZ//8PDw4GDXt72+vuZ0JhtRk1V0o0Gj1SpUSoVcrpTJpPOLc7OCyYmp6VmBaEGiNhht7jXHmm/ZuW6wu1WmFanSLl6w88d1+IHxkpeonNtPCvOfwBuaLcaVpDqLxKOnryU0koicJk4S8RO9TNHb1t+CHa1u42c2TX8El31Qr75ZvJT9SJz7SJD/ZObB84niEnZpxVhdHa2xDo+o6UJVYVFVSFR1E7wW0dgAb6hH1NU11tY21tbW1dbWlZeVlZeVVZSXVVaUVVWWV1eW19RXNTY3olpR2A5s50BHH7FvaARPpg1TmCQml8qbYk3P8ebmp0SLMyLxrGRhXiGRqpfkeplmWa136Kwei2Nt1b3pWfNtb+/59w6P9k9D/kjIHzsNJEKBaOAwdLDv3/X5NpMdqk6X07Ji01pNaqPeoFCZFiUaoVg8IZjizU4KpLNyg2RlQ+MLaf1RqS8yvnzQxje+aJamZ0z96oeDP3oH+Z1vPvn+u3dzC6qLiqsqqxvOSu6np6GTeCye1Guh30RCnxzHYkfyOX43EttY212M4KRh1O+iV75b5b5cup9yb+vK7ZWLKboL15auXZtLvzF9J5P/OJtTmsepv8dGPGSii2m1z/EVZR1V5Z3JfxUdlZXt1VWtlZXNlZWYigpURSWyoqKxrKKhqq6hvhkFx2Iw7Thsd1vHQHfPUN8QZYhIJ1KYZAaXypoY402zJ2a504LJhUWxUibTyFRGhWFVY/MYnV6Le21lbWN9y7e/sxc4ODg9PD4NnoZD4chJsgPpOBQ4Oj48CPgOj7x7ftvmrsa9JllZFZlt8wqjRKQXC42TAhNzzkwS2wYkXiTfXjyqudzIfef+wNeyOr90FfuPX+/7Doz5Hdjo978w/PaX4d/7/oucQlTxS/j1tPT1LU80BgT1DDX/q9OT35wGjnbnJ7ij3YM9HbSqZm4WUvQrjP5dhO3dUtPPi82/eGT+VYHpo3TDxQuGy+/qL/2V4jpMdhMmvwVTZMPUuTD5g+/OP745Xnxr4lku/2XhZEkRv+zZeNkLbmkZs6SC9rJy9HkV6XnVcFltX21Dd2NTLxI92IIltraPdHRTugdofcNjBDJnlM5nsGfZ4yLOtGhaKhUqFYsa/ZLOJNNZ1eZV4+qG1eOzr+/afHuOwwNX8NAZCngiMWc07okmXNHEyskr80FCvxfX7EWlW2GB94ht3R3Vrw2oPbh5b/249+nIclaH/OPG6e8+HfvHvJGvZI98+Rbl71Mo/3Cd/rXr3K99xPzmt8Z+8Bfs73+B/M6X27/5lbIf/vjp7YLarLyin/zsp7PCqVj8NB6LRMKRRCIBO4zFQomox+scI5LoAyQ6abxzUPCidz6ldfFntbKPnns+Ltz66NbaR1fdv37Pdfmf3Nf/xpsK86bAnCmwlVSYPQPmvA1z5cHs+V8w3v+a8dEPLE8/sr64aX2Za655tlpVuVxdb6pBGOuajQ04A7xDi+lV4QY17QRD94iln24dZNt7WbZ+th3PdwxPO4dnXMOzzj7hSuuiGSM1ISXmpgVTg8hcM28qn9WXTmmqhIbGJXOz2t5mcHWZ1/osu/iVwKgzTHfH6I7oqO102BjsVu7h5NsIsbd6ZvX5hPkx25Qz6rrev/5B88pP603vVhneeal++4H8rUzxW1eF37go+PZH4n96f/6ffjD39jc43/87wjtfav3WV6q/887Tn73/6PKNex9cuPKDH32/CV4bTyRbC8InSUcNdhx/dRyP6/Tmgfbe0d7hMRKbxhANjWvQLOMzvK2w2p9zJ5hycf3S91YuvWVP+Xt32n/3psKcqbDVVNjKTdhKBsxxC+bOhW3kw7bvwXYfww6K/8b/4kdHLy8dlOYclj7YqyjbrYLv17ccNnb7EfgjFDXYzDzGccPt0/EO4asuyW/6lJ/06X/Ta/qkS/+bNmUCsxSukRwXinw3Zt3vsyzvkFX/0CP6zy0T/xHB/IsmxhcwvL/tEnx7WPpjhvYjljFP4C1e3K5Vh9CWeIvtFdb6qkUfb1KG62ShigX/c+Heo+nN/ImtNPrhJfzx++37P0WtvVu9+t2nxu8UqL6duvDWxzPf+vnUd96dfefbU29/mfv2V4d/8Db2Fz9DvfdB7fsXnn14Mf+9j6998PGvf/7Ln1y+/NHxsT8ZswO9dhJPHMfjBpNtsBtP7h1mDFHoZPYIc5Y6q2OrNobmN/Fze73ju+ghz7NybeblmRtvTd76a2kmTJUG02TAzHdg7nsw3z2YrwC2dR+28xh28Oyvj178JPD8gr80K1BSeFTxPFBdH2xoOW3sDjcQjutZ/saJQ8RMED1/ipFGW1RxrC6BNSWw9k+w9k+QlniNNlSqCN5fDKbxdz+ku79LtHylW/2f0aL/Az7zfyEFf4Vb+EqP8u1hw8+o1o9pKzlC3yP5YYUh1mT/BLX6W6TptwjdJ3Dlqzp5tFwSeiY8fDTlK+D5rtHW3yd6fzpg/x5W/+2GpbfKBG89n/xaDvUrqUPfSCG8m8l47zb3o/zx63n01Nyu25V8sgcAACAASURBVHdbU7PrrqQ8unTt9q8vX7l89eIv3vvxe+/9xLe9mWwGjyfi8QTsNJ4Ixl7Znd6xMS5zlMYijUyxOIJJwfTMwvSCdFq+OKuTLppMyuV1g/nIrP+NVpLgdgY6CjzP/7siGya4DRPfhSnuwfT3YMaH/9VS9E37s184X15zv8zwlBdulD/erHi5XVO9W4c4aMAe1g3tVXG3q6a26uf2Ghf9cEUQoTlptsRbVl81u3+Ldr+qXzkp1R88UR08XIpkTAY+pG98j7Ty5W79f0Eu/p9w0RfQC/8NJ/9ar+H7JPuHNM9V9lrO9Pqjxa0qzTHa8qrV9ttW029xugRWGUXKQnXi/TL+5hOW8z7VeptsuElQXhtYutgxe6GdnzIguEuWlrHNL0eVFSRZzdDiUzQn92V/9mNc/kNk7r3qjJziG+l511LTLl+9+PHHv/zBD95OT0/Z3tpMhp4nybEvWCSeCMUSlpU1xhiXxWBw6JQJBmWWzVyY4C/NzCnnhFrxgkmmWdXY1szrPtvBti3k1QfNkl0pxzNNtk8MLU8M2umdDgLONYBa6Wo0t9YaMNVaZLUWAzdjUMstuNW2dk9n70bXoK+Fst3A26qf2kWIj9CyIE4dxhpj2OVEy2oC601gvPGm1UiVOfBMG8gVB1Km/b9kbnyTbP1ir+p/b138D2jBf0QLvtAh/ds+zTeHTT+mrlxiO4vn3HCJq1O7T7CGKLZTiuV4RH80rNwZkm0PLG0NSLb7Zb4huY8u8XIWVtgiK21aP8SRdFEmcEPMupbexubOJgQOXo9qqKiveVHxsrjsQVFJ/oPi7LsF6bcyb6RevXL1wrXrv7529deZmam+7a1EPBlOxcIJWDSeOI0lbDYvg8VhsulMxgibNswdJU6Njs5QqFIeTzM7Y5XLPAbDhtW2YVv1LjscJrtOrhMLFicn5qYn5+dm5UvzJsWSU6fYNGn2LHq/2XBkNASXLXGL+ZXZ8huT9TcG628Mtt9onAm5JyL1RCTe8ILrVOQ+EbhOBGsn01un01vhic0TtjdAd+yP2Pfwxv1OzS5SsV4677gvsGRN6tI4qlS2Imdc+1BgLl9caVJ4cOr1IY2XqvUwDes88xbftDGl8/A1TrZkmS1ZZi0sUwT6fu5SO22mo4/R0Trc0tKLRLXB0TgkFofB4ZowCHhzIxJVh2gqb6h5Wl32+OWzRw8e3S+4X5Cbl30r62Zq+tUbNy7duH7p6h+iFg3HYWepj7jN7maw2XQuncYmUml4BmGA2Ydn9g6yyUMMUh99pI9NJ85Nc1QKicmss68uq3UqwYKQO8Pnzk7yhbPzUpFSOa9RSw0GzfKyxbHqcjs33W6f1+Pf3jo52IsfHb8Knr46PU1Ej+OxYCzsjxwfnB7th/x7wW3fwcbWrmdze3Vty+ZetzjdltVVs9VqXF5WWyxys3XBsiy0LM+azHy9nqtW8pSySbmUL1ngiISj06LhCeEAc7JnlNM1zOgaoPb2Ubu6yK3t+OaWHmRLJwLXgcJ14dp62lu6MGgcHIluRCObWlDwNkx9G7yxHd7U3ljXUllaW/z4ef69hzkFhbl387Nzc29lZaVlZKSkpZ21eVy9mJl58/e8FonCErFk6L6y6qBzxmjjVCqPSBkjUshEWh+Z2kXqbm/t7sL19LR1dbe1tuPQLSgEFtXS2Yrr6+om44lMBmtmaloqVhiW9OZ5g2nRZJFabRq3y+L1Ora2kiMXe7sHhweBY//pSSASPY4lQvFXoXjCH4/uRoLbQf/G4a571+fc3lhd99g8Totj1Wy3mSw6vVKtk0pVi/MS8bRYwBfM8GanWFMTFC6TMk6nTTAovFEik9g3QurGk9t78G0dvR1tPb1tff3tfT1t3V2tHW2tOBy2pRmLQjcjWxrRXfA2cscwY4hGJ1GHBoa7O3swmOaGhvqSkpdFjx7ez89/kJtXmJd7N+/2nTtZOTm3sm5lZN5Kz0hPv3H9+pXLlzPT031bW4l4LBGPxSLhJGrxcGx1xUbnUqg8MplPHuVQKKM0Wt/YaBeNRmYQiISenh5cW2sLFotpxaKx2CYMpgGFqkYgKuGNZQ11pXXVqFZU32AHnUUWzk/q9EqH07q+7tzb39479Pn9e6GQPxI5jsZOY9FYLBxLHMej/vjpfiS4f3y0d+Tz+LZcW5vOjbVVj3vZsWq0mU0mjV6p1MsVyZFA6eLColi0IBSIp6cE3IkJBo81wqUNs0gD9CESnTpKHWPQ2WwmZ5zFm2LzZnn8xbk52YJYJZeoVEsKtUSqnJeJFhY4AtYwY7Clt6UO01jZWF/RUFdeX/Gsovhe8eOch48z7z+9/ehx7v27d3Lv5Gbn3M7OysjKSLuVnnIr5crNK5euZqZn+La2E4lIIhFOREOwRCwaj0Qcq8t03ugof4TMHyFxqATq2HDf2FArtRs30NvR39fd39vd39nRjcO1Nje3oFAoBBze0NhY31Df2NTYhIA341px7T1dvfiBITKBRBmh0Eap1KmZaYFodkEmVmnlRovOumJ2ex1bPt/O7t7+4aH/KBA8CYZOj8NnKYVY7DQaDZ2E/IcHvp2dja3tjfW1Ne+qy2FYtaksZplRv6jTLWoNCoNOa9DpDfplk3nF5vRurm3u7PgO9rYPfRs7Xpd71WYz6nQqlUy0IBif4Y7x6BTWKGmESBgiDvbjuzt7sLjWJji6rg5ecqb+nz8ueVb4/Gnukye3Hj+8fb/gTv6dO3eyb+cmE7mpt1JvZFy/evPKpeuZaZl/iFo8Fg2HV1eWx7h0Opc2yqWRmBQCmTo0MDLYRcL3Evp78b3dfZ3t3a3YthYMthnTjEGj4U3w+rr6+vo6OLwJjUbjcB1tHb3dPYODeBJ5hM5gsTkc7uTU5MzsjGheKJUvqrUKnUFjXjauuFbdHveab2N3b9cfOAyGjk7CwUjsJJ5IlrNDoaP9A9/29rrL5TSbzCqpUjwtnmDy6HgqoXNoqHNwFD9Co4yx2ZzJ6ek5sVih1Or05hW70+3yOp2uZcuyQa/XqFVymVS8IJyamWCNs2gc2gg1mdHvHxho7+jAtGCbkMiGJkR5WdXLF2VPHj97mP/4fu6De7fv3cspLLh7hlp2Tmb67ZupGTdupF2/dvPK5evpaem7OzuJeDQeDyfi4WRWMnwattttLDaLyWIyxhiUZDl0hEAgDuOTHSX9/QM9PcmeIlBtaWlJ8hrIgEOpShwO19nZ1dfXPzxMoFCoY2fDmOe6Y5J1A4NBn8yvORzJodaz4R+/3x8MBk5PT6LR5GhrJBIOBgNgBMjlchmNRrlMJhKKxnnjFDIF348f6B8gEkl0Op3H4yWzkiKRSq02GI1gSg7M+hqNRjDrKxaLpqYm2Rz2GHNsZHRkeHi4v7+/o6OjpaUFjkA0JJv9KktKQMfCw8KCwoL8gvy7+Xfz7r7uWLiVlpaemnoTdJimpaXt7+8nEvFoNJJIxJNTGuFw2G63gw7TsbExqL8O9LG/Udn746h19vX1DQ8PQ30e51BLdp6CniLHGWpgZOoMtSDooQSLBILB4HnUZDKZUCgcHx8fHR0FHfUglwtQE4lEarXaYDCAXC40x/oateSoB2g2hrpjAGoIBAK0SJaUlIA+j8LCwvwzunsXQu13fR5/iFpyoiUZvf9PjZpKpTqPGmg2/xy1P8Fr56stDocDTEF9jtrnqJ31Sv7r6jWI15xOJ6gV6PX6/494LRKJOByOiYkJMBREoVDIZDJoTT+zof1g2AS0l4JKCmjZr6mpAY37Zzb0TWsAtissLCyAvgJo2BF0NoPhomAwaQ1AmSoSiQBrsLGx4XA4QMeCWCyemJgYGRkBc0EkEgl0S4OaoVwuByV9sOrDYDAA1EA9dHp6msfjgQ7ToaEh0EHQ2tqKRqMbGhrKy8ufP3/+6NEj0Pp9//79h2dUUFCQnZ2dnp5+8+bN1NTUK1euXLhw4fbt27u7u8BwJa0BGHs0m81gqgvU90EFDJoFA7X3trY2HA4HbOifgxpoxYBQM5lMoBX0DdTC4TCY5YpGo6DPY3NzE0INzIL8+ajpki7u76rIEGp0Op1EIoGeeSwWC4fDwRBCWVnZ8+fPQasHmPzJysrKzc3Ny8vLzc3NyMi4fv16enr6xYsX09PTA4HA76c0wBya2WwGZW0GgwEGaMlkMolEAvMZoFcStHpgsVgUCgVqoKABHPTldna+yWvA83gDNajDFOrzAO2lUD0U9OX+MdQgz2N2dlZ0VuJ7g9cAalKpFOpmBh2mEK/hcDg0Gg1asUtLS588eXL//n3Q9w3hBXWYpqSkXLlyJT09vbW1FfhGYGoz2VMUj8c3NjbQaPTLly+7uroIBAKYYQO9rKA75o2eoqamJgQCAVADHQufRg3qZgblS6PRCKrILpcL6lgAU9LQCh+oivxp1AbOCEJtZmbmj6GmVCoBaqD2DtoVCIRkNN3R0QE652tra6F2BSCkoA08Pz8fDLZkZmZmZWXl5OQ8e/asoaHBZDKB7oDfoQZm9kKh0ODg4O3bt+/fv19aWlpbW4vD4cCkAZjSgFpjgHaDw+FIJLKurg6JRP6/o3a+pwgsEQLjuKAHHOrEAmuhAoHAzs7Oeb0GSShA7Y3umE/rNdBQBArvkJdLpVKJRCIYH4JQA51Yjx49Ap5t7hllZ2fn5OQUFhaWlJQ0NzeD8QkCgQDmO+PxOBDN383sxWIxnU5XU1Nz+/Zt0BP9+PHjJ0+egBYFJBIJeiNwOBwWi8VgMOdRQyKRn2kNPrMHHMxXgUF/MG8QCATAWP/x8fHh4eHm5qbb7f5MXuvv7x8eHj7fU/RnogbUYmdnJ7j3YO4KiGd+fjLwLCwsLC4urq+vJxAIbDYbrLmZmJgAcItEImCvwPqYpDWIxM5C0kg0Fo+LFxdKq2vuFz/Nuvck71nlg7K6RyXPnlY8La0qra2vboLXo5FIDAqNRTWjmpBYVHNDTT0GiUIikFgsrr29u6d3cAhPHB2hMcfYbCZ3ZlwwNymUzC0pJWqDUmfRWKzG5VWb3eVwrnu9O9u+w73DwMHR0aE/eBgIHR0fHwT9O4c+91Yy1WFbNekNKqliSbAww5lkEGnEnqHhrsHRARKLzJhkcYWTM+I5oUIuNZr1VpvZ4bTanRa9Wa01KORqyaJcJFiYGZ/lMvksGpdOHaORyZSBfnx3V19nR08rtr0ZjR3GExl01pxApJZrjDrzstFqMFhlaqNoUTU9NT/Jm2PTJsbIbPGk+PjwOB6JR2PRSPz09DenwXgQForGTxOJyKv4SSzi8W2y5uYeN2EyyjGXX7am1/feqa0raqp60VRbjYTXNjYimlCoOkQbEtcKb+lv7YZX1zcjUIimJjgcg27paMX1YJs7ezrxRDxloJPAJLE5I9xJ+qSIKZSOLyqn5ZoFpUGrs5qN9mXLhsN9sLnj39o/3NgN7flP949PfMHQduBo7WDbsW43WYwqrWpBKpmcn2PNjI9wxnop1A4iq48yQWIJxvgS/qxsTqjVKiwrRofH6lxbdq2Z7Q6NzrykNS/KTfMLeuGsWsCXT/MkU5yZSS53isvmc1gTPNbk7JR4USzXqUyO5bVNz+7aqs9mdBvVdoVqdU7umFqwjo3JqcPCtlpCa0WvckLj3/An0YlHQq+CR789PPrtUbJuEIvHo/HIgX+PNclt7O4r6aXcQtMvNoxfqJtKKWHcKaPml5GKa8nP6/G1KHw9vKsJhWtConBt2Kr6skZUTR2qqrqprhaBqEUgKuvqaxub4EhUbW0tGolCIZDoJkQzEtmKwXThcD1dXQPDg8NkAoWRnLTg8/kzM7Ni8fziwqJ8Sa6WqTVSjXrpbBuFTi7VyiTqJYlUtrCwtChO/lsSy+QypUarNZlNttXlVY/Nu7a2u717sHuwv7NzsLe9u+31elZcTtuKw2paXdZazQqzWW4wiCUSkUg4LxbPzgom+TOzgnnJokoqM9hXt10ev82+Z7HuaXQb42J3J9VSiZrLvtNz7f3qj955UHCpuuIuhtU3kThJxGLRk8Tx8W+Pjj8JwOKvYolEOJYIOpymnqGeqvbel/0TKYjZC0jT+9XWC/f1Nwr11/MlaQ9Ft4om71dOFFXTnjeSSht7a7G9JXXIGlRzLaalFomtQ7XWIrEVjchqOKoWiS5vrKtBNlY2VJfUlLyoeV5WV1IDr6pFN1Sjkr9FtbY1d3S2dHS19Q3gR6mDlBEyjTbG4bB44xw+ny+c5UtnBWrxgl66qFVK9Rr1stnoWLF4PNb1tZWddefhhiewtRHYOTgIHh/EjvciR7vBo52jw63Dbfe2d2XdaV23W9aMRo9W61FpnBKVUahSzUjlXLGENbfElWinNatq74nCHZ7Q7PaMG8u7p1KKun56rfXdn/d9+6uYb32p9rv/UPbjrz/Pu4QuudNalFW56dhJlgri4cir4/Anx7B4OJiI+eOvDnQ6cc9g14vmrjsYzjWU8kP0xs8bfT+tsL9XZn7vke6jPN3FdHV6hvHWVcWtX4tyrkzfvzldeHPsaQ6z7CGnqmSsqmK0spJYUoYvKe9/WdX9rKK1ATNcje4ta2p9gWgpxWCrce2N2O56ZCcC2dPeTurpofT1UYcJTCKJjSfSiaMMBovH5Eywx6dmZ0USgUgtluoWlZpFlVaqMymX7Xqnw+Jx29fWXJubW9u+3Z3d5FrFYNAfPdo/3d/2728f7mzsrbs215zbTvum1bSh17nlitV52Spb7h6Se9rFdhTfVDmmfYSXZrfP/+gB6aup7X9/of2raUP/mEb+8kX8179DfOcLYz/8X8e++5f4t2D173yx7HE2oexB360LRbI5bSwYi5+E44lwNBqChY/98dhh5HhLMsceJPY39JKedE7fQCl+Xmn5Rf3Oe2Wb75esv//A/VGu68Il+40PnOnfWL31X+3ZsOVcmDELpsyBKQpgygfvLDz8aOrJlZkXGcKy/MWqJ9KqkoWy8rmXFZPPKjjF1czi+rEXTexSFLOymVGNG2vo5ML7ecjBCQyB386Y62IKe3miwcl5/MwCfmZ+eHpxTKxki7U8qWFcbuWrnVPatTmzb37lYN59sOg9WNw8WNo5XNo9Uh+dGI4jpuOYIRDTH8Z1vuiS+0hg3ePrfQzZ+pBwtWvc3Mw0VtCNhQT9zXbJFbT4wybRj8qm337A+3GV4mu3uF+5wf569tzX04Vf/dX4W98e/+F/mP0+jPkObOibf4H44TdqczM7stNqf/bdq40VmHgoWWCJR6KJeAwWDR/HY6HtdRubSRwiD/YxODim7DlBl91l/3WV7YM77ktZvovp65dTvZc+XLnxk9WUr9lvwdw5sLUc2HoObCsPtvsIFnwE8xXCbA9hK8VfcL98Z63slxul19YrCzcqH6/Xlm80NvoQuP3m7gMMaRs97kXPelGznhbhetvSFk66gVNudBl8Pcs73ebNLst6q8EF19hqVPbni6aHM5pcjjyVvniBKPh5P+/H/dyfE/gfMgSXJxZvCuVZ89pCkf2FYrvOEEBaQ9jVCNYWQRqCcHWgRukvkxw8ndt9NLl9j7uVS1lPG3RfabN+hDD+sk73o3Lld59K37or/FrqxNeuTHw9de7r189Q+zLzezDGO7DB7/11x9v/UP3DHzy/eOHphY9zf/ajDy9+dMV/cBQ/jSXCZ51Yyb0lsajT7RilkPAE/DCNMcye6xnXtPJXqkbtxb3uvPqV1Pvqa2nK6+9rUr9luAkz34I5bsPc2TDvHdhWAWzvESxwH7ZTCPM+gK0XwXzP3tp78av9l9f2y/L9ZU8OKioOKuv9Neij2vZA/YC/ieFHcgIofgArDHUsRdqlkQ51pMcU77MmepejneZQs/agRrHzcGE7g+++MGb+GVHz7d7Fv0NP/5c61n+qof8lavxve+e+RVH+aML0waw1RbRyV+59YTmq80SQm6/g6/F6R7jKHCw3BJ+rA4+lBwUC3+2JrVTC3tXOwOXWo4+Rvl9UuX/41PROgeabaQtvXRd+/fL01z+a/McPxr/6C9Y33ia9+3/3/PzbuI/ea7l4se7S5eJfX7j9qw8vfvDhBx//+gOjSR8+TS68jSW7/sLxUDxh93hJNPowkUgeJVEZDDp3ijmzyBCqmUoXWeLGT3o6SO6aetOdi6KUL01lwiS3YMrbMF0uzJgHM+fBLPkwxz2Y58H/tvb4q1vFP9x59uud4jTfs3zfs6Kdl5X7FQh/TftxQ2+kAX/aQDpuop+guFHc9Kv2+U86lj7pUHzSpfuk2/RJl/kTnD6OlB9XSUOPpdHMqeMLjM2fEB3/1Gn6+ybZF2uFX6wV/jek5Mvdmm+SrT9ken85sZY+77mv3CizBhq9UdRatMkZqrcF66zBauPRS/Ve0cJ24ex6Ln89k3SQ1hVKxQUvwbfeL7X/6IHye7mit66xvnGd9q3rtHcymD++w//gsfDafU56Rkd2BiY7szYto/ja9cyLly5+dPG9X330k0vXPpSoFkOx8Gk8HkkkYMHoq8CrV8veDSormSli0Yk8xtAUd0Q8yVwQTczLFkRK+aJeL19e0Tg2DY4jlTHE5HjbkfqnGTO3v8nK/F+42bDZOzBVHsxc8J+sD/7GWfQ9T/Gv1p9cX6u8d1hRdFj54qi6KlgDD9ahQjU9x1X0YBUnWDt92iSOo6S/wag/aTZ+0rL8SfPKJ5iVT+DLr2p0oZfKk2zB8VXuwS9H175HWP16r+lv0Iq/bJj/L43iL6KWvtSh/vqQ+R2q86cMV9bE1hPhfp0mirV/0ur8BGv9pMUYQ+sijbJgqXCveGLzIWvtEcP7mGQr6lTnI8S59ZN34fxnGEF1lwjeJ0J2zzS1cetQlLLavuISXFFxU9HDigcFxXm5BZmZN1OuX7h89eeXrvz0w0vvXr7x0ZJ24fhV+PhV0r2FBeOvjl69sno32LypcS57gknmM4Zm2EQxn7Y0w5GKptWyBaNeZbTqjA6z2btq39qyb+6rTeszIhubZWRSLawR51Cnsxu11onytCFcLU2r6CY7Am5FYKwIrB3d5WgZ9LQPb3aO+DpZe53T/ra5ww7xUcdioHMp0CEP9BqiA+ZE73KsyxJtN4VatP4mpf/5ov/O1OZVuv0XBP3bHUtfQkx+sZrzV3Wcv0NOfbNz4SdEzQXGcjp75fmEFzmz1SMPkIwx6nKMagiNaANktZ+gPMArdvvkuz1Luz2SneF57+icfWTGNMRRdVEE2F4GGjtcXdPSWI9BN6ExDXBUdXXDixflT4uePL53v/BOXnZG1q0rGekX09MvXL/+/oXLP7+aekmqkYYS0RCEWiiRcHjWOFzeOIfBpRLYI4NMyjCLTuOOsceprHnejHpeZlAbls0rjrVNz86efWNNbTeI1PPjkvHxBTZ/iTcrW5xT6Oe1FqlpVWVf07l9es++cdOv3/TrNv26rYB2K6Df8Ou8Ab37RO8+0bpOlI6QbOV4cSW45DxZ8pwuuE+EjpMZe5C/fMS2HPWqNzFSd53IXjpnfTxjzGNrshjy7DF5AVtdxNdXzJkbFuzYhVWSxMledPEV3hmVd0bpnFwyTSzoJuY1XJFibFZC5M1108Zxw2OYfgqym9TQOljT0l2DaW/AtCOa29FoHBqJQTbBkTV1TVWVDeUlVWXPnzx/cP9x3p38zKzbqZkZ1zPSb6Rcv3r5ysWUmzeUalU4EYu8OpPQ4/ircCLh8XjGOWO8MTJ7lEglEYcJtH4Cp4/AJQ6OjgwSCAPDw3jiCI3BnZ4TyZRynXFRqREuLs7OCmemZ2anp+bnBYtysUy9pNWrTcsmq2NlJVnY3fJs7G35ggcHUf9J4iScdKaj0UQ4nAidRA8Dp7uHp9sHIfeu37FzaNs6MK/v6717WpdP7dpSuzcWbS6BxTFlcXEsTqrONqqzUnU2mtJEXdBQBEujfOEIR0BgzQ3SBX2jE93DjI5+UltXH667o7WjtbWrta23Ddfbhu1pbe7GtXS1NXe1oXA4eAumsQWNwDVjWlvau9pxba2YZkxDfV1pScmTx0UFjwpvF+Vl3stOzbl1PSPj2s30lOuZKdduXb10My0lS6PSJbegJJv+ErCTeCKWiHs9rkkOc5JD47EZDDqLODLeTZzsGJ7oH6KAUZy2zs7mjtbmtnZMWyca24FEt2PgPd1oEq2bxx8RKueVBp3KrNPaTCbHss1jd3pX1tZXN7ZXd3e9gcB25OQwHg8keyQS0Wg8choNBUMB/9HZlMDm5oZ30+tY89hcLvOqQ7+6al6x2ZfNRp1WrVHK1eoFtXJmaYkrFnFmBFw+n8PicsbG2FTK2OgokcLuJbLaBsjY7n5se2dbZyuuC9vcisTg4GhsI7od3tKBau1u7h/uIlHwlDEyZWyERCX0E/o6+zprGmpKqsqePC0ufPjw7r17d+/dz314P+txYcaDgtS7d29k5V5Lzbl+NSfl6p1rlzIzUrO1aj3oX0vEo8m593g87nG7k0t5OUwmi0Gj0clkGp5IGyRQB17PvXd0duLaWrHJFShYBALd1IhqrEU01iLgtShkAxqNxOBaWwb6e+lUWrLJaEmqUWpdq+411/r2+u7Bnj8UOI0kS+zRaCQcCZ+enhyHjgNgdxtY77q+ueFZ8zpczhXHqn3FbtDrVEq5VJrcoba4JJkTCWcEs7MCwewZCWZmBDPTguTWZ7FAvCCcX1yQLEnlcrVardfrnK5Vy7JJp9NqtCqFUja/IGKzWSQyobevu7OrvbUVh0L/bt1MSVnpk+Li+w8f5BcW5OXfvZN/N/fu3dt5ubdyctJvZd28mZGSkvG6YyFTp9OBNWJn02dnO/fdbjfYr/XGniJQbXljWwDYUQDG3kABAYvFtrW1dXd34/F4sGORyWSCLShQVtJgMJzfvXl4eHh8fAySfCD9DTYBgrWJBwcH6+vr0BYyuVwuEolmZ2eFQiFY0wW2ioNNXW63G2xABk0LKpVqcXER7FDiFH23PAAAIABJREFU8/kgl0sikcAul9bWVhQKBZb0/Jk7FkAS/F8ftZaWFjAfCraUnN8dcx6183NUUI0K7NYHi2OCweDh4eH+/r7D4dDr9aBjAUw6AkUBkqvQFpTFxUWNRrOysgK2rdvtdqPRqFarJRIJWA85OTnJYrFoNNq/adTOb9w5Xzc4P1Xr9XrBKmGwgfLk5ASk5E9OTo6OjsCirPPzoXw+n0ajDQ0NDQwMvFE3OL87BtoUC6EG9vv920UNi8VCk45AQsfGxgBqgNfAzB5UN9jY2AAze2BvJ7SEMhAI7O3tgd0xYKoWTDoyGAxQZgR1Aw6HA3ZygkorNIsMVj7rdDqZTAZt7Qc7DP9N8xqYS2ez2Twe77xeA39bYHl5+fxU7cHBAdjkCe14D4fDYB8z4DWgzsbHx6lUKlggBk3VAtSkUqlWq7Xb7WBts8PhsFgsYBc9WNk/MTHxP0Svgaqay+WCOrEoFAqJRCKe0Z9pDaCp2j8moTqdDqrsAeUN6TWw3QnMIp+cnJzfuCOXy8F2J7BaFEztUigUDocDKntKpdJgMDidTrDfH/ytCqVSCawBqCKD3jIikXjeGoAlS5+2BqCyl5WVBW3cuXr16pUrVzIyMvR6/e9tKNjNDFBjMplgQyLY9feZ/WvNzc2ftqHnUYP61z6zRgVVkUFlD9oW8MaeovO8BmpF0I6F8zUqaMfC+T1FUO19ZmYGdCzQaDSAGqjqgiryZ+4pglADu/5SUlKuXbt25coVaOMOWMqc7FhIJBJer3d8fBwsYQX7B8GS0H8Br/1PjRroW8jOzr5169bNmzdv3Lhx7YzS09MNBgOo74VCIVg4HE4kEm63G/wtEWg1MolEGhoa+neFWkFBwf3793Nzc5ObA9LT09LSbt68eeXKlWvXrt28eXN1dRVs5I5EIr/bYbq6ugr+GguFQhkZGQGPYNPbGx2m/z+WULDuLzs7OysrCzympqampaVduXLl+vXrXq8XqJHkpn6wl3NjY4NMJvf09IC922Dt779D1O7duweq8VlZWWlnky3Xrl27desWAoE4Pj5OJBJASGFgS8VxMIgfHHjy6GFjXU1vV+cIkThCIg3jhwbPOq97e3o7OzrbWltx2JaWZgwKCYc3NTQ01jU01jY11sMRjS0t2Pb2jp6e3iE8YTTZA578e0H8ycmZ2VnRvHhJLlPr1DqT3mIxr66sul3ujfWN3bNdf4GjwEkouSHx7DbGQqGTg4NDn893zhoIJybGqVQKfmigf6B3eHiISqdwuJzpmek5oVB+trXO9rutdU77itVk1qvUCpliaX5BODM7yeNxWSwmjUolEoh9vb3nrEFDZWVVSWnZkyfPHtx/lJ9/725ecudr3p2cvNzsjPSb165dzUhPe/jwYXl5ORaLVSgUoA0LuByw0+SYRjwei8zP8F8W3CkrzK0rflTzpKj2ZWkbGjvYMYjvxOM78QPtfd2t7W04DK4FgU127FfVN5TV1r1saChFIGqwWFxba29X9+AAnkQaoVEZbDqbzRVMTYhmZ5ZEIvWSxChXWNQWm2nT6fa51/bXtg639452D4/2/ZHAaeQ0uckmFomfBsMHe/6tbZ/L4zZaDHLlkmhewOOzR2mkfnxPT3/nEGFgZGyENcGemJuamRcuyGQqrc5is7o8Dpd31e4wmZc1SvW8VCEUL01Ni7i8KRabN5bMSBCJQ319PZ1dbW3tKFRLbR2iorrh2Yuqx8UV9x+V3LlTnHP70d07efnZNx4VZlSXF3W0YkjEQfJIchV0b3/fUSAYDkdi8fhJKLlAHRZ6FY+8iifi0dD+Th+mIevjX1U8uldUWHi/8Enxk/KyF1VVpTVNtU3Njcn2DhwGg2tGt+LQLc0NKGQlAl6GRJah/5/2zvuprTTd89r/YKu27u5Wbc9s3b1Vs7fH093TceZ6OrmTx9gGB7CBxsbg1NgGTDBBCARCImcwGQQSWQJJIIRAEhJIoIQSCqAciAJERnJP/7J19Jhz2eme3p370+6decp1LLLOc973nPd9wvdTnFNVXVFT11jf2NrSQe6kUCl9/dShAcbEKHOKzRZxJ6R8nlI0o5HINQrjos5mMnlsNu/Kmm9z62B3D+kRCpL2To4D+ztHG+tbLteaw+laNOjnZHNTPO4wY4hMbWtsrWtoqWvuau4aoA4waSM89tg0b2ZOoVDqjEazDWF/WawWncGgkEl5EglXIBrjTDEZEzQaa2ioj9Lb3NxWU1VXUVZRWlpcVEoilaZn4J4kpj54mPz4YVpqcn4RobqtsW2cSZMI2ULe2PgYEpSi0YaamhoHaUP+QODg4Hh//8gfAE2sQOA42PYYOD7a8W52trfHf5d0JzH7TlbljWTC/cyMpzkpKbnYTAIhl1iSTywrJJQTC0qJ+cVEfCERn0fMxxHzc0pLCJWVJXV1Fa0t9d3dbQP93UO0Xs4ki8fnzMzypQqJalGhN2oNJp3epF2yGGxui2fT7d3Z2Nrf3js5OPQfHvqP9v2HOwe7a1ubrtU1vcmyoFqUSOR8nmhslDNEo7d3kusbm5vbO8nU/n76CH2cy0KGmko5rzeozBa9zbJoRlr95ErFjFgiEgn4vHHOBIPJpo0wB6jUgfYWasvL9saaptqqxobqpqY6Gn1wkstRyGRGrd5uNFt0RqVMJ5rV8adVTKaQTufSh0Y72rt5UwLfzh4yG/z+g8Ojvb1DJEcF0UlEWcwf0JqWm/pGUio7wvNbv8KRQ/J7IrBV97BFD3BlCfnlSYWV6cSqLEIlNr8yL6+yIK+cmFNBwpYTsaXE3AJifl5xYUF5Mam6vKyusrKhqobc1EJtIQ+Se5n9wxPD4/zRKQGPPyMVzi2IlXqF3qKzuJcd63bnusO14Vzd8qxtr6xuedzrbveKa9lgXlTrlfOKGf7MxOgEg8bs6xno7urp7Rui0Zmj4xPcqWm+UKLSmQ0Gl8XssdtXrFbnssls0Js0ukWlWjOnWJieV4zPzI/yxayJaTaHx5nkjXK4TA57bJIzKeSpNIpls85u1jsMGpdBZVZI52f13JnNkQkPtV9bU8fKxzflZJUO9Q077W7/if/o8Ojg6PjwxH/oD2BeHQUCx4icjGd9s7KVkl5DTmhmhVWPX2pQfEaavZzOiEgdjMzou5vT+zCfmkjqTiWRU/KaM3IasVmN+BcthBftpIy2gsxKfHY+Pjs/Lys/Lwufl4nHZ+BzU/PwKfkFqQWEtELiC1JRBqkon1RWUVJVW/Gyub6D0tbbT6XR+4dHhhhM+jibOTXJnhZwZ6b54mnBPF8oF87KRWKZSCyfkcglUoVUJp+XqxQq/aLOYja7nA7PysrGjm9z72j74HD74GBzf2d9e9O1tWpdcxtXXWqHXWY2i4wmntY0pdBz5jQjAmkvW9A1yu2bEAxPi2Umi9buMtndRpNFq1oUC6X99MWcYl10LOvylYZP//Di0/MP7kalPb6X3FLfHOxvRKheh37/gd+PQbIGx0gwfE6hLKxteV7TFVfLulwh+ih/7kK5+WK6NPSZ+Oqj6Wv3+Dfv8iJjJ+PiJ5OeCJKfjKYkDGUk9uakUwuwXdic6kx8YVZ+YXYBKYdQiCssxBMJuPx8XH5uTl5OVm5WVk5GFvZFbi6ORCwpKa6oKKuurqp/WdPUXN9MbiZTOygD5L7hniH2IGNyeJzPYou443NCvkw8I52fVcikatWC3ri4ZDZZbGaXx762tYK4a3/75Ojw5PgY+Xd4cLy/s7/l3fKura44HS6XyWrXmCwy7ZJEaZIoF2ZkEs7MzLBANCic6xNreuaXaZqddvFm8bA9uUFxM4P1aUzX776gvPsP3e/8x6b3f1n11i/TfvdWwndxhelP81OfpFpMJn/g6ODocGN3Z9/vxwSOEUhQwH8ilMyWNrQ8r2j7rmH8ZvXcxcqlf8nUhqa7rj90XI0yXw3TX/tCd/Nz9a3zivAPBeHvjd78aOD2ha67l8gPI7qSErqT0zuSMlqTM5uTshuTcXXPc6ufZBQ9yS5MxBY8y817lpeXjMen5RXh8qvzC+pJRc1lZR1VVZT62p6Odnp3J6OPwqT1sRkDk2N0AXuUNzbJ44pn+HI5X6mc1mgkJrPc4VS6PZq1VaPXa9vfWTk5WA8c7QQCe4HAnj/gOz7e2t/f2Nlxb3utG94lj1fj2JAvr83o3XyNkzWvGeCJm0enSwYnnjczwvN7Pklqf+tOyz/f7Pjn0P5fX2K8+THj1x+MvvuryQ8xnPcwPW9jat/6T9hPPniRcK8kN7UsPjJexOOdnBwcnhwevPJv+08w/sDxyfGud9vD5gw3treWt/Zk1jPjywSh+dKL6YvX7nlv3PJdv7ERdtVxJUQf8oni6vn5a7+V3PzP4tsYSSRGHIWR3MMo72Hkd86J434/9/hr6bMbiuexirQnshep8y+yZzPzRNnEaWzJFLZ0Irt0LKtyBFfDKHjJJrVwyzqnKrsFVdTp2n5RC13SzpSS2XIyW97OUXSKdY0zmpez+maZtVXlfCl3vlS6W7WrnYY1qmV90LkxsrLBXNlken2j23sTvkPu3vH4zvHIxt6gZ5tiXWsxuCsUZvy0Nm1M/nRIeq9LGflSc7NSdZEk/RQn/n268P1k4bnYiV/fGH8zZOzc15zffMn9zXnOO/9t9D3MyIeY/nf+Q+3b/5B94V+yHt0hxkcm/fGTP+IyM472d/eO9nZPTnyBE8zx9wfHgR2HS9ff39zZ2djVM9jcyyvqkCZVyKLzFCGJC5cStCFx6suR6stXFkLPq66/rY7A6CIxhrsYazzGGYfon7gfYlbgmPBfVxM/Wnt+ZfV5pBv7bDM7zZ2VY8shWvDV1qKXLhLVRmKai9jm8kl7ldBdK15pmFtvUmy2LGy2a7daNRv1SleFeLlQtJQpsD0eNcT0LoR1zH/RIPiQNHYOTz+HH3qXxDhfzf6qaepql+hGr/jRuD6Zb8NLN4p1u2X6/TLtbvGCjyDbzJ3fyBSuJXFdT1j2B3R7FNl1o2E1pNL1BdF8Hrv4QZrqvUTlO/fmf3N9+s2vOec+mfjNHybffn/ynTdZ777R89v/0vDefy89/wH+jxeyblx+FvL5za8//upGaKh3c/3w+OgwEEBy77uB3aNXe4YlBbmzqquzlkrtpPYyu/slbUPGhhFn3ogpqVcdXy6JSOFduzV17Q/CiH9UfIvR38ZoozHGWIw1DmN/gPF8h/EmYLYTMNtPMdvP3txKOu99dnktM34n8+lWVqY3p8CbW+LNq/RiO1czWStZ3JUc4QZ+bpug2CWq94haH8m4W2o7KnEcESy+bM1asmz9nnD7Omvjqx7b79uNb1er/wdB/AaO/0au4J8KxedqFB+QdRf6zZeHbXdZ608nfdnyV4WGH4oNP5AW/lQgfVUgDuBmTjKmDpPHdp8M7zwc2Pq2YzO8ceNKlftL0vLHWM0HqbL3n86/FcM/d238zYuMcxcYb33Geus847fnez7+vPWzz6u//qrkakh+6KXnVy7e++bzq19//tWXn35uMhqPTpCnwd7xMcZ7tHfkPzEsa9vJdW1t5eSOOqRwcXBsiDk3OKHrFxt7ZKbeOStVYO9kOZsprsoSy6Ork9G/Go/CTMZgxLEYxX2M7iFm6SHG/ARjT/6FJ/2jjayLW1nXttNub2TEbeWk7BFyT0iF3xeVBfAt+9kjW1kcL3ZyGyfy5Yr3cLJdwuIJ0RIo9vypaPVPea6jVMPWd8qtu+KjMM7uhYG1jzqd52qN/0hUvoET/wIn/mXh/K+q1e+0GX7fa/1iwHZ9ZCV+wpcq/R5n/KFg+Yd89Q95ylcFyu9xcycvhHtJE9sPmWv3BlfD292hVc4/Fpsu4JXnM6Y/fDb6fsLAuaiXH95tvphAiUofictixD7rj7rfeDu2PPpecfTd/Nu3U29ce3ztakzIN6GffPzZ1ZCr81JZsBTXf+T3Y7ZPXu0HAka7pWeQ3EVtoFDqqT2t/QMDNAZnmC1kTs9w5uZFC1qZ3qI0rSwYvNrlfbPbPyf0M7t8zQX2gjhlZqg44Uvuw885330z9eyKMDlckvKtLPWOCp/qyE135r7w4HEbRKKvtPygqMWH71kvoG2SxnZKeQfls8fl8pNS1Ump/qRs6VWR5QRv3E1fWE+Qrd4RrIaxHF/1Lf+ObHi7Qf1PJfO/wAvfwE//slj0P+vm321Tnu9Vfz2ojRm1PeOt4aT7pfpX1UvfVxlOqlT7pXObJeJVotCTy3VljVnTmZbkweXkHnPagDVzaDmXYSYyl8rGDBUjqsJOLraUmpX3Eptdk5NW8SKV+OxJxoMHiXfuPor+9v6tW9+GXr126VLIxW8uhd+8JZcrjk+Qhe7r3PueP6Cz2foZtIFhat9Qa+9g+9BwL4PD4gqmZoRciYgzLxYopPM6jXZ5yWa1eJaWVhRKq1BsGOMq6aNSJkfJ5urGJwyjHD2TbRwZM9FGzYNMawtV10gxNFCMDT3LDf3WxiFnG221Y9jbydgis31d3IMuwWGn6JAsPSYvnHQsnrToD+sXdytUW8Xy9Rci82OONnJQcZk691mL8LflnHPFo2+Xsj+om/i8XXClX3ybIbs/qsibMlQJl9uknn6dd8S0zTJushZXR7XuMbWLueAYkdnp81banJkm1gxOi7vGJ+uH6CUd5NyahqyyqtzSGnxxNYFUXUqsLSmoKEgnZielpyc9fPYo+kHsrbsxt25FXL96JeTy5ZCI27ciIiJVKu3h4cnh0TGSRT48CRz4A3qzZRDRIBwIOq67f4DaN9Q3QOubmmDO8MbkEqFWITfoNEsGg3l52Wa3axcXZ+bmxrjjdDZzbGpiSigUzEpmpXLpwuKC3qpbXtHbNk3O3aWVffPmoW37xL7jd/gCju1Xzq1X9s1XlvVXRs/3WscrlS2gcgYUnoDMfSxx7k/bfFNm74R5g2NeGzG4BrT2bpWtTW6pnzPVSkz1kqVGqalZaupQGLuUxh6lYWhONyxeGJ5VDgtltCnx4LigjznR0UdvpQ41kvtqW7orGtrLa5vLKqvKKktKKouKKkjEUmJhcWFhMbGgsJBQSCQVFhUTigk5hOyUrJTEZ0kJ954+uvMgPvLOt7dv37px/QaSNLhx8+bt25FqjeYo6DJELxd54fdbrFYaUrIwFKxY6DllBLV3tLdRKd3DdNrU5KRMKoXkudPp1C0uikQiBpM5wmBwJjhBRtCMBJE8UKjUGp3eYDAtWe1Ou9PtWV1f925v7ez79o4OjpD4yuHxyd7h0Y7vwLu9t+n1eda8rtV1m8uzbHcaLbZFk0VrWlZotHK1Zl6pEiuUMzKlUKqYmp0bF4hYk/xh9sQgg9lLo1EGBjspPW3krqbW9vrGptr6huq6+pq6uqrqmsrqmoqq6orKqooKpMqiAlGvRYgzwd6cslJEKhlBqSD/IWmQotzcPGh1efTw/v34uNh7SGAyMhJpdgRGUFRUlEajgTDR605Hv9//lyoWUCAPKlgNgBEul4sy/qBVE6i4AL0EXC9QPiFhfFYY4ODgAHLs6+vrQIl3uVx2ux0agfR6PcCC5HI59JFBZpPD4QDyjU6nDw4OoqQ3Mpn8Z6g5tF0O+jIBxlNaWlpWVvbagVVVAO8pLy8nEAhAVgJ6CxxjY2Mh2/Jv9xqqAw49jgBzwuPxGRkZL168IJFIra2tkGrj8/lSqVSr1Z7FPaK5KND7htAxSH4HdUeReg6grpjNZsC1AJhcLpdDVzHg8ng8HsqoRLWDKRRKV1cXmktrDFpzczOwSoAZCMlZwN5AQxW012ZkZKSmpj579uzx48cPHjz4edrNXzfWUJIvXMCqqiroPgP+FRaLzcnJIRAIIJYL/CdQymUymeJgkc/CwgJkeYFwA1wgoEJub28DEQg+9Hq9a2trgKcCfDKwagHnBbRQlGkJRGQUqGQymaAd2Wg0gq713NwccEiHh4f7+/spFEpbW1tdXR2QlXJzc4FHBf2hDx48eBg0kFFH+0NRitdf57XW1lbQAa+trUV7kYlEYmFhITSm4vH4kpKSyspKmMJQUwTcT7TOA6XdQMWCxWIBlWGo84BeZJR2A77zeDxWq1Wr1UokksnJSbS7HC4Ji8UChCjoeQDcD8YpoFuh0xGyyDQaDWUEodyWgoKCnJycjIwM0POAXEFcXBy8QL0GxLjQ0NC/2mtNTa/73lHUDQFpNysE2g1QvKqqqurq6kDdnEqlQk1RsE1qnM/nQ64XJZTD/AUsGvRdQt4AGEFer9fj8UDtAZCVoFCjvb0dqmN6e3uhzoPL5QqFQrlcbjKZIPcON0SJRAJdtcBApNPpVCoVmJHgtaKiImjizszMfP78+dOnTyENCnAlRKcoSLuJiECEY376aQDZKrPZDGzjv1S/drYX+WcYQWe1Y6AUA+VRnVXqdzqdaAc3WrEASv3ANzCbzWq1Guo8fib3DjVFJpPJZrNZLBZQQZHL5TDWOBwOk8kcGBiAJcGfMYKwWOyPKxZ+rB0DFQtRUVGLi4vwDEXyBpCC/z96DdUp+r8nK/2M11BI+Vlq4VmvnclRTf3bvAYI6J/x2k9WLPyM1/R6/d+9Rvi7135ihv59rCH95z9ZU/Qz97W/e+3/Sa8dHR39+GlAJpP/Up3HzzxDz3L2/n98GoBqDLpeCw8Ph0qs6OhovV4PpYnIMxRJjh4cLC0tIe0GQUYnAKVBqugnK7H+3XstJiYGirGAThgeHh4TE2M0GgOBwP7+PrJ7h6KPpaWl3t5eQKnTaDQoLgS+648rsf4dew1WHjExMZGRkeCy0NDQmzdvhoeHm0wmGGv/Wom1uLg4MDBAp9N7e3t7enoAKN3a2vq3Ntbi4+NhbxAdHQ0kTJih4eHhbrcb1mv7+/vIKtfv9y8tLUGoALYvMD0bGxv/1rwGakWxsbExMTHffvttdHR0eHh4SEjIkydPQPEMytUxwNFaX1/Pzs4OCwvLzc2tq6vr7OwEUunfmtfQsYbWgIeGhp4/f765uRm44bu7u0gEHDjEa2trtbW1ISEhX375ZWRkZEpKCoFAqKio+JvyGoTYoC73+vXrly9f/uabby5cuHDu3DmJRLK5uYnunTEejweCgjQaLSoq6tKlSxEREdevXw8PD79//35iYmJaWhoOhyORSBALBRJ3UVCCDaj0BQUF5eXlECmCfgPg7P3ZygMIv6DuBLv3ra0t6G0BDT0IVa6vr7tcrtd6uf87Zw+UZVE64eTkJGiUGQwGi8WyvLwMapwymQxo0kAnHBgYAPVCkGCrqKgAvV8cDgeRosePH8MQu3fvXmxs7K1bt8LCwlCXvffee6GhoTqdzh40h8PhdDoxDocDQs8KhSI/Pz80NPTKlSthYWFQBB0TE3P37t34+PjHjx+DBzOChsViAeoFELTS0lLgTp3tbUHphKf4KETrz2Qy/VmkCG05OD4+3t/f93q9q6urRqMRus8Alzc0NAQxxZaWFgqFQqPR2Gz21NQU0CIXFxeXg4Z2BEGjBofDgXYAVC8XjRQRCMg+FMK5iYmJT548gYrcmJgYCA2FhYWFhIR89tlnn3zyCYFAAIFUANebTCYMQP2MRuPs7GxPT09TU9PTp0/DwsKgijcqKio6OvrOnTtxcXGA8APxRdAZS0lJycjIwGKxgHWsrq5GAYX9/f1n6YTz8/NyuVyj0VgsFpAR29zcBFZcEGCKBMbR+Nrq6qrVatXpdECTHhkZoVKpTU1NtbW14DUIuPN4vLm5OaBJW4MG5/Jj1ToKhdLR0fGv2szBkGpaWlp6enpaWlpycnJCQkJ8fHxMTMzt27dBGDEkJOTq1aug8sdkMuFiQyelRqPBQAhUr9ezWKzu7m46nd7a2lpRUZGVlQVgzfj4eKTMNy4OUPKPHj1KDFpSUlJKSsqLFy+ysrJyc3PxeDzIJkLup6ysrLGxEcW/MxgMGB2zs7NoABZag1wul8fjWV1dXVlZcbvdNpvNbDZDfHF2dnZiYgLW3rBXoVAog4ODTCYTYrlisRjta1Or1QqFYm5ujsvlQhR3cHAQOk5aWlpA6A8A3Pn5CKkN8h5AJ4SxFhsbGxERAY57+PAhiUQaHBwcC9rs7Czk55aXly0WC+I1SAvRaDTgWPb09PT19YFwdmFhIQ6HS01Nffr0KcKKfPTou+++S0hIgNmamZmZlZWVnZ2Nw+HAcaCcCBDD4uLioqChiHggQRYWFhYVFZWVlVVWVkKnX1NTU1tbG5lMplAoPUGDJXdfX19v0NDlN51OZzKZoPM5NTU1PT0tEolmZ2dnZmb4fD6axwJgOWjOtbUh8HVooqpAeqlLQNE6JycHZEwTExOBIpqUlITFYouKilpaWmg0GpPJHB4eZjKZcB8AJqXVakW8Zjab7Xa7Tqej0WgQ8+wOGpwAOWidnZ2tra2AmCeRSFgsNjMzE4Z3eno6QB+B/Y6OOCKRCPRCVC0Q9R2kHVC+ISS9SktLy8uR1GVVMO3W2NgIfgRXwgp8ZGSEyWRCOgLk+GZmZsBlQkQrbIrNZrNYLDhbaAuFhSfkJwG5CkKFBQUFOBwOj8eDvGNDQ0NHRwcwNhkMxtjYGJvNHh8fB7SiSCQSCARmsxkemw6HA2O329fX17VaLY1GQy/p0NAQ9G3B5hSauwcGBiAL2d3dDfk0wEtWVVVBgBd2WqCgewp8RDIMROJrXuGPR9/ZL8EzuqamBk1BoK2DaI5ueHiYxWJBKzePxxOJkMZ4kUgkFAp5PB50NzIYDMiZwg6ns7MTNoVNTU2tra0dHR1dXV0orhOuBJPJhBfj4+MwkGdmZqRSqUwmm5+fX1xcVCqVIFgLEqsY6D83GAxjY2MsFgvczGKxgB45cmrDQYOuITiCK+EI3VcwuXp6eqhBe/nyJSh5Qs4BzemCc2EwAiAYEr3l5eUwZ+GuD2cI7UmQmhodHT07CiYmJqanp4VCoUAg4PP5PB4PeuPhSg8PDzMYjNGgjY2NjQdfroj1AAAC50lEQVSNgygOTHCDNj4+Dh9OTk7y+XyhUAjPeqVSqVKpNBqNTqeDhz5kCyEnCT2tSM+e3+/3eDxwa+Dz+fAmJicnATY7dWqTQYPrCW+CzWbDzXJ0dJQVNOapwTtmsVgMBmNkZIROR+ohztrQ0BD0u0GIhUqlwv20P2jwnXQ6fWRkhMFgwLxjMBhMJhO9tHDaoLoA5w8e4QcNHAqDcfbUxEGTBE0RtIWFBUiqgoOgfx5uXtA9CQs0m812eHgYJDseHh8fI/vQQCDg9XoBxSyVSuFPSCQSWdCkQYOs7fz8vEQigVsJTA3RGRMGbfrUYOJMT0+jY4HH4wmCBieGHuEbYLzwgoZ+CX0hEAjOOkIsFkMGb3Z2FhLMMKHkpwZOUQYNkor6U1sMGhRUuN3u1dXV9VPbOLXTTyDt5C6Xy+FwoCuk15GiQCCwvb0NyTG0xkKhUCiVSrVarTq1hVODtwJvC45yufysi6VSKSB90a+enosc/Sn4JTAdVCoV/G6lUgnfgH549m8plcqFhQWVSqVWq7WnBvPIaDRCbzisBx2nBgt6t9vtCZrb7XYGzeFweDwedIe0u4uoi2xtIbIsYFun5nK5wDMovQLxGmzifT4fDE44mkwmAKfrdLrTt6fVBE2r1eqCptW+/oxGo4HTRh2BugZewOfhhDUaDfwGvV5vDNry8jLMBcsZOz1rZPvidDpdLpfb7V4J2tra2vr6+mbQECGVnR2fzwcxiIMztr+/v7e3t7u76/P5tre3wRewl4S1Icrz2A3adtB8Ph/4DrRZ3G435KctFgtIj7yOeUBUcnd314EQXu2w5nQ6nVardWlpyRA0GNowsOGIOg71KbwAz2o0GrVajY4LtVoNN1f4KfDX0tKS2WyGOwggph0OB3jH4/GsrKzAxIG7787ODhSF+Hw+dOuKKqjATQZ2FyAEfHBwgGBYgy6DnwXHbWxsoMtp8BqIQ+/t7YH6ylmXOZ1OWGrA1Tzrtf8FPCVtMWoN3G0AAAAASUVORK5CYII=;" parent="1" vertex="1">
          <mxGeometry x="884.73" y="172.82" width="59.44" height="83.68" as="geometry" />
        </mxCell>
        <mxCell id="CGWt4wzMSBsF5mTkpCt7-46" value="" style="endArrow=none;html=1;fontColor=#CC0000;strokeWidth=2;strokeColor=#CC0000;entryX=0.5;entryY=1;entryDx=0;entryDy=0;exitX=0.5;exitY=0;exitDx=0;exitDy=0;" parent="1" source="CGWt4wzMSBsF5mTkpCt7-42" target="CGWt4wzMSBsF5mTkpCt7-45" edge="1">
          <mxGeometry width="50" height="50" relative="1" as="geometry">
            <mxPoint x="818.91" y="316.5" as="sourcePoint" />
            <mxPoint x="868.91" y="266.5" as="targetPoint" />
          </mxGeometry>
        </mxCell>
        <mxCell id="CGWt4wzMSBsF5mTkpCt7-47" value="&lt;font color=&quot;#000000&quot;&gt;&lt;b&gt;Historia Clinica&lt;/b&gt;&lt;/font&gt;" style="text;html=1;strokeColor=none;fillColor=none;align=center;verticalAlign=middle;whiteSpace=wrap;rounded=0;fontColor=#CC0000;" parent="1" vertex="1">
          <mxGeometry x="868.91" y="160" width="100" height="20" as="geometry" />
        </mxCell>
        <mxCell id="CGWt4wzMSBsF5mTkpCt7-48" value="" style="line;strokeWidth=2;direction=south;html=1;" parent="1" vertex="1">
          <mxGeometry x="817" y="160" width="10" height="400" as="geometry" />
        </mxCell>
        <mxCell id="CGWt4wzMSBsF5mTkpCt7-49" value="" style="endArrow=classic;startArrow=classic;html=1;fontColor=#CC0000;strokeWidth=2;strokeColor=#66B2FF;" parent="1" edge="1">
          <mxGeometry width="50" height="50" relative="1" as="geometry">
            <mxPoint x="570" y="388.76" as="sourcePoint" />
            <mxPoint x="570" y="320" as="targetPoint" />
          </mxGeometry>
        </mxCell>
        <mxCell id="CGWt4wzMSBsF5mTkpCt7-50" value="" style="endArrow=classic;startArrow=classic;html=1;fontColor=#CC0000;strokeColor=#CC0000;strokeWidth=2;dashed=1;dashPattern=1 1;" parent="1" edge="1">
          <mxGeometry width="50" height="50" relative="1" as="geometry">
            <mxPoint x="120" y="160" as="sourcePoint" />
            <mxPoint x="1040" y="160" as="targetPoint" />
          </mxGeometry>
        </mxCell>
        <mxCell id="CGWt4wzMSBsF5mTkpCt7-51" value="" style="endArrow=classic;startArrow=classic;html=1;fontColor=#CC0000;strokeColor=#CC0000;strokeWidth=2;dashed=1;dashPattern=1 1;" parent="1" edge="1">
          <mxGeometry width="50" height="50" relative="1" as="geometry">
            <mxPoint x="120" y="560" as="sourcePoint" />
            <mxPoint x="1040" y="560" as="targetPoint" />
          </mxGeometry>
        </mxCell>
        <mxCell id="CGWt4wzMSBsF5mTkpCt7-53" value="Empresa" style="text;html=1;strokeColor=none;fillColor=none;align=center;verticalAlign=middle;whiteSpace=wrap;rounded=0;" parent="1" vertex="1">
          <mxGeometry x="70" y="243.25" width="40" height="20" as="geometry" />
        </mxCell>
        <mxCell id="CGWt4wzMSBsF5mTkpCt7-54" value="Medico" style="text;html=1;strokeColor=none;fillColor=none;align=center;verticalAlign=middle;whiteSpace=wrap;rounded=0;" parent="1" vertex="1">
          <mxGeometry x="110" y="476.5" width="40" height="20" as="geometry" />
        </mxCell>
        <mxCell id="CGWt4wzMSBsF5mTkpCt7-55" value="&lt;font style=&quot;font-size: 16px&quot; color=&quot;#000000&quot;&gt;1. Capa de presentación&lt;/font&gt;" style="text;html=1;strokeColor=none;fillColor=none;align=center;verticalAlign=middle;whiteSpace=wrap;rounded=0;fontColor=#E6E6E6;fontStyle=1;strokeWidth=2;" parent="1" vertex="1">
          <mxGeometry x="200" y="140" width="198" height="20" as="geometry" />
        </mxCell>
        <mxCell id="CGWt4wzMSBsF5mTkpCt7-56" value="&lt;font style=&quot;font-size: 16px&quot; color=&quot;#000000&quot;&gt;2. Capa de Negocio&lt;/font&gt;" style="text;html=1;strokeColor=none;fillColor=none;align=center;verticalAlign=middle;whiteSpace=wrap;rounded=0;fontColor=#E6E6E6;fontStyle=1;strokeWidth=2;" parent="1" vertex="1">
          <mxGeometry x="570" y="140" width="198" height="20" as="geometry" />
        </mxCell>
        <mxCell id="CGWt4wzMSBsF5mTkpCt7-57" value="&lt;font style=&quot;font-size: 16px&quot; color=&quot;#000000&quot;&gt;3. Capa de Datos&lt;/font&gt;" style="text;html=1;strokeColor=none;fillColor=none;align=center;verticalAlign=middle;whiteSpace=wrap;rounded=0;fontColor=#E6E6E6;fontStyle=1;strokeWidth=2;" parent="1" vertex="1">
          <mxGeometry x="840" y="140" width="160" height="20" as="geometry" />
        </mxCell>
        <mxCell id="CGWt4wzMSBsF5mTkpCt7-59" value="&lt;font style=&quot;font-size: 16px&quot; color=&quot;#000000&quot;&gt;Clientes (Usuario Final)&lt;/font&gt;" style="text;html=1;strokeColor=none;fillColor=none;align=center;verticalAlign=middle;whiteSpace=wrap;rounded=0;fontColor=#E6E6E6;fontStyle=1;strokeWidth=2;" parent="1" vertex="1">
          <mxGeometry x="216" y="540" width="198" height="20" as="geometry" />
        </mxCell>
        <mxCell id="CGWt4wzMSBsF5mTkpCt7-60" value="&lt;font style=&quot;font-size: 16px&quot; color=&quot;#000000&quot;&gt;Servidor de Aplicaciones&lt;/font&gt;" style="text;html=1;strokeColor=none;fillColor=none;align=center;verticalAlign=middle;whiteSpace=wrap;rounded=0;fontColor=#E6E6E6;fontStyle=1;strokeWidth=2;" parent="1" vertex="1">
          <mxGeometry x="547.75" y="560" width="198" height="20" as="geometry" />
        </mxCell>
        <mxCell id="CGWt4wzMSBsF5mTkpCt7-61" value="&lt;font style=&quot;font-size: 16px&quot; color=&quot;#000000&quot;&gt;Persistencia de datos&lt;/font&gt;" style="text;html=1;strokeColor=none;fillColor=none;align=center;verticalAlign=middle;whiteSpace=wrap;rounded=0;fontColor=#E6E6E6;fontStyle=1;strokeWidth=2;" parent="1" vertex="1">
          <mxGeometry x="827" y="540" width="198" height="20" as="geometry" />
        </mxCell>
        <mxCell id="CGWt4wzMSBsF5mTkpCt7-63" value="" style="endArrow=classic;html=1;fontColor=#CC0000;strokeColor=#CC0000;strokeWidth=2;entryX=0.334;entryY=0.924;entryDx=0;entryDy=0;entryPerimeter=0;" parent="1" target="CGWt4wzMSBsF5mTkpCt7-26" edge="1">
          <mxGeometry width="50" height="50" relative="1" as="geometry">
            <mxPoint x="619" y="330" as="sourcePoint" />
            <mxPoint x="590" y="360" as="targetPoint" />
          </mxGeometry>
        </mxCell>
        <mxCell id="CGWt4wzMSBsF5mTkpCt7-64" value="&lt;font style=&quot;font-size: 19px&quot;&gt;&lt;font color=&quot;#cc0000&quot;&gt;Arquitectura del Sistema&lt;br&gt;SGHC&lt;/font&gt;&lt;br&gt;&lt;/font&gt;" style="text;html=1;strokeColor=none;fillColor=none;align=center;verticalAlign=middle;whiteSpace=wrap;rounded=0;fontColor=#E6E6E6;fontStyle=1;strokeWidth=2;" parent="1" vertex="1">
          <mxGeometry x="455" y="90" width="249" height="20" as="geometry" />
        </mxCell>
      </root>
    </mxGraphModel>
  </diagram>
</mxfile>
